<svg width="614" height="384" viewBox="0 0 614 384" fill="none" xmlns="http://www.w3.org/2000/svg">
<circle cx="7" cy="7" r="7" fill="#32336A"/>
<circle cx="7" cy="38" r="7" fill="#32336A"/>
<circle cx="7" cy="69" r="7" fill="#32336A"/>
<circle cx="7" cy="100" r="7" fill="#32336A"/>
<circle cx="7" cy="131" r="7" fill="#32336A"/>
<circle cx="7" cy="162" r="7" fill="#32336A"/>
<circle cx="7" cy="193" r="7" fill="#32336A"/>
<circle cx="7" cy="224" r="7" fill="#32336A"/>
<circle cx="7" cy="255" r="7" fill="#32336A"/>
<circle cx="7" cy="286" r="7" fill="#32336A"/>
<circle cx="7" cy="317" r="7" fill="#32336A"/>
<circle cx="7" cy="317" r="7" fill="#32336A"/>
<circle cx="7" cy="347" r="7" fill="#32336A"/>
<circle cx="7" cy="377" r="7" fill="#32336A"/>
<circle cx="37" cy="7" r="7" fill="#32336A"/>
<circle cx="37" cy="38" r="7" fill="#32336A"/>
<circle cx="37" cy="69" r="7" fill="#32336A"/>
<circle cx="37" cy="100" r="7" fill="#32336A"/>
<circle cx="37" cy="131" r="7" fill="#32336A"/>
<circle cx="37" cy="162" r="7" fill="#32336A"/>
<circle cx="37" cy="193" r="7" fill="#32336A"/>
<circle cx="37" cy="224" r="7" fill="#32336A"/>
<circle cx="37" cy="255" r="7" fill="#32336A"/>
<circle cx="37" cy="286" r="7" fill="#32336A"/>
<circle cx="37" cy="317" r="7" fill="#32336A"/>
<circle cx="37" cy="317" r="7" fill="#32336A"/>
<circle cx="37" cy="347" r="7" fill="#32336A"/>
<circle cx="37" cy="377" r="7" fill="#32336A"/>
<circle cx="67" cy="7" r="7" fill="#32336A"/>
<circle cx="67" cy="38" r="7" fill="#32336A"/>
<circle cx="67" cy="69" r="7" fill="#32336A"/>
<circle cx="67" cy="100" r="7" fill="#32336A"/>
<circle cx="67" cy="131" r="7" fill="#32336A"/>
<circle cx="67" cy="162" r="7" fill="#32336A"/>
<circle cx="67" cy="193" r="7" fill="#32336A"/>
<circle cx="67" cy="224" r="7" fill="#32336A"/>
<circle cx="67" cy="255" r="7" fill="#32336A"/>
<circle cx="67" cy="286" r="7" fill="#32336A"/>
<circle cx="67" cy="317" r="7" fill="#32336A"/>
<circle cx="67" cy="317" r="7" fill="#ED1919"/>
<circle cx="67" cy="347" r="7" fill="#32336A"/>
<circle cx="67" cy="377" r="7" fill="#32336A"/>
<circle cx="97" cy="7" r="7" fill="#32336A"/>
<circle cx="97" cy="38" r="7" fill="#32336A"/>
<circle cx="97" cy="69" r="7" fill="#32336A"/>
<circle cx="97" cy="100" r="7" fill="#32336A"/>
<circle cx="97" cy="131" r="7" fill="#ED1919"/>
<circle cx="97" cy="162" r="7" fill="#32336A"/>
<circle cx="97" cy="193" r="7" fill="#32336A"/>
<circle cx="97" cy="224" r="7" fill="#32336A"/>
<circle cx="97" cy="255" r="7" fill="#32336A"/>
<circle cx="97" cy="286" r="7" fill="#32336A"/>
<circle cx="97" cy="317" r="7" fill="#32336A"/>
<circle cx="97" cy="317" r="7" fill="#32336A"/>
<circle cx="97" cy="347" r="7" fill="#32336A"/>
<circle cx="97" cy="377" r="7" fill="#32336A"/>
<circle cx="127" cy="7" r="7" fill="#32336A"/>
<circle cx="127" cy="38" r="7" fill="#32336A"/>
<circle cx="127" cy="69" r="7" fill="#32336A"/>
<circle cx="127" cy="100" r="7" fill="#32336A"/>
<circle cx="127" cy="131" r="7" fill="#32336A"/>
<circle cx="127" cy="162" r="7" fill="#32336A"/>
<circle cx="127" cy="193" r="7" fill="#32336A"/>
<circle cx="127" cy="224" r="7" fill="#32336A"/>
<circle cx="127" cy="255" r="7" fill="#32336A"/>
<circle cx="127" cy="286" r="7" fill="#32336A"/>
<circle cx="127" cy="317" r="7" fill="#32336A"/>
<circle cx="127" cy="317" r="7" fill="#32336A"/>
<circle cx="127" cy="347" r="7" fill="#32336A"/>
<circle cx="127" cy="377" r="7" fill="#32336A"/>
<circle cx="157" cy="7" r="7" fill="#32336A"/>
<circle cx="157" cy="38" r="7" fill="#32336A"/>
<circle cx="157" cy="69" r="7" fill="#32336A"/>
<circle cx="157" cy="100" r="7" fill="#32336A"/>
<circle cx="157" cy="131" r="7" fill="#32336A"/>
<circle cx="157" cy="162" r="7" fill="#32336A"/>
<circle cx="157" cy="193" r="7" fill="#32336A"/>
<circle cx="157" cy="224" r="7" fill="#32336A"/>
<circle cx="157" cy="255" r="7" fill="#32336A"/>
<circle cx="157" cy="286" r="7" fill="#32336A"/>
<circle cx="157" cy="317" r="7" fill="#32336A"/>
<circle cx="157" cy="317" r="7" fill="#32336A"/>
<circle cx="157" cy="347" r="7" fill="#32336A"/>
<circle cx="157" cy="377" r="7" fill="#32336A"/>
<circle cx="187" cy="7" r="7" fill="#32336A"/>
<circle cx="187" cy="38" r="7" fill="#32336A"/>
<circle cx="187" cy="69" r="7" fill="#32336A"/>
<circle cx="187" cy="100" r="7" fill="#32336A"/>
<circle cx="187" cy="131" r="7" fill="#32336A"/>
<circle cx="187" cy="162" r="7" fill="#32336A"/>
<circle cx="187" cy="193" r="7" fill="#32336A"/>
<circle cx="187" cy="224" r="7" fill="#32336A"/>
<circle cx="187" cy="255" r="7" fill="#32336A"/>
<circle cx="187" cy="286" r="7" fill="#32336A"/>
<circle cx="187" cy="317" r="7" fill="#32336A"/>
<circle cx="187" cy="317" r="7" fill="#32336A"/>
<circle cx="187" cy="347" r="7" fill="#32336A"/>
<circle cx="187" cy="377" r="7" fill="#32336A"/>
<circle cx="217" cy="7" r="7" fill="#32336A"/>
<circle cx="217" cy="38" r="7" fill="#32336A"/>
<circle cx="217" cy="69" r="7" fill="#32336A"/>
<circle cx="217" cy="100" r="7" fill="#32336A"/>
<circle cx="217" cy="131" r="7" fill="#32336A"/>
<circle cx="217" cy="162" r="7" fill="#32336A"/>
<circle cx="217" cy="193" r="7" fill="#32336A"/>
<circle cx="217" cy="224" r="7" fill="#32336A"/>
<circle cx="217" cy="255" r="7" fill="#32336A"/>
<circle cx="217" cy="286" r="7" fill="#32336A"/>
<circle cx="217" cy="317" r="7" fill="#32336A"/>
<circle cx="217" cy="317" r="7" fill="#32336A"/>
<circle cx="217" cy="347" r="7" fill="#32336A"/>
<circle cx="217" cy="377" r="7" fill="#32336A"/>
<circle cx="247" cy="7" r="7" fill="#32336A"/>
<circle cx="247" cy="38" r="7" fill="#32336A"/>
<circle cx="247" cy="69" r="7" fill="#ED1919"/>
<circle cx="247" cy="100" r="7" fill="#32336A"/>
<circle cx="247" cy="131" r="7" fill="#32336A"/>
<circle cx="247" cy="162" r="7" fill="#32336A"/>
<circle cx="247" cy="193" r="7" fill="#32336A"/>
<circle cx="247" cy="224" r="7" fill="#32336A"/>
<circle cx="247" cy="255" r="7" fill="#32336A"/>
<circle cx="247" cy="286" r="7" fill="#32336A"/>
<circle cx="247" cy="317" r="7" fill="#32336A"/>
<circle cx="247" cy="317" r="7" fill="#32336A"/>
<circle cx="247" cy="347" r="7" fill="#32336A"/>
<circle cx="247" cy="377" r="7" fill="#32336A"/>
<circle cx="277" cy="7" r="7" fill="#32336A"/>
<circle cx="277" cy="38" r="7" fill="#32336A"/>
<circle cx="277" cy="69" r="7" fill="#32336A"/>
<circle cx="277" cy="100" r="7" fill="#32336A"/>
<circle cx="277" cy="131" r="7" fill="#32336A"/>
<circle cx="277" cy="162" r="7" fill="#32336A"/>
<circle cx="277" cy="193" r="7" fill="#32336A"/>
<circle cx="277" cy="224" r="7" fill="#32336A"/>
<circle cx="277" cy="255" r="7" fill="#32336A"/>
<circle cx="277" cy="286" r="7" fill="#32336A"/>
<circle cx="277" cy="317" r="7" fill="#32336A"/>
<circle cx="277" cy="317" r="7" fill="#32336A"/>
<circle cx="277" cy="347" r="7" fill="#32336A"/>
<circle cx="277" cy="377" r="7" fill="#32336A"/>
<circle cx="307" cy="7" r="7" fill="#32336A"/>
<circle cx="307" cy="38" r="7" fill="#32336A"/>
<circle cx="307" cy="69" r="7" fill="#32336A"/>
<circle cx="307" cy="100" r="7" fill="#32336A"/>
<circle cx="307" cy="131" r="7" fill="#32336A"/>
<circle cx="307" cy="162" r="7" fill="#ED1919"/>
<circle cx="307" cy="193" r="7" fill="#32336A"/>
<circle cx="307" cy="224" r="7" fill="#32336A"/>
<circle cx="307" cy="255" r="7" fill="#32336A"/>
<circle cx="307" cy="286" r="7" fill="#32336A"/>
<circle cx="307" cy="317" r="7" fill="#32336A"/>
<circle cx="307" cy="317" r="7" fill="#32336A"/>
<circle cx="307" cy="347" r="7" fill="#ED1919"/>
<circle cx="307" cy="377" r="7" fill="#32336A"/>
<circle cx="337" cy="7" r="7" fill="#32336A"/>
<circle cx="337" cy="38" r="7" fill="#32336A"/>
<circle cx="337" cy="69" r="7" fill="#32336A"/>
<circle cx="337" cy="100" r="7" fill="#32336A"/>
<circle cx="337" cy="131" r="7" fill="#32336A"/>
<circle cx="337" cy="162" r="7" fill="#32336A"/>
<circle cx="337" cy="193" r="7" fill="#32336A"/>
<circle cx="337" cy="224" r="7" fill="#32336A"/>
<circle cx="337" cy="255" r="7" fill="#32336A"/>
<circle cx="337" cy="286" r="7" fill="#32336A"/>
<circle cx="337" cy="317" r="7" fill="#32336A"/>
<circle cx="337" cy="317" r="7" fill="#32336A"/>
<circle cx="337" cy="347" r="7" fill="#32336A"/>
<circle cx="337" cy="377" r="7" fill="#32336A"/>
<circle cx="367" cy="7" r="7" fill="#32336A"/>
<circle cx="367" cy="38" r="7" fill="#32336A"/>
<circle cx="367" cy="69" r="7" fill="#32336A"/>
<circle cx="367" cy="100" r="7" fill="#32336A"/>
<circle cx="367" cy="131" r="7" fill="#32336A"/>
<circle cx="367" cy="162" r="7" fill="#32336A"/>
<circle cx="367" cy="193" r="7" fill="#32336A"/>
<circle cx="367" cy="224" r="7" fill="#32336A"/>
<circle cx="367" cy="255" r="7" fill="#32336A"/>
<circle cx="367" cy="286" r="7" fill="#32336A"/>
<circle cx="367" cy="317" r="7" fill="#32336A"/>
<circle cx="367" cy="317" r="7" fill="#32336A"/>
<circle cx="367" cy="347" r="7" fill="#32336A"/>
<circle cx="367" cy="377" r="7" fill="#32336A"/>
<circle cx="397" cy="7" r="7" fill="#32336A"/>
<circle cx="397" cy="38" r="7" fill="#32336A"/>
<circle cx="397" cy="69" r="7" fill="#32336A"/>
<circle cx="397" cy="100" r="7" fill="#32336A"/>
<circle cx="397" cy="131" r="7" fill="#32336A"/>
<circle cx="397" cy="162" r="7" fill="#32336A"/>
<circle cx="397" cy="193" r="7" fill="#32336A"/>
<circle cx="397" cy="224" r="7" fill="#32336A"/>
<circle cx="397" cy="255" r="7" fill="#32336A"/>
<circle cx="397" cy="286" r="7" fill="#32336A"/>
<circle cx="397" cy="317" r="7" fill="#32336A"/>
<circle cx="397" cy="317" r="7" fill="#32336A"/>
<circle cx="397" cy="347" r="7" fill="#32336A"/>
<circle cx="397" cy="377" r="7" fill="#32336A"/>
<circle cx="427" cy="7" r="7" fill="#32336A"/>
<circle cx="427" cy="38" r="7" fill="#32336A"/>
<circle cx="427" cy="69" r="7" fill="#32336A"/>
<circle cx="427" cy="100" r="7" fill="#32336A"/>
<circle cx="427" cy="131" r="7" fill="#32336A"/>
<circle cx="427" cy="162" r="7" fill="#32336A"/>
<circle cx="427" cy="193" r="7" fill="#32336A"/>
<circle cx="427" cy="224" r="7" fill="#32336A"/>
<circle cx="427" cy="255" r="7" fill="#32336A"/>
<circle cx="427" cy="286" r="7" fill="#32336A"/>
<circle cx="427" cy="317" r="7" fill="#32336A"/>
<circle cx="427" cy="317" r="7" fill="#32336A"/>
<circle cx="427" cy="347" r="7" fill="#32336A"/>
<circle cx="427" cy="377" r="7" fill="#32336A"/>
<circle cx="457" cy="7" r="7" fill="#32336A"/>
<circle cx="457" cy="38" r="7" fill="#32336A"/>
<circle cx="457" cy="69" r="7" fill="#32336A"/>
<circle cx="457" cy="100" r="7" fill="#32336A"/>
<circle cx="457" cy="131" r="7" fill="#32336A"/>
<circle cx="457" cy="162" r="7" fill="#32336A"/>
<circle cx="457" cy="193" r="7" fill="#32336A"/>
<circle cx="457" cy="224" r="7" fill="#ED1919"/>
<circle cx="457" cy="255" r="7" fill="#32336A"/>
<circle cx="457" cy="286" r="7" fill="#32336A"/>
<circle cx="457" cy="317" r="7" fill="#32336A"/>
<circle cx="457" cy="317" r="7" fill="#32336A"/>
<circle cx="457" cy="347" r="7" fill="#32336A"/>
<circle cx="457" cy="377" r="7" fill="#32336A"/>
<circle cx="487" cy="7" r="7" fill="#32336A"/>
<circle cx="487" cy="38" r="7" fill="#32336A"/>
<circle cx="487" cy="69" r="7" fill="#32336A"/>
<circle cx="487" cy="100" r="7" fill="#32336A"/>
<circle cx="487" cy="131" r="7" fill="#32336A"/>
<circle cx="487" cy="162" r="7" fill="#32336A"/>
<circle cx="487" cy="193" r="7" fill="#32336A"/>
<circle cx="487" cy="224" r="7" fill="#32336A"/>
<circle cx="487" cy="255" r="7" fill="#32336A"/>
<circle cx="487" cy="286" r="7" fill="#32336A"/>
<circle cx="487" cy="317" r="7" fill="#32336A"/>
<circle cx="487" cy="317" r="7" fill="#32336A"/>
<circle cx="487" cy="347" r="7" fill="#32336A"/>
<circle cx="487" cy="377" r="7" fill="#32336A"/>
<circle cx="517" cy="7" r="7" fill="#32336A"/>
<circle cx="517" cy="38" r="7" fill="#32336A"/>
<circle cx="517" cy="69" r="7" fill="#32336A"/>
<circle cx="517" cy="100" r="7" fill="#32336A"/>
<circle cx="517" cy="131" r="7" fill="#32336A"/>
<circle cx="517" cy="162" r="7" fill="#32336A"/>
<circle cx="517" cy="193" r="7" fill="#32336A"/>
<circle cx="517" cy="224" r="7" fill="#32336A"/>
<circle cx="517" cy="255" r="7" fill="#32336A"/>
<circle cx="517" cy="286" r="7" fill="#32336A"/>
<circle cx="517" cy="317" r="7" fill="#32336A"/>
<circle cx="517" cy="317" r="7" fill="#32336A"/>
<circle cx="517" cy="347" r="7" fill="#32336A"/>
<circle cx="517" cy="377" r="7" fill="#32336A"/>
<circle cx="547" cy="7" r="7" fill="#32336A"/>
<circle cx="547" cy="38" r="7" fill="#ED1919"/>
<circle cx="547" cy="69" r="7" fill="#32336A"/>
<circle cx="547" cy="100" r="7" fill="#32336A"/>
<circle cx="547" cy="131" r="7" fill="#32336A"/>
<circle cx="547" cy="162" r="7" fill="#32336A"/>
<circle cx="547" cy="193" r="7" fill="#32336A"/>
<circle cx="547" cy="224" r="7" fill="#32336A"/>
<circle cx="547" cy="255" r="7" fill="#32336A"/>
<circle cx="547" cy="286" r="7" fill="#32336A"/>
<circle cx="547" cy="317" r="7" fill="#32336A"/>
<circle cx="547" cy="317" r="7" fill="#32336A"/>
<circle cx="547" cy="347" r="7" fill="#32336A"/>
<circle cx="547" cy="377" r="7" fill="#32336A"/>
<circle cx="577" cy="7" r="7" fill="#32336A"/>
<circle cx="577" cy="38" r="7" fill="#32336A"/>
<circle cx="577" cy="69" r="7" fill="#32336A"/>
<circle cx="577" cy="100" r="7" fill="#32336A"/>
<circle cx="577" cy="131" r="7" fill="#32336A"/>
<circle cx="577" cy="162" r="7" fill="#32336A"/>
<circle cx="577" cy="193" r="7" fill="#32336A"/>
<circle cx="577" cy="224" r="7" fill="#32336A"/>
<circle cx="577" cy="255" r="7" fill="#32336A"/>
<circle cx="577" cy="286" r="7" fill="#32336A"/>
<circle cx="577" cy="317" r="7" fill="#32336A"/>
<circle cx="577" cy="317" r="7" fill="#32336A"/>
<circle cx="577" cy="347" r="7" fill="#32336A"/>
<circle cx="577" cy="377" r="7" fill="#32336A"/>
<circle cx="607" cy="7" r="7" fill="#32336A"/>
<circle cx="607" cy="38" r="7" fill="#32336A"/>
<circle cx="607" cy="69" r="7" fill="#32336A"/>
<circle cx="607" cy="100" r="7" fill="#32336A"/>
<circle cx="607" cy="131" r="7" fill="#32336A"/>
<circle cx="607" cy="162" r="7" fill="#32336A"/>
<circle cx="607" cy="193" r="7" fill="#32336A"/>
<circle cx="607" cy="224" r="7" fill="#32336A"/>
<circle cx="607" cy="255" r="7" fill="#32336A"/>
<circle cx="607" cy="286" r="7" fill="#32336A"/>
<circle cx="607" cy="317" r="7" fill="#32336A"/>
<circle cx="607" cy="317" r="7" fill="#32336A"/>
<circle cx="607" cy="347" r="7" fill="#32336A"/>
<circle cx="607" cy="377" r="7" fill="#32336A"/>
<circle cx="576.882" cy="192.882" r="12.8823" fill="white"/>
</svg>
