


<svg id="Layer_1" data-name="Layer 1" xmlns="http://www.w3.org/2000/svg" xmlns:xlink="http://www.w3.org/1999/xlink"
    viewBox="0 0 375 921.46" preserveAspectRatio="xMaxYMin meet">
    <defs>
        <style>
            .cls-1,
            .cls-2 {
                fill-opacity: 0.2;
            }

            .cls-1 {
                fill: url(#linear-gradient);
            }

            .cls-2 {
                fill: #55b2e5;
            }

            .cls-3 {
                opacity: 0.15;
            }

            .cls-4 {
                fill: #eff1f4;
            }
        </style>
        <linearGradient id="linear-gradient" x1="305.5" y1="862.82" x2="305.5" y2="512.82"
            gradientTransform="matrix(1, 0, 0, -1, 0, 953.64)" gradientUnits="userSpaceOnUse">
            <stop offset="0" stop-color="#c6b7f2" />
            <stop offset="1" stop-color="#3444de" />
        </linearGradient>
    </defs>
    <ellipse class="cls-1" cx="305.5" cy="265.82" rx="205.5" ry="175" />
    <ellipse class="cls-2" cx="192.58" cy="375.97" rx="101.69" ry="138.94"
        transform="translate(-229.14 351.54) rotate(-59.56)" />
    <g class="cls-3">
        <path class="cls-4"
            d="M296.62,599.78h.43a14.26,14.26,0,0,0,13.83-14.62c-2.11-72.42,14.17-127,48.39-162.2,33.84-34.88,87-52.52,157.88-52.52a14.26,14.26,0,0,0,0-28.51c-78.89,0-138.92,20.57-178.34,61.14C299,444,280,505.53,282.38,585.94a14.24,14.24,0,0,0,14.24,13.84Z" />
        <path class="cls-4"
            d="M255.18,628.76a11.88,11.88,0,0,0,11.89-11.87c0-76.36,6.24-116.54,18.56-150.64a11.88,11.88,0,1,0-22.35-8.06c-13.26,36.68-20,81.36-20,158.67a11.88,11.88,0,0,0,11.86,11.9Z" />
        <path class="cls-4"
            d="M289.08,441.37a11.91,11.91,0,0,0,10.46-6.19A182.34,182.34,0,0,1,358.47,370c22.42-15,49.43-26,80.29-32.49a11.88,11.88,0,0,0-4.92-23.24c-71.66,15.15-123.87,52-155.2,109.5a11.94,11.94,0,0,0-1.44,5.91,11.89,11.89,0,0,0,11.9,11.65Z" />
        <path class="cls-4"
            d="M214.58,600.26a16.63,16.63,0,0,0,16.63-16.63c0-57.47,9.28-107.79,27.57-149.55a16.64,16.64,0,0,0-21.35-22.5,16.67,16.67,0,0,0-9.13,9.2c-20.15,46-30.42,100.8-30.42,162.89a16.65,16.65,0,0,0,16.7,16.59Z" />
        <path class="cls-4"
            d="M271.53,395.21A16.65,16.65,0,0,0,285,388.43c39.1-53.08,99.69-84.13,180.08-92.28a16.6,16.6,0,0,0,11.5-5.91,16.51,16.51,0,0,0,3.15-5.79,16.63,16.63,0,0,0-18-21.38c-90.14,9.12-158.62,44.66-203.55,105.65a16.65,16.65,0,0,0,13.38,26.49Z" />
        <path class="cls-4"
            d="M176.93,598.83a9.51,9.51,0,0,0,9.51-9.5c0-34.33,2.68-66.6,8-96a9.5,9.5,0,0,0-18.7-3.37c-5.5,30.4-8.28,63.84-8.28,99.29a9.31,9.31,0,0,0,.71,3.65,9.66,9.66,0,0,0,2.06,3.1,9.47,9.47,0,0,0,6.73,2.79Z" />
        <path class="cls-4"
            d="M191.48,471.73a9.51,9.51,0,0,0,9.21-7.15,352.85,352.85,0,0,1,10.45-33.9,9.25,9.25,0,0,0,.68-3.71,9.5,9.5,0,0,0-13.62-8.38,9.43,9.43,0,0,0-4.9,5.56c-4.17,11.4-7.89,23.39-11.05,35.71a9.43,9.43,0,0,0-.2,3.7,9.48,9.48,0,0,0,3.71,6.26,9.39,9.39,0,0,0,3.34,1.6A9.15,9.15,0,0,0,191.48,471.73Z" />
        <path class="cls-4"
            d="M214.57,407.81a9.5,9.5,0,0,0,8.55-5.35c3.18-6.54,6.6-13,10.18-19.08a9.5,9.5,0,0,0-16.4-9.6c-3.81,6.55-7.49,13.41-10.88,20.38a9.49,9.49,0,0,0,8.56,13.65Z" />
        <path class="cls-4"
            d="M243.52,360.59a9.44,9.44,0,0,0,4.24-1,9.56,9.56,0,0,0,3.37-2.75c28.51-37.31,67-65.29,114.41-83.25a9.5,9.5,0,0,0-6.73-17.77C308.05,275,266.73,305.15,236,345.32a9.5,9.5,0,0,0,7.55,15.27Z" />
        <path class="cls-4"
            d="M214.41,693.82A16.63,16.63,0,0,0,231,677.19V629.6a16.64,16.64,0,0,0-33.27,0v47.59a16.66,16.66,0,0,0,16.64,16.63Z" />
        <path class="cls-4"
            d="M254.9,786.23a11.86,11.86,0,0,0,11.89-11.87v-121a11.89,11.89,0,0,0-23.77,0v121a11.86,11.86,0,0,0,11.88,11.87Z" />
        <path class="cls-4"
            d="M254.9,839.54a11.88,11.88,0,0,0,11.89-11.88V812.51a11.89,11.89,0,0,0-23.77,0v15.15a11.88,11.88,0,0,0,11.88,11.88Z" />
        <path class="cls-4"
            d="M214.41,880a16.62,16.62,0,0,0,15.37-10.26,16.74,16.74,0,0,0,1.26-6.36V722.93a16.64,16.64,0,0,0-33.27,0v140.4A16.63,16.63,0,0,0,214.41,880Z" />
        <path class="cls-4"
            d="M176.51,648.06a9.49,9.49,0,0,0,9.5-9.5V623.41a9.51,9.51,0,1,0-19,0v15.15a9.49,9.49,0,0,0,9.51,9.5Z" />
        <path class="cls-4"
            d="M176.51,753.66a9.49,9.49,0,0,0,9.5-9.5V671.79a9.51,9.51,0,1,0-19,0v72.37a9.49,9.49,0,0,0,9.51,9.5Z" />
    </g>
</svg>