<svg width="200" height="22" viewBox="0 0 200 22" fill="none" xmlns="http://www.w3.org/2000/svg">
<path d="M5.9123 14.7261C6.55853 14.7261 7.08241 14.1942 7.08241 13.5381C7.08241 12.882 6.55853 12.3501 5.9123 12.3501C5.26606 12.3501 4.74219 12.882 4.74219 13.5381C4.74219 14.1942 5.26606 14.7261 5.9123 14.7261Z" fill="#21222E"/>
<path d="M10.9114 7.70609C11.8808 7.70609 12.6666 6.90826 12.6666 5.92409C12.6666 4.93992 11.8808 4.14209 10.9114 4.14209C9.94206 4.14209 9.15625 4.93992 9.15625 5.92409C9.15625 6.90826 9.94206 7.70609 10.9114 7.70609Z" fill="#21222E"/>
<path d="M15.9075 10.2439C16.8769 10.2439 17.6627 9.4461 17.6627 8.46193C17.6627 7.47776 16.8769 6.67993 15.9075 6.67993C14.9382 6.67993 14.1523 7.47776 14.1523 8.46193C14.1523 9.4461 14.9382 10.2439 15.9075 10.2439Z" fill="#21222E"/>
<path d="M20.8567 12.782C21.8261 12.782 22.6119 11.9842 22.6119 11C22.6119 10.0158 21.8261 9.21802 20.8567 9.21802C19.8874 9.21802 19.1016 10.0158 19.1016 11C19.1016 11.9842 19.8874 12.782 20.8567 12.782Z" fill="#21222E"/>
<path d="M15.9075 15.3199C16.8769 15.3199 17.6627 14.522 17.6627 13.5379C17.6627 12.5537 16.8769 11.7559 15.9075 11.7559C14.9382 11.7559 14.1523 12.5537 14.1523 13.5379C14.1523 14.522 14.9382 15.3199 15.9075 15.3199Z" fill="#21222E"/>
<path d="M25.8606 15.3199C26.83 15.3199 27.6158 14.522 27.6158 13.5379C27.6158 12.5537 26.83 11.7559 25.8606 11.7559C24.8913 11.7559 24.1055 12.5537 24.1055 13.5379C24.1055 14.522 24.8913 15.3199 25.8606 15.3199Z" fill="#21222E"/>
<path d="M25.8576 19.7478C26.5038 19.7478 27.0277 19.2159 27.0277 18.5598C27.0277 17.9037 26.5038 17.3718 25.8576 17.3718C25.2114 17.3718 24.6875 17.9037 24.6875 18.5598C24.6875 19.2159 25.2114 19.7478 25.8576 19.7478Z" fill="#21222E"/>
<path d="M30.8537 17.2639C31.4999 17.2639 32.0238 16.7321 32.0238 16.0759C32.0238 15.4198 31.4999 14.8879 30.8537 14.8879C30.2075 14.8879 29.6836 15.4198 29.6836 16.0759C29.6836 16.7321 30.2075 17.2639 30.8537 17.2639Z" fill="#21222E"/>
<path d="M30.8567 12.782C31.8261 12.782 32.6119 11.9842 32.6119 11C32.6119 10.0158 31.8261 9.21802 30.8567 9.21802C29.8874 9.21802 29.1016 10.0158 29.1016 11C29.1016 11.9842 29.8874 12.782 30.8567 12.782Z" fill="#21222E"/>
<path d="M25.8606 10.2439C26.83 10.2439 27.6158 9.4461 27.6158 8.46193C27.6158 7.47776 26.83 6.67993 25.8606 6.67993C24.8913 6.67993 24.1055 7.47776 24.1055 8.46193C24.1055 9.4461 24.8913 10.2439 25.8606 10.2439Z" fill="#21222E"/>
<path d="M20.8576 17.2639C21.5038 17.2639 22.0277 16.7321 22.0277 16.0759C22.0277 15.4198 21.5038 14.8879 20.8576 14.8879C20.2114 14.8879 19.6875 15.4198 19.6875 16.0759C19.6875 16.7321 20.2114 17.2639 20.8576 17.2639Z" fill="#21222E"/>
<path d="M30.8567 7.70609C31.8261 7.70609 32.6119 6.90826 32.6119 5.92409C32.6119 4.93992 31.8261 4.14209 30.8567 4.14209C29.8874 4.14209 29.1016 4.93992 29.1016 5.92409C29.1016 6.90826 29.8874 7.70609 30.8567 7.70609Z" fill="#21222E"/>
<path d="M35.8029 4.62795C36.4492 4.62795 36.973 4.09607 36.973 3.43995C36.973 2.78384 36.4492 2.25195 35.8029 2.25195C35.1567 2.25195 34.6328 2.78384 34.6328 3.43995C34.6328 4.09607 35.1567 4.62795 35.8029 4.62795Z" fill="#21222E"/>
<path d="M35.8029 14.7261C36.4492 14.7261 36.973 14.1942 36.973 13.5381C36.973 12.882 36.4492 12.3501 35.8029 12.3501C35.1567 12.3501 34.6328 12.882 34.6328 13.5381C34.6328 14.1942 35.1567 14.7261 35.8029 14.7261Z" fill="#21222E"/>
<path d="M20.8576 7.11209C21.5038 7.11209 22.0277 6.5802 22.0277 5.92408C22.0277 5.26797 21.5038 4.73608 20.8576 4.73608C20.2114 4.73608 19.6875 5.26797 19.6875 5.92408C19.6875 6.5802 20.2114 7.11209 20.8576 7.11209Z" fill="#21222E"/>
<path d="M15.9162 19.7478C16.5624 19.7478 17.0863 19.2159 17.0863 18.5598C17.0863 17.9037 16.5624 17.3718 15.9162 17.3718C15.27 17.3718 14.7461 17.9037 14.7461 18.5598C14.7461 19.2159 15.27 19.7478 15.9162 19.7478Z" fill="#21222E"/>
<path d="M10.9114 12.782C11.8808 12.782 12.6666 11.9842 12.6666 11C12.6666 10.0158 11.8808 9.21802 10.9114 9.21802C9.94206 9.21802 9.15625 10.0158 9.15625 11C9.15625 11.9842 9.94206 12.782 10.9114 12.782Z" fill="#21222E"/>
<path d="M5.91141 10.2439C6.88076 10.2439 7.66658 9.4461 7.66658 8.46193C7.66658 7.47776 6.88076 6.67993 5.91141 6.67993C4.94206 6.67993 4.15625 7.47776 4.15625 8.46193C4.15625 9.4461 4.94206 10.2439 5.91141 10.2439Z" fill="#EC0B43"/>
<path d="M0.964866 16.778C1.34673 16.778 1.65629 16.4637 1.65629 16.076C1.65629 15.6883 1.34673 15.374 0.964866 15.374C0.583 15.374 0.273438 15.6883 0.273438 16.076C0.273438 16.4637 0.583 16.778 0.964866 16.778Z" fill="#21222E"/>
<path d="M0.964866 11.7018C1.34673 11.7018 1.65629 11.3876 1.65629 10.9999C1.65629 10.6121 1.34673 10.2979 0.964866 10.2979C0.583 10.2979 0.273438 10.6121 0.273438 10.9999C0.273438 11.3876 0.583 11.7018 0.964866 11.7018Z" fill="#21222E"/>
<path d="M10.9102 16.7241C11.292 16.7241 11.6016 16.4098 11.6016 16.0221C11.6016 15.6344 11.292 15.3201 10.9102 15.3201C10.5283 15.3201 10.2188 15.6344 10.2188 16.0221C10.2188 16.4098 10.5283 16.7241 10.9102 16.7241Z" fill="#21222E"/>
<path d="M10.9102 1.60395C11.292 1.60395 11.6016 1.28966 11.6016 0.901953C11.6016 0.514248 11.292 0.199951 10.9102 0.199951C10.5283 0.199951 10.2188 0.514248 10.2188 0.901953C10.2188 1.28966 10.5283 1.60395 10.9102 1.60395Z" fill="#21222E"/>
<path d="M20.8594 21.8C21.2413 21.8 21.5508 21.4857 21.5508 21.098C21.5508 20.7103 21.2413 20.396 20.8594 20.396C20.4775 20.396 20.168 20.7103 20.168 21.098C20.168 21.4857 20.4775 21.8 20.8594 21.8Z" fill="#21222E"/>
<path d="M5.91018 4.14179C6.29204 4.14179 6.60161 3.8275 6.60161 3.43979C6.60161 3.05209 6.29204 2.73779 5.91018 2.73779C5.52831 2.73779 5.21875 3.05209 5.21875 3.43979C5.21875 3.8275 5.52831 4.14179 5.91018 4.14179Z" fill="#21222E"/>
<path d="M15.9102 4.14179C16.292 4.14179 16.6016 3.8275 16.6016 3.43979C16.6016 3.05209 16.292 2.73779 15.9102 2.73779C15.5283 2.73779 15.2188 3.05209 15.2188 3.43979C15.2188 3.8275 15.5283 4.14179 15.9102 4.14179Z" fill="#21222E"/>
<path d="M20.8594 21.8C21.2413 21.8 21.5508 21.4857 21.5508 21.098C21.5508 20.7103 21.2413 20.396 20.8594 20.396C20.4775 20.396 20.168 20.7103 20.168 21.098C20.168 21.4857 20.4775 21.8 20.8594 21.8Z" fill="#21222E"/>
<path d="M45.75 9.16401C46.1319 9.16401 46.4415 8.84971 46.4415 8.46201C46.4415 8.07431 46.1319 7.76001 45.75 7.76001C45.3682 7.76001 45.0586 8.07431 45.0586 8.46201C45.0586 8.84971 45.3682 9.16401 45.75 9.16401Z" fill="#21222E"/>
<path d="M35.8047 19.2619C36.1866 19.2619 36.4961 18.9476 36.4961 18.5599C36.4961 18.1722 36.1866 17.8579 35.8047 17.8579C35.4228 17.8579 35.1133 18.1722 35.1133 18.5599C35.1133 18.9476 35.4228 19.2619 35.8047 19.2619Z" fill="#21222E"/>
<path d="M40.802 7.70609C41.7714 7.70609 42.5572 6.90826 42.5572 5.92409C42.5572 4.93992 41.7714 4.14209 40.802 4.14209C39.8327 4.14209 39.0469 4.93992 39.0469 5.92409C39.0469 6.90826 39.8327 7.70609 40.802 7.70609Z" fill="#21222E"/>
<path d="M35.802 10.2439C36.7714 10.2439 37.5572 9.4461 37.5572 8.46193C37.5572 7.47776 36.7714 6.67993 35.802 6.67993C34.8327 6.67993 34.0469 7.47776 34.0469 8.46193C34.0469 9.4461 34.8327 10.2439 35.802 10.2439Z" fill="#21222E"/>
<path d="M40.8008 16.778C41.1827 16.778 41.4922 16.4637 41.4922 16.076C41.4922 15.6883 41.1827 15.374 40.8008 15.374C40.4189 15.374 40.1094 15.6883 40.1094 16.076C40.1094 16.4637 40.4189 16.778 40.8008 16.778Z" fill="#21222E"/>
<path d="M40.8068 12.188C41.4531 12.188 41.9769 11.6561 41.9769 11C41.9769 10.3439 41.4531 9.81201 40.8068 9.81201C40.1606 9.81201 39.6367 10.3439 39.6367 11C39.6367 11.6561 40.1606 12.188 40.8068 12.188Z" fill="#21222E"/>
<path d="M25.8555 4.14179C26.2374 4.14179 26.5469 3.8275 26.5469 3.43979C26.5469 3.05209 26.2374 2.73779 25.8555 2.73779C25.4736 2.73779 25.1641 3.05209 25.1641 3.43979C25.1641 3.8275 25.4736 4.14179 25.8555 4.14179Z" fill="#21222E"/>
<path d="M40.8008 1.60395C41.1827 1.60395 41.4922 1.28966 41.4922 0.901953C41.4922 0.514248 41.1827 0.199951 40.8008 0.199951C40.4189 0.199951 40.1094 0.514248 40.1094 0.901953C40.1094 1.28966 40.4189 1.60395 40.8008 1.60395Z" fill="#21222E"/>
<path d="M45.75 4.14179C46.1319 4.14179 46.4415 3.8275 46.4415 3.43979C46.4415 3.05209 46.1319 2.73779 45.75 2.73779C45.3682 2.73779 45.0586 3.05209 45.0586 3.43979C45.0586 3.8275 45.3682 4.14179 45.75 4.14179Z" fill="#21222E"/>
<path d="M60.3737 7.38192C60.5333 7.00392 60.5865 6.67992 60.4801 6.46392C60.4801 6.30192 60.2674 6.19392 60.0546 6.08592C59.5227 5.86992 59.0973 6.08592 58.8313 6.78792L56.9698 11.4859L54.3104 6.62592C54.1509 6.35592 53.9913 6.08592 53.7786 6.08592C53.5658 5.97792 53.2467 5.97792 53.034 6.08592C52.8744 6.24792 52.7148 6.46392 52.7148 6.73392C52.7148 7.00392 52.7148 7.27392 52.9276 7.54392L56.1188 13.2679C56.0124 13.6459 55.8529 13.9699 55.6933 14.1319C55.5337 14.2939 55.3742 14.3479 55.1614 14.3479H54.8955C54.7891 14.3479 54.6828 14.3479 54.5764 14.2399L54.2573 14.1319C53.7254 13.9699 53.4595 14.1319 53.2999 14.5639C53.0871 15.1039 53.2999 15.4279 53.8318 15.7519C54.1509 15.9139 54.6296 16.0219 55.1614 16.0219C55.8529 16.0219 56.3847 15.7519 56.757 15.2659C57.2889 14.8879 57.6612 14.0779 58.0867 13.1059L60.4801 7.32792L60.3737 7.38192ZM63.0331 16.0219C63.299 16.0219 63.5649 15.9139 63.6713 15.6979C63.8309 15.5359 63.9373 15.3199 63.9373 15.0499V11.7019H68.2986V15.0499C68.2986 15.3199 68.2986 15.5899 68.4581 15.6979C68.6177 15.9139 68.8304 15.9679 69.1496 15.9679C69.4155 15.9679 69.6814 15.9679 69.7878 15.6979C69.9474 15.5359 70.0537 15.3199 70.0537 15.0499V6.94992C70.0537 6.67992 69.9474 6.40992 69.7878 6.30192C69.6282 6.08592 69.4155 6.03192 69.1496 6.03192C68.8304 6.03192 68.6177 6.03192 68.4581 6.30192C68.2986 6.46392 68.2454 6.67992 68.2454 6.94992V10.0819H63.8309V6.94992C63.8309 6.67992 63.7245 6.40992 63.5649 6.30192C63.4054 6.08592 63.1926 6.03192 62.9267 6.03192C62.6608 6.03192 62.3948 6.03192 62.2353 6.30192C62.1289 6.46392 62.0225 6.67992 62.0225 6.94992V15.0499C62.0225 15.3199 62.1289 15.5899 62.2353 15.6979C62.3948 15.9139 62.6608 15.9679 62.9267 15.9679L63.0331 16.0219ZM73.5109 16.0219C73.7768 16.0219 74.0428 15.8059 74.3619 15.4819L78.8296 9.27192V15.0499C78.8296 15.3199 78.8296 15.5899 79.0423 15.6979C79.2551 15.9139 79.4678 15.9679 79.7869 15.9679C80.0529 15.9679 80.3188 15.9679 80.4252 15.6979C80.5847 15.5359 80.6379 15.3199 80.6379 15.0499V6.94992C80.6379 6.40992 80.372 6.03192 79.7869 6.03192C79.4678 6.03192 79.2551 6.19392 78.9359 6.57192L74.5214 12.7819V6.94992C74.5214 6.67992 74.4151 6.40992 74.2555 6.30192C74.0959 6.08592 73.8832 6.03192 73.6173 6.03192C73.2981 6.03192 73.0854 6.03192 72.9258 6.30192C72.7663 6.46392 72.7131 6.67992 72.7131 6.94992V15.0499C72.7131 15.3199 72.8195 15.5899 72.979 15.7519C73.1386 15.9139 73.3513 15.9679 73.6173 15.9679L73.5109 16.0219ZM88.7223 10.6219C89.0414 10.4599 89.2542 10.1899 89.5201 9.86592C89.786 9.32592 89.8924 9.00192 89.8924 8.51592C89.8924 6.78792 88.6691 5.81592 86.2757 5.81592C85.4247 5.81592 84.6801 5.92392 84.0419 6.08592C83.51 6.08592 83.1909 6.51792 83.1909 7.05792V14.8879C83.1909 15.4279 83.4036 15.7519 83.9355 15.8599C84.6269 16.0219 85.4247 16.0759 86.3289 16.0759C88.9882 16.0759 90.2647 14.9959 90.2647 12.9979C90.2647 12.4579 90.1052 11.9179 89.7329 11.4859C89.4669 11.0539 89.0946 10.7839 88.6691 10.5679L88.7223 10.6219ZM86.2757 10.1899H84.8397V7.48992H86.1162C87.4458 7.48992 88.0309 7.92192 88.0309 8.78592C88.0309 9.64992 87.499 10.1359 86.2757 10.1359V10.1899ZM88.0309 14.2399C87.6586 14.4019 87.1267 14.5099 86.4353 14.5099H84.8397V11.5399H86.4353C87.8181 11.5399 88.5628 12.0799 88.5628 13.0519C88.5628 13.5919 88.35 13.9699 88.0309 14.1319V14.2399ZM98.9342 15.7519C99.0937 15.5899 99.1469 15.4279 99.1469 15.2119C99.1469 14.8879 99.0405 14.6719 98.881 14.5639C98.7214 14.4019 98.5087 14.3479 98.2427 14.3479H94.2537V11.6479H97.3386C97.6045 11.6479 97.8704 11.6479 97.9768 11.4319C98.1364 11.3239 98.1896 11.1079 98.1896 10.8919C98.1896 10.6219 98.1896 10.3519 97.9768 10.2439C97.8173 10.1359 97.6045 10.0279 97.3386 10.0279H94.2537V7.65192H98.0832C98.3491 7.65192 98.6151 7.65192 98.7214 7.43592C98.881 7.27392 98.9874 7.11192 98.9874 6.89592C98.9874 6.57192 98.881 6.35592 98.7214 6.24792C98.5619 6.08592 98.3491 6.03192 98.0832 6.03192H93.2964C93.0836 6.03192 92.7645 6.03192 92.6581 6.30192C92.4986 6.46392 92.4454 6.67992 92.4454 6.94992V15.0499C92.4454 15.3199 92.4454 15.5899 92.7113 15.6979C92.8177 15.9139 93.0304 15.9679 93.2432 15.9679H98.1896C98.4555 15.9679 98.7214 15.9679 98.8278 15.7519H98.9342ZM107.71 9.16392C107.71 8.08392 107.391 7.21992 106.646 6.73392C106.114 6.19392 105.051 5.97792 103.987 5.97792C103.136 5.97792 102.391 6.08592 101.753 6.19392C101.221 6.30192 100.955 6.62592 100.955 7.27392V15.1039C100.955 15.3739 100.955 15.6439 101.168 15.7519C101.328 15.9679 101.54 16.0219 101.859 16.0219C102.125 16.0219 102.391 16.0219 102.498 15.7519C102.657 15.5899 102.764 15.3739 102.764 15.1039V12.5659H103.934C104.997 12.5659 105.902 12.3499 106.593 11.7559C107.285 11.2159 107.657 10.3519 107.657 9.21792L107.71 9.16392ZM102.764 7.65192L103.827 7.54392C105.21 7.54392 105.848 8.08392 105.848 9.16392C105.848 10.4059 105.157 10.9459 103.827 10.9459C103.295 10.9459 103.03 10.9459 102.764 10.8379V7.59792V7.65192ZM115.688 13.8619C114.997 14.2939 114.305 14.4019 113.667 14.4019C112.869 14.4019 112.231 14.1859 111.699 13.5379C111.167 12.9979 110.901 12.0799 110.901 10.9999C110.901 9.91992 111.167 9.10992 111.646 8.46192C112.444 7.38192 113.773 7.21992 115.475 7.92192C116.007 8.13792 116.433 8.02992 116.539 7.65192C116.805 7.21992 116.699 6.84192 116.22 6.57192C115.688 6.03192 114.731 5.86992 113.561 5.86992C112.178 5.86992 111.061 6.40992 110.263 7.27392C109.465 8.24592 109.04 9.43392 109.04 11.0539C109.04 12.6739 109.412 13.8619 110.103 14.8339C110.954 15.6979 112.071 16.1839 113.561 16.1839C114.731 16.1839 115.688 15.9139 116.433 15.3199C116.699 15.1039 116.858 14.8879 116.965 14.6179C116.965 14.4019 116.965 14.1859 116.805 13.9699C116.592 13.6459 116.273 13.5919 115.741 13.8619H115.688ZM125.953 6.03192C125.634 6.03192 125.421 6.19392 125.102 6.57192L120.688 12.7819V6.94992C120.688 6.67992 120.581 6.40992 120.422 6.30192C120.209 6.08592 119.996 6.03192 119.73 6.03192C119.411 6.03192 119.198 6.03192 119.039 6.30192C118.879 6.46392 118.826 6.67992 118.826 6.94992V15.0499C118.826 15.3199 118.826 15.5899 119.039 15.7519C119.198 15.9139 119.411 15.9679 119.677 15.9679C119.943 15.9679 120.209 15.8059 120.528 15.4279L124.996 9.27192V15.0499C124.996 15.3199 124.996 15.5899 125.208 15.6979C125.368 15.9139 125.581 15.9679 125.9 15.9679C126.166 15.9679 126.432 15.9679 126.538 15.6979C126.698 15.5359 126.751 15.3199 126.751 15.0499V6.94992C126.751 6.40992 126.432 6.03192 125.847 6.03192H125.953ZM136.803 6.84192C136.803 6.57192 136.697 6.30192 136.537 6.30192C136.378 6.08592 136.165 6.03192 135.899 6.03192H129.251C128.985 6.03192 128.719 6.03192 128.612 6.24792C128.453 6.35592 128.4 6.57192 128.4 6.78792C128.4 7.05792 128.4 7.32792 128.559 7.43592C128.719 7.59792 128.932 7.65192 129.197 7.65192H131.644V15.0499C131.644 15.3199 131.75 15.5899 131.91 15.6979C132.07 15.9139 132.282 15.9679 132.601 15.9679C132.867 15.9679 133.133 15.9679 133.24 15.6979C133.399 15.5359 133.506 15.3199 133.506 15.0499V7.65192H135.899C136.165 7.65192 136.431 7.65192 136.537 7.43592C136.697 7.27392 136.803 7.05792 136.803 6.89592V6.84192ZM144.249 14.4019H140.154V11.7019H143.239C143.505 11.7019 143.771 11.5939 143.877 11.4319C144.037 11.3239 144.143 11.1079 144.143 10.8919C144.143 10.6219 144.037 10.3519 143.877 10.2439C143.717 10.1359 143.505 10.0279 143.239 10.0279H140.154V7.65192H144.037C144.303 7.65192 144.568 7.65192 144.675 7.43592C144.834 7.27392 144.888 7.11192 144.888 6.89592C144.888 6.57192 144.781 6.35592 144.622 6.24792C144.462 6.08592 144.249 6.03192 143.983 6.03192H139.197C138.931 6.03192 138.665 6.03192 138.558 6.30192C138.452 6.46392 138.346 6.67992 138.346 6.94992V15.0499C138.346 15.3199 138.452 15.5899 138.612 15.6979C138.824 15.9139 139.037 15.9679 139.356 15.9679H144.249C144.462 15.9679 144.675 15.9679 144.781 15.7519C144.994 15.5899 145.1 15.4279 145.1 15.2119C145.1 14.8879 144.994 14.6719 144.834 14.5639C144.675 14.4019 144.462 14.3479 144.303 14.3479L144.249 14.4019ZM154.089 6.84192C154.089 6.57192 153.983 6.30192 153.876 6.30192C153.717 6.08592 153.504 6.03192 153.238 6.03192H146.536C146.27 6.03192 146.111 6.03192 146.005 6.24792C145.792 6.35592 145.685 6.57192 145.685 6.78792C145.685 7.05792 145.792 7.32792 145.951 7.43592C145.951 7.59792 146.217 7.65192 146.483 7.65192H148.93V15.0499C148.93 15.3199 148.93 15.5899 149.143 15.6979C149.302 15.9139 149.568 15.9679 149.834 15.9679C150.1 15.9679 150.366 15.9679 150.472 15.6979C150.632 15.5359 150.738 15.3199 150.738 15.0499V7.65192H153.185C153.451 7.65192 153.717 7.65192 153.823 7.43592C153.929 7.27392 154.036 7.05792 154.036 6.89592L154.089 6.84192ZM167.545 15.0499V6.94992C167.545 6.40992 167.279 6.03192 166.694 6.03192C166.322 6.03192 166.003 6.19392 165.79 6.57192L161.429 12.7279V6.94992C161.429 6.67992 161.322 6.40992 161.163 6.30192C161.003 6.08592 160.79 6.03192 160.471 6.03192C160.205 6.03192 159.939 6.03192 159.833 6.30192C159.674 6.46392 159.62 6.67992 159.62 6.94992V15.0499C159.62 15.3199 159.62 15.5899 159.833 15.7519C159.993 15.9139 160.205 15.9679 160.471 15.9679C160.737 15.9679 161.003 15.8059 161.269 15.4279L165.684 9.37992V15.1579C165.684 15.4279 165.843 15.6979 166.003 15.8059C166.162 16.0219 166.375 16.0759 166.694 16.0759C166.907 16.0759 167.12 16.0759 167.226 15.8059C167.439 15.6439 167.492 15.4279 167.492 15.1579L167.545 15.0499ZM176.587 6.03192H169.992C169.779 6.03192 169.566 6.03192 169.46 6.24792C169.247 6.35592 169.194 6.57192 169.194 6.78792C169.194 7.05792 169.194 7.32792 169.407 7.43592C169.513 7.59792 169.726 7.65192 169.939 7.65192H172.438V15.0499C172.438 15.3199 172.438 15.5899 172.651 15.6979C172.864 15.9139 173.077 15.9679 173.396 15.9679C173.662 15.9679 173.928 15.9679 174.034 15.6979C174.194 15.5359 174.3 15.3199 174.3 15.0499V7.65192H176.746C177.012 7.65192 177.278 7.65192 177.385 7.43592C177.544 7.27392 177.651 7.05792 177.651 6.89592C177.651 6.57192 177.544 6.35592 177.385 6.24792C177.225 6.08592 177.012 6.03192 176.746 6.03192H176.587ZM187.224 6.03192C186.852 6.03192 186.586 6.19392 186.32 6.57192L183.554 11.1079L180.735 6.62592C180.523 6.08592 180.204 5.97792 179.831 5.97792C179.565 5.97792 179.299 5.97792 179.193 6.19392C179.087 6.35592 178.98 6.62592 178.98 6.89592V14.9959C178.98 15.5359 179.246 15.9139 179.831 15.9139C180.363 15.9139 180.682 15.5899 180.682 14.9959V9.48792L182.65 12.7279C182.81 12.9979 183.076 13.1599 183.448 13.1599C183.767 13.1599 183.98 12.9979 184.246 12.6199L186.214 9.37992V15.0499C186.214 15.3199 186.214 15.5899 186.426 15.6979C186.639 15.9139 186.852 15.9679 187.171 15.9679C187.437 15.9679 187.703 15.9679 187.809 15.6979C187.969 15.5359 188.075 15.3199 188.075 15.0499V6.94992C188.075 6.67992 188.075 6.40992 187.916 6.30192C187.756 6.08592 187.543 6.03192 187.277 6.03192H187.224ZM198.394 7.32792C197.489 6.35592 196.266 5.86992 194.883 5.86992C193.5 5.86992 192.224 6.40992 191.373 7.32792C190.522 8.29992 190.15 9.48792 190.15 10.9999C190.15 12.5119 190.575 13.6999 191.426 14.6719C192.224 15.6439 193.394 16.1299 194.883 16.1299C196.266 16.1299 197.436 15.5899 198.287 14.6719C199.085 13.7539 199.51 12.5119 199.51 10.9999C199.51 9.54192 199.085 8.29992 198.287 7.32792H198.394ZM196.904 13.5379C196.372 14.0779 195.734 14.4559 194.883 14.4559C193.926 14.4559 193.288 14.1319 192.756 13.5379C192.224 12.8899 192.011 12.0259 192.011 10.9999C192.011 9.97392 192.277 9.10992 192.756 8.46192C193.288 7.92192 193.926 7.54392 194.883 7.54392C195.681 7.54392 196.372 7.86792 196.851 8.46192C197.383 9.10992 197.596 9.97392 197.596 10.9999C197.596 12.0799 197.436 12.8899 196.904 13.5379Z" fill="currentColor"/>
</svg>
