<svg width="87" height="23" viewBox="0 0 87 23" fill="none" xmlns="http://www.w3.org/2000/svg">
<path fill-rule="evenodd" clip-rule="evenodd" d="M46.7727 5.76011C46.9819 5.98154 48.8652 11.2569 49.0621 11.9081C49.2582 12.6059 49.5353 13.2753 49.8868 13.901C50.5392 14.0573 50.6008 13.367 50.7977 12.8199C51.8686 9.86313 53.4934 5.5517 54.3058 2.64702C54.872 1.24027 54.9212 0.862536 53.8996 0.862536C52.8779 0.862536 52.9887 1.56591 52.5825 2.47769C52.2256 4.21008 50.8469 7.87023 50.3423 9.55052C50.3423 9.77195 50.3423 9.77195 50.0838 9.77195C49.2345 7.27106 48.2497 4.21008 47.2896 1.73524C47.0311 1.2533 46.5757 1.1491 46.268 2.23021C45.751 3.94957 45.0371 5.99457 44.4832 7.66182C44.4832 7.66182 43.8185 9.77195 43.7693 9.87615C43.4172 9.27722 43.1595 8.62175 43.0061 7.93536C42.2429 5.94246 41.5783 3.79326 40.9259 1.80037C40.7659 1.42263 40.7659 1.2012 40.4089 0.979765C40.0511 0.839458 39.6642 0.803469 39.2888 0.875562C38.2794 1.04489 38.9318 1.90457 39.1411 2.54282C40.372 6.04667 41.7383 10.2539 43.1046 13.5884C43.1366 13.671 43.1886 13.7433 43.2553 13.7979C43.3221 13.8524 43.4013 13.8875 43.4849 13.8993C43.5685 13.9112 43.6536 13.8996 43.7316 13.8656C43.8097 13.8316 43.8778 13.7764 43.9293 13.7056C44.1262 13.3018 46.625 5.76011 46.7727 5.76011Z" fill="#21222E"/>
<path fill-rule="evenodd" clip-rule="evenodd" d="M0.19453 1.08651C0.143649 1.30349 0.160932 1.53211 0.243766 1.73778C0.453019 2.64956 -0.162431 13.0439 -0.00241389 13.4607C0.495823 13.6978 1.05443 13.7528 1.58545 13.617C1.83163 13.3435 1.73315 13.083 1.73315 12.6531C1.73315 10.8165 1.88086 9.04506 1.88086 7.15637C1.94241 6.453 1.99164 5.97105 1.99164 5.54121C1.99164 5.11137 1.99164 5.16348 2.09012 5.05927C2.18859 4.95507 3.80107 7.92487 3.96108 8.25051C4.26881 8.88876 4.87195 9.86567 5.27815 10.6211C5.8936 11.8065 6.20132 10.9989 6.34903 10.7253C6.70599 10.2434 9.4632 5.1244 9.66015 5.0202C9.84478 5.2286 9.84478 10.3476 9.84478 10.7253C9.84478 13.5258 9.53706 13.7994 11.2111 13.6821C11.7281 13.6821 11.7773 13.2523 11.7281 12.7703C11.7281 11.8586 11.7281 10.8296 11.7281 9.91777C11.5927 7.59924 11.4942 4.95507 11.4942 2.64956C11.4942 2.37603 11.5927 1.34702 11.5927 1.19071C11.442 1.01102 11.2378 0.891126 11.014 0.850862C10.7902 0.810598 10.5601 0.852372 10.3618 0.969278C10.0048 1.19071 9.90633 1.67265 9.64784 1.99829C8.61388 3.93908 7.22297 6.14039 6.25056 7.97698C5.8936 8.62825 5.8936 8.40682 5.58587 7.97698C4.92119 6.94796 4.05956 5.1765 3.45641 4.14749L2.22551 1.99829C2.05442 1.6248 1.83484 1.27845 1.57314 0.969278C1.22849 0.708768 0.551491 0.917176 0.19453 1.08651Z" fill="#21222E"/>
<path fill-rule="evenodd" clip-rule="evenodd" d="M65.1436 7.11352C65.5793 6.73736 66.0961 6.48105 66.648 6.36742C67.2 6.25379 67.7699 6.28637 68.307 6.46225C69.9318 7.21773 70.1411 9.75769 69.4272 10.9951C69.1231 11.4774 68.6851 11.8479 68.1736 12.0555C67.6621 12.2632 67.1023 12.2977 66.5715 12.1544C66.0572 12.047 65.5705 11.825 65.1436 11.5031V7.11352ZM65.1436 5.27693C65.0668 3.85832 65.0668 2.43622 65.1436 1.01761C65.1436 0.431462 64.9467 0.327259 64.4297 0.535666C63.1988 1.08274 63.1988 0.861303 63.3711 2.04662C63.4696 2.64579 63.3711 9.58836 63.3711 10.5653C63.3711 12.493 63.1126 12.9359 65.7591 13.7435C66.5126 13.9107 67.2903 13.915 68.0455 13.7561C68.8007 13.5972 69.5177 13.2783 70.1534 12.8187C72.7506 10.5653 72.0367 4.20885 67.2977 4.69079C66.8846 4.71444 66.4734 4.76666 66.0668 4.84709C65.9068 4.8992 65.3036 5.27693 65.2298 5.27693H65.1436Z" fill="#21222E"/>
<path fill-rule="evenodd" clip-rule="evenodd" d="M29.2555 13.5746C29.448 12.8954 29.5026 12.1807 29.4156 11.4775C29.3652 10.7404 29.3652 10.0004 29.4156 9.26322C29.5633 9.26322 29.7233 9.53675 30.031 9.86239C30.3387 10.188 32.8744 12.9885 33.2806 13.3011C33.4223 13.4407 33.5931 13.5429 33.7792 13.5995C33.9653 13.6561 34.1614 13.6654 34.3515 13.6267C34.7084 13.6267 35.2747 13.6267 35.4716 13.3662C35.4716 12.9885 34.7577 12.3893 34.4499 12.0637C34.1422 11.7381 33.7483 11.3212 33.3914 10.8784C32.6084 10.1492 31.8762 9.36133 31.2004 8.52077C31.2004 8.40354 33.9945 5.91567 34.5115 5.44676C34.7084 5.22532 34.9177 5.17322 34.8685 4.84759C34.2349 4.64077 33.5572 4.64077 32.9236 4.84759C32.6774 4.96482 30.9911 6.57997 30.5357 7.00981C30.388 7.16612 29.514 8.14303 29.4156 8.09093C29.2678 7.59596 29.4156 0.861797 29.3171 0.484059C29.2186 0.106321 27.483 0.705492 27.5323 1.35676C27.6288 1.81436 27.6783 2.28164 27.68 2.75049V12.0637C27.68 12.3893 27.5815 13.3662 27.7908 13.5225C28.2697 13.6521 28.7695 13.6698 29.2555 13.5746Z" fill="#21222E"/>
<path fill-rule="evenodd" clip-rule="evenodd" d="M15.9961 9.15992C16.5623 9.00362 18.4579 9.48556 18.544 10.0196C18.5932 10.5959 18.5932 11.1757 18.544 11.752C18.1871 12.2339 15.7376 13.1978 14.9252 11.4785C14.8157 11.2342 14.7589 10.9673 14.7589 10.6969C14.7589 10.4266 14.8157 10.1596 14.9252 9.9154C15.0434 9.71681 15.1999 9.54686 15.3844 9.41667C15.569 9.28648 15.7774 9.19899 15.9961 9.15992ZM18.5933 8.50865C18.115 8.17334 17.58 7.93893 17.0177 7.8183C16.317 7.73619 15.6081 7.78915 14.9252 7.9746C14.3502 8.14886 13.8433 8.51375 13.4789 9.01561C13.1145 9.51747 12.9119 10.1298 12.9009 10.7626C12.8898 11.3954 13.071 12.0152 13.4177 12.5309C13.7643 13.0467 14.2582 13.4311 14.8267 13.6277C15.8003 13.979 16.8565 13.979 17.8301 13.6277C18.0394 13.5234 18.4456 13.2499 18.5933 13.1978C18.741 13.1457 18.8025 13.5756 18.9995 13.6798C19.1964 13.784 20.1196 13.6798 20.3781 13.4192C20.6366 13.1587 20.6858 13.1978 20.5258 12.8201C20.2876 12.3217 20.2016 11.7573 20.2796 11.2049V7.32333C20.344 6.77373 20.2171 6.21811 19.9226 5.76028C18.9502 3.71528 13.0912 4.52286 13.5589 6.25524C14.0266 7.98763 14.7898 5.65607 17.3747 5.98171C18.7656 6.13801 18.6179 7.54476 18.6179 8.50865H18.5933Z" fill="#21222E"/>
<path fill-rule="evenodd" clip-rule="evenodd" d="M78.8409 8.24898H74.6189C74.6755 7.71416 74.9061 7.21682 75.2713 6.84223C75.6698 6.47234 76.1706 6.24849 76.6991 6.20399C76.9744 6.17992 77.2514 6.21481 77.5136 6.30657C77.7759 6.39833 78.018 6.54507 78.2254 6.73803C78.4342 6.91985 78.599 7.15181 78.7061 7.41462C78.8131 7.67742 78.8593 7.96347 78.8409 8.24898ZM74.5081 9.64271C74.8158 9.4864 79.4317 9.64271 80.2687 9.64271C81.1057 9.64271 80.7241 6.73803 79.1978 5.55271C78.5743 5.06077 77.8319 4.76548 77.0566 4.70094C76.2812 4.6364 75.5043 4.80523 74.8158 5.18794C74.1272 5.57066 73.5549 6.15165 73.1651 6.86384C72.7752 7.57603 72.5837 8.39038 72.6125 9.21287C72.5833 10.0117 72.7589 10.804 73.1208 11.5058C73.4828 12.2075 74.0174 12.7925 74.6681 13.1987C76.0344 14.1756 79.7025 14.1235 80.1579 12.6125C80.7241 10.6717 79.3948 11.7528 78.927 11.9612C78.5337 12.1319 78.1191 12.2416 77.6961 12.2869C74.9758 12.6125 74.3112 10.0725 74.5081 9.64271Z" fill="#21222E"/>
<path fill-rule="evenodd" clip-rule="evenodd" d="M56.0403 8.2434C56.0834 7.68707 56.3225 7.16817 56.71 6.78945C57.0975 6.41073 57.6053 6.1998 58.1328 6.19841C59.1914 6.08118 60.4223 7.05809 60.213 8.2434H56.0403ZM55.831 9.54595C56.0895 9.54595 60.8777 9.54595 61.5424 9.54595C62.2071 9.54595 62.0963 9.11611 62.047 8.58206C62.0111 7.85883 61.7982 7.15788 61.4293 6.54788C61.0603 5.93788 60.548 5.43975 59.9424 5.10228C59.3369 4.7648 58.6589 4.59957 57.9748 4.62275C57.2908 4.64593 56.6242 4.85674 56.0403 5.23452C55.3837 5.64499 54.8468 6.23904 54.4885 6.95139C54.1301 7.66375 53.9644 8.46684 54.0093 9.27241C53.957 10.0676 54.1263 10.8616 54.496 11.5561C54.8657 12.2506 55.4197 12.8152 56.0895 13.18C57.8251 14.3133 61.2346 13.8313 61.5424 12.5418C61.5424 12.1641 61.7886 11.2393 61.2346 11.4607C60.5656 11.861 59.8372 12.1384 59.0806 12.2813C58.6772 12.3383 58.2672 12.3101 57.8742 12.1983C57.4812 12.0865 57.1131 11.8934 56.7911 11.63C56.348 11.2523 55.6341 10.1191 55.831 9.54595Z" fill="#21222E"/>
<path fill-rule="evenodd" clip-rule="evenodd" d="M83.4769 13.6264C83.7846 13.3008 83.7354 13.1444 83.7354 12.6625V11.36C83.7354 9.64059 83.4277 6.78802 85.3109 6.35818C85.7171 6.25397 85.8156 6.61869 86.3326 6.51448C86.6375 6.22504 86.8664 5.85711 86.9973 5.44639C86.9973 4.62579 85.7664 4.46949 84.6463 5.00353C84.2893 5.17286 83.9939 5.75901 83.7354 5.81111C83.7354 5.32917 83.8339 5.12076 83.5261 4.69092C83.1316 4.73095 82.7497 4.85974 82.406 5.06866C81.9014 5.32917 81.8029 5.32917 81.9014 5.98044C81.9998 6.63171 81.9014 11.0994 81.9014 12.1675C81.9506 13.7957 81.9506 13.7436 83.4769 13.6264Z" fill="#21222E"/>
<path fill-rule="evenodd" clip-rule="evenodd" d="M23.4588 13.5743V13.47C23.6017 12.1471 23.6388 10.8138 23.5696 9.48426C23.5696 8.45525 23.8158 6.78799 24.8867 6.46235C25.7483 6.13672 25.7976 6.9964 26.3638 6.46235C27.6808 5.0035 25.9083 4.41736 24.8375 4.8993C23.7666 5.38124 23.9143 5.75898 23.6066 5.86318C23.5818 5.65124 23.5818 5.43688 23.6066 5.22494C23.6066 4.9514 23.4958 4.9514 23.3973 4.7951C23.0026 4.7917 22.6148 4.90444 22.2772 5.12073C21.7725 5.32914 21.6125 5.38124 21.7725 6.03251C21.8808 7.03112 21.9137 8.03726 21.871 9.04139V12.0112C21.9818 13.6264 21.7725 13.7436 23.4588 13.5743Z" fill="#21222E"/>
<path fill-rule="evenodd" clip-rule="evenodd" d="M46.4131 15.3072C44.3811 15.5725 42.3831 16.0749 40.4555 16.8052C39.8524 17.0787 39.2246 17.235 38.6215 17.5085C37.3906 17.9905 36.2335 18.4203 35.0149 18.9153C34.6088 19.0716 31.7038 19.9834 31.1992 20.1006C28.7374 20.7389 25.0447 21.4943 22.6936 20.3611C21.5735 19.775 21.4627 21.5985 24.0107 22.2498C25.5007 22.526 27.0298 22.4548 28.4912 22.0414C29.7221 21.7679 31.1992 21.2859 32.3685 20.9082C33.5379 20.5305 34.9165 20.1006 36.1843 19.7229C36.492 19.6056 36.7382 19.5014 37.0952 19.3972L38.9784 18.7981C39.3354 18.6939 39.5939 18.5376 39.9016 18.4203L41.8464 17.9384C42.2034 17.8342 42.4619 17.73 42.7696 17.6128C45.3468 17.031 47.9753 16.7428 50.6105 16.7531C51.2628 16.7531 52.2352 16.9224 52.8999 17.0266C54.1308 17.1829 53.86 16.4926 53.0476 16.0497C50.9354 15.1933 48.6479 14.9373 46.4131 15.3072Z" fill="#F9CC46"/>
</svg>
