<?xml version="1.0" standalone="no"?>
<!DOCTYPE svg PUBLIC "-//W3C//DTD SVG 20010904//EN"
 "http://www.w3.org/TR/2001/REC-SVG-20010904/DTD/svg10.dtd">
<svg version="1.0" xmlns="http://www.w3.org/2000/svg"
 width="700.000000pt" height="700.000000pt" viewBox="0 0 700.000000 700.000000"
 preserveAspectRatio="xMidYMid meet">
<metadata>
Created by potrace 1.14, written by Peter Selinger 2001-2017
</metadata>
<g transform="translate(0.000000,700.000000) scale(0.100000,-0.100000)"
fill="#000000" stroke="none">
<path d="M3427 6985 c-197 -38 -356 -118 -499 -254 -210 -198 -311 -431 -310
-716 0 -151 26 -269 86 -399 l35 -77 -712 -656 c-392 -361 -729 -672 -749
-692 l-38 -35 -82 41 c-131 65 -207 85 -338 90 -226 9 -399 -55 -566 -211
-352 -327 -333 -894 42 -1209 79 -67 216 -137 319 -163 94 -23 267 -23 360 1
259 65 469 252 563 502 l27 73 796 0 796 0 37 -59 c132 -214 404 -284 618
-158 52 30 136 117 169 175 l24 42 656 0 656 0 37 -92 c20 -51 38 -98 39 -103
1 -6 -272 -273 -608 -594 -335 -321 -640 -613 -677 -649 l-67 -65 -113 56
c-165 83 -275 110 -453 110 -119 0 -155 -4 -238 -26 -365 -97 -643 -389 -719
-755 -28 -138 -22 -329 16 -457 84 -279 270 -498 527 -619 149 -70 224 -86
414 -86 128 0 178 4 238 20 273 69 512 261 637 510 139 279 141 580 3 869
l-35 74 24 22 c12 12 298 282 633 600 336 318 640 607 676 642 l66 64 34 -20
c19 -11 70 -32 114 -47 67 -23 102 -28 215 -32 116 -4 148 -1 220 17 285 72
490 271 576 558 35 117 37 288 5 407 -78 291 -324 522 -621 582 -170 34 -387
-1 -535 -86 -165 -96 -316 -280 -366 -447 l-12 -43 -682 0 -682 0 -14 26 c-22
42 -124 130 -182 158 -132 62 -281 60 -409 -5 -49 -25 -130 -99 -159 -145
l-21 -34 -811 0 -812 0 -24 68 c-13 37 -24 74 -25 83 0 10 305 299 748 707
l748 690 56 -35 c79 -51 194 -99 298 -125 113 -28 320 -30 431 -5 390 89 694
404 762 791 16 85 13 273 -4 353 -65 305 -274 564 -563 695 -164 74 -405 105
-575 73z m285 -406 c206 -44 380 -211 433 -416 19 -74 19 -213 0 -287 -41
-156 -157 -298 -299 -366 -94 -44 -160 -60 -254 -60 -267 1 -502 193 -557 455
-27 130 -11 248 51 374 68 138 219 259 370 295 73 18 186 20 256 5z m-2751
-2732 c86 -42 143 -98 184 -180 102 -206 20 -441 -188 -537 -197 -92 -427 -8
-521 190 -29 60 -31 73 -31 170 0 93 3 112 26 161 45 96 116 163 218 206 49
21 69 23 156 21 85 -3 109 -7 156 -31z m5321 0 c85 -42 143 -98 183 -180 80
-164 44 -341 -96 -472 -124 -114 -288 -134 -441 -53 -213 113 -274 392 -129
585 43 57 128 118 191 138 29 10 78 14 140 12 81 -2 104 -7 152 -30z m-2642
-346 c24 -46 0 -91 -49 -91 -35 0 -51 17 -51 55 0 40 16 55 57 55 22 0 36 -6
43 -19z m-21 -1966 c225 -53 400 -245 433 -474 52 -356 -236 -669 -597 -648
-156 9 -275 66 -384 183 -201 214 -202 550 -3 765 88 96 207 163 322 182 58
10 170 6 229 -8z"/>
</g>
</svg>
