<?xml version="1.0" standalone="no"?>
<!DOCTYPE svg PUBLIC "-//W3C//DTD SVG 20010904//EN"
 "http://www.w3.org/TR/2001/REC-SVG-20010904/DTD/svg10.dtd">
<svg version="1.0" xmlns="http://www.w3.org/2000/svg"
 width="1504.000000pt" height="1504.000000pt" viewBox="0 0 1504.000000 1504.000000"
 preserveAspectRatio="xMidYMid meet">
<metadata>
Created by potrace 1.14, written by Peter Selinger 2001-2017
</metadata>
<g transform="translate(0.000000,1504.000000) scale(0.100000,-0.100000)"
fill="#000000" stroke="none">
<path d="M3426 10965 c-92 -33 -146 -102 -153 -196 -4 -56 -1 -71 24 -119 38
-75 93 -112 172 -118 72 -5 121 10 168 51 47 41 73 99 73 165 0 101 -63 190
-154 217 -60 18 -80 18 -130 0z"/>
<path d="M13001 10970 c-166 -41 -221 -264 -94 -381 51 -48 90 -61 163 -57 82
4 137 38 178 107 50 84 31 213 -40 277 -54 50 -138 72 -207 54z"/>
<path d="M11359 10307 c-108 -31 -210 -123 -250 -225 -32 -80 -31 -204 0 -285
32 -81 113 -166 193 -203 56 -26 74 -29 158 -29 85 0 101 3 155 29 75 37 145
108 181 183 25 52 28 69 29 158 0 92 -3 105 -32 167 -60 128 -179 208 -317
215 -39 1 -92 -3 -117 -10z"/>
<path d="M1792 10139 c-127 -63 -162 -232 -71 -342 80 -97 215 -110 310 -29
123 105 101 299 -43 373 -51 26 -140 25 -196 -2z"/>
<path d="M4992 10139 c-51 -26 -95 -76 -111 -128 -65 -217 181 -388 350 -243
123 105 101 299 -43 373 -51 26 -140 25 -196 -2z"/>
<path d="M8171 10138 c-78 -39 -129 -137 -117 -227 19 -137 152 -225 282 -186
169 50 213 266 78 384 -20 18 -47 37 -61 42 -44 17 -135 11 -182 -13z"/>
<path d="M14545 10141 c-76 -34 -125 -114 -125 -201 0 -203 242 -301 382 -153
37 39 58 93 58 153 0 86 -46 162 -121 200 -50 26 -140 26 -194 1z"/>
<path d="M3415 9709 c-125 -16 -256 -86 -340 -182 -326 -373 -66 -954 425
-951 158 2 286 59 396 177 107 114 154 235 154 393 0 163 -51 287 -164 400
-128 129 -295 186 -471 163z"/>
<path d="M9800 9709 c-148 -16 -297 -110 -387 -241 -220 -325 -63 -763 312
-874 80 -24 220 -24 300 0 301 88 474 403 389 705 -77 274 -330 443 -614 410z"/>
<path d="M13015 9713 c-139 -15 -242 -62 -341 -156 -119 -112 -177 -248 -177
-412 0 -317 247 -569 558 -569 156 0 284 53 395 164 76 76 123 159 150 266 74
290 -90 589 -375 682 -61 20 -155 31 -210 25z"/>
<path d="M6612 9519 c-191 -32 -324 -207 -309 -407 20 -262 293 -423 530 -312
139 65 226 216 215 372 -12 164 -144 318 -294 343 -76 12 -89 13 -142 4z"/>
<path d="M1752 8884 c-131 -35 -246 -117 -321 -230 -157 -234 -127 -533 73
-729 139 -137 314 -189 501 -150 207 44 376 206 429 412 20 78 20 212 1 288
-54 205 -225 373 -423 414 -72 15 -196 13 -260 -5z"/>
<path d="M4946 8885 c-192 -53 -355 -222 -401 -416 -47 -201 8 -394 154 -540
122 -122 269 -178 431 -166 144 11 265 71 369 183 110 117 158 256 149 427
-14 243 -183 449 -418 512 -68 18 -218 18 -284 0z"/>
<path d="M8133 8885 c-93 -25 -174 -74 -249 -149 -116 -116 -168 -242 -168
-406 0 -162 52 -288 165 -401 317 -319 851 -155 945 291 18 84 13 193 -10 272
-58 190 -216 344 -402 393 -72 19 -211 18 -281 0z"/>
<path d="M11311 8884 c-123 -33 -251 -127 -322 -238 -129 -198 -126 -444 7
-639 193 -283 585 -328 837 -97 69 65 117 138 155 238 36 96 38 254 3 360 -60
184 -213 329 -397 377 -72 19 -211 18 -283 -1z"/>
<path d="M14571 8545 c-173 -54 -204 -300 -50 -402 51 -33 145 -43 199 -21 85
36 140 117 140 208 0 99 -64 189 -154 215 -59 18 -77 18 -135 0z"/>
<path d="M3356 8075 c-176 -45 -335 -192 -396 -369 -30 -85 -38 -231 -16 -316
28 -111 72 -187 155 -271 125 -126 255 -176 426 -166 110 7 190 34 282 97 229
156 311 472 187 725 -62 126 -177 231 -310 281 -87 33 -238 42 -328 19z"/>
<path d="M6540 8074 c-196 -51 -355 -210 -411 -409 -8 -27 -14 -93 -14 -145 0
-164 52 -290 169 -406 221 -220 562 -220 781 0 117 119 168 241 168 406 0 165
-51 287 -168 406 -139 139 -342 197 -525 148z"/>
<path d="M9740 8074 c-149 -39 -294 -153 -359 -283 -40 -79 -71 -197 -71 -271
0 -144 66 -299 174 -406 221 -220 562 -220 781 0 117 119 169 242 169 406 0
164 -52 287 -169 406 -139 139 -342 197 -525 148z"/>
<path d="M12953 7886 c-223 -73 -331 -320 -233 -530 35 -73 103 -141 178 -178
61 -30 74 -33 162 -33 84 1 102 4 155 30 76 36 143 104 181 180 26 55 29 69
29 165 0 96 -3 110 -29 165 -64 128 -179 205 -320 211 -52 3 -96 -1 -123 -10z"/>
<path d="M265 7741 c-107 -27 -175 -113 -175 -221 0 -208 257 -304 388 -145
112 137 32 344 -143 368 -22 3 -53 2 -70 -2z"/>
<path d="M5000 7274 c-122 -24 -234 -87 -322 -182 -204 -221 -196 -573 17
-788 110 -109 241 -164 394 -164 194 0 359 88 464 248 73 110 92 176 92 317 0
139 -14 197 -72 292 -72 119 -183 210 -306 253 -61 21 -212 34 -267 24z"/>
<path d="M8153 7265 c-93 -20 -198 -80 -273 -155 -112 -112 -164 -239 -164
-400 0 -165 52 -291 168 -405 115 -114 236 -165 391 -165 156 0 290 56 398
168 135 140 191 330 153 512 -66 314 -365 512 -673 445z"/>
<path d="M1807 7079 c-102 -24 -206 -109 -255 -208 -24 -50 -27 -67 -27 -161
0 -92 3 -112 26 -160 39 -82 99 -144 177 -182 62 -31 74 -33 167 -33 91 0 105
3 158 30 191 96 267 327 171 517 -78 153 -252 236 -417 197z"/>
<path d="M11339 7068 c-288 -101 -346 -480 -103 -666 101 -78 257 -94 376 -40
73 34 146 107 184 183 26 54 29 70 29 160 0 89 -3 107 -28 161 -81 175 -282
263 -458 202z"/>
<path d="M6601 6270 c-211 -44 -346 -268 -286 -475 95 -334 538 -379 690 -72
102 207 12 446 -200 529 -54 21 -147 29 -204 18z"/>
<path d="M9780 6264 c-109 -29 -199 -106 -248 -212 -24 -50 -27 -70 -27 -157
0 -87 3 -107 27 -157 137 -293 543 -294 681 0 28 59 31 77 32 157 0 81 -3 97
-31 156 -18 37 -48 84 -68 106 -43 48 -132 97 -204 112 -67 14 -94 13 -162 -5z"/>
<path d="M3413 6124 c-52 -19 -118 -89 -132 -140 -28 -99 7 -199 87 -258 40
-28 51 -31 121 -31 68 0 83 3 119 28 65 43 96 97 100 178 4 59 1 74 -23 118
-56 101 -163 143 -272 105z"/>
<path d="M232 6107 c-128 -47 -182 -202 -112 -324 71 -124 230 -149 335 -52
56 51 79 110 73 183 -12 146 -160 242 -296 193z"/>
<path d="M12975 6106 c-180 -79 -187 -330 -11 -412 136 -63 283 16 311 169 17
88 -44 199 -129 238 -48 22 -128 24 -171 5z"/>
<path d="M4975 5463 c-214 -77 -315 -318 -218 -523 38 -82 100 -145 183 -184
58 -28 75 -31 155 -31 76 0 99 5 147 27 239 111 301 414 122 607 -72 78 -149
113 -259 118 -59 3 -93 -1 -130 -14z"/>
<path d="M8153 5461 c-102 -38 -172 -104 -221 -209 -23 -49 -27 -70 -27 -152
0 -82 4 -103 27 -153 38 -80 115 -158 191 -193 54 -25 74 -29 152 -29 76 0 99
5 147 27 151 70 240 223 225 386 -12 129 -99 253 -217 309 -75 36 -201 42
-277 14z"/>
<path d="M11391 5315 c-90 -28 -151 -116 -151 -215 0 -92 44 -162 129 -205 52
-26 156 -18 209 18 87 57 124 179 83 273 -12 27 -32 59 -44 72 -53 57 -150 82
-226 57z"/>
<path d="M6613 4506 c-60 -19 -99 -51 -130 -104 -23 -39 -28 -59 -28 -112 1
-134 89 -224 220 -224 118 0 205 77 221 196 21 156 -136 291 -283 244z"/>
</g>
</svg>
