<svg width="1061" height="924" viewBox="0 0 1061 924" fill="none" xmlns="http://www.w3.org/2000/svg">
<g>
<path d="M876.515 525.249H875.908C870.553 525.091 865.479 522.816 861.798 518.925C858.118 515.034 856.131 509.843 856.272 504.49C859.268 401.676 836.151 324.196 787.569 274.205C739.527 224.687 664.103 199.638 563.416 199.638C558.048 199.638 552.899 197.506 549.103 193.712C545.307 189.917 543.174 184.771 543.174 179.404C543.174 174.038 545.307 168.892 549.103 165.097C552.899 161.303 558.048 159.171 563.416 159.171C675.425 159.171 760.646 188.375 816.61 245.973C873.128 304.083 900.118 391.438 896.73 505.596C896.579 510.856 894.384 515.851 890.61 519.52C886.836 523.189 881.78 525.245 876.515 525.249Z" fill="#EFF1F4"/>
<path d="M495.944 199.637H428.469C423.1 199.637 417.952 197.505 414.155 193.711C410.359 189.916 408.227 184.77 408.227 179.403C408.227 174.037 410.359 168.891 414.155 165.096C417.952 161.302 423.1 159.17 428.469 159.17H495.944C501.313 159.17 506.462 161.302 510.258 165.096C514.054 168.891 516.187 174.037 516.187 179.403C516.187 184.77 514.054 189.916 510.258 193.711C506.462 197.505 501.313 199.637 495.944 199.637Z" fill="#EFF1F4"/>
<path d="M367.736 199.638H209.844C204.475 199.638 199.326 197.506 195.53 193.712C191.734 189.917 189.601 184.771 189.601 179.404C189.601 174.038 191.734 168.892 195.53 165.097C199.326 161.303 204.475 159.171 209.844 159.171H367.736C373.104 159.171 378.253 161.303 382.049 165.097C385.846 168.892 387.978 174.038 387.978 179.404C387.978 184.771 385.846 189.917 382.049 193.712C378.253 197.506 373.104 199.638 367.736 199.638Z" fill="#EFF1F4"/>
<path d="M935.34 566.39C930.866 566.39 926.576 564.613 923.412 561.451C920.249 558.289 918.471 554 918.471 549.529C918.471 441.117 909.605 384.086 892.116 335.674C891.317 333.581 890.944 331.351 891.017 329.112C891.09 326.874 891.609 324.672 892.543 322.636C893.477 320.601 894.807 318.771 896.456 317.255C898.105 315.739 900.04 314.566 902.147 313.805C904.254 313.044 906.492 312.711 908.73 312.824C910.968 312.938 913.161 313.495 915.18 314.465C917.2 315.435 919.006 316.797 920.493 318.472C921.981 320.147 923.119 322.102 923.842 324.221C942.668 376.303 952.182 439.728 952.182 549.488C952.187 551.703 951.756 553.898 950.912 555.947C950.068 557.995 948.829 559.858 947.265 561.427C945.701 562.997 943.843 564.243 941.797 565.095C939.75 565.946 937.556 566.386 935.34 566.39Z" fill="#EFF1F4"/>
<path d="M887.218 300.346C884.181 300.35 881.199 299.536 878.586 297.988C875.974 296.44 873.827 294.216 872.373 291.551C852.434 254.374 823.712 222.627 788.704 199.071C756.869 177.718 718.53 162.205 674.711 152.952C670.334 152.025 666.504 149.399 664.065 145.65C661.625 141.901 660.775 137.336 661.702 132.961C662.629 128.586 665.257 124.758 669.008 122.319C672.758 119.881 677.324 119.031 681.702 119.958C783.427 141.459 857.555 193.756 902.035 275.419C903.432 277.989 904.136 280.879 904.078 283.804C904.02 286.729 903.203 289.589 901.706 292.103C900.209 294.617 898.084 296.698 895.539 298.143C892.994 299.589 890.117 300.348 887.191 300.346H887.218Z" fill="#EFF1F4"/>
<path d="M622.823 144.98C622.284 144.98 621.744 144.98 621.204 144.98C602.878 143.24 583.418 142.282 563.418 142.282H497.293C492.819 142.282 488.528 140.506 485.365 137.344C482.201 134.181 480.424 129.893 480.424 125.421C480.424 120.949 482.201 116.66 485.365 113.498C488.528 110.336 492.819 108.56 497.293 108.56H563.418C584.498 108.56 605.024 109.504 624.389 111.338C628.692 111.761 632.669 113.819 635.497 117.087C638.326 120.356 639.792 124.585 639.591 128.902C639.39 133.219 637.538 137.295 634.418 140.287C631.298 143.279 627.147 144.959 622.823 144.98Z" fill="#EFF1F4"/>
<path d="M439.265 142.282H260.455C255.981 142.282 251.691 140.506 248.527 137.344C245.364 134.181 243.586 129.893 243.586 125.421C243.586 120.949 245.364 116.66 248.527 113.498C251.691 110.336 255.981 108.56 260.455 108.56H439.265C443.738 108.56 448.029 110.336 451.193 113.498C454.356 116.66 456.133 120.949 456.133 125.421C456.133 129.893 454.356 134.181 451.193 137.344C448.029 140.506 443.738 142.282 439.265 142.282Z" fill="#EFF1F4"/>
<path d="M209.848 142.282H192.534C188.06 142.282 183.77 140.506 180.606 137.344C177.443 134.182 175.666 129.893 175.666 125.421C175.666 120.949 177.443 116.66 180.606 113.498C183.77 110.336 188.06 108.56 192.534 108.56H209.848C214.322 108.56 218.613 110.336 221.777 113.498C224.94 116.66 226.717 120.949 226.717 125.421C226.717 129.893 224.94 134.182 221.777 137.344C218.613 140.506 214.322 142.282 209.848 142.282Z" fill="#EFF1F4"/>
<path d="M142.372 142.282H84.3434C79.8695 142.282 75.5789 140.506 72.4154 137.344C69.2519 134.181 67.4746 129.893 67.4746 125.421C67.4746 120.949 69.2519 116.66 72.4154 113.498C75.5789 110.336 79.8695 108.56 84.3434 108.56H142.372C146.846 108.56 151.137 110.336 154.3 113.498C157.464 116.66 159.241 120.949 159.241 125.421C159.241 129.893 157.464 134.181 154.3 137.344C151.137 140.506 146.846 142.282 142.372 142.282Z" fill="#EFF1F4"/>
<path d="M992.992 525.924C986.73 525.92 980.725 523.432 976.297 519.006C971.868 514.58 969.379 508.578 969.376 502.318C969.376 420.723 956.204 349.285 930.24 290.001C928.886 287.144 928.12 284.045 927.987 280.887C927.854 277.728 928.357 274.576 929.466 271.616C930.575 268.655 932.267 265.948 934.443 263.654C936.619 261.36 939.233 259.526 942.131 258.261C945.029 256.996 948.152 256.325 951.314 256.29C954.476 256.254 957.614 256.853 960.54 258.052C963.466 259.251 966.121 261.025 968.348 263.269C970.576 265.513 972.329 268.182 973.505 271.116C1002.11 336.417 1016.69 414.221 1016.69 502.372C1016.68 505.474 1016.06 508.545 1014.87 511.408C1013.67 514.271 1011.93 516.87 1009.72 519.058C1007.52 521.245 1004.91 522.977 1002.04 524.155C999.171 525.334 996.095 525.935 992.992 525.924Z" fill="#EFF1F4"/>
<path d="M912.127 234.803C908.42 234.809 904.764 233.942 901.455 232.271C898.147 230.6 895.279 228.172 893.085 225.186C837.567 149.823 751.549 105.74 637.408 94.1669C634.265 93.9293 631.201 93.0652 628.397 91.6255C625.593 90.1857 623.106 88.1995 621.082 85.7838C619.059 83.3681 617.539 80.5719 616.613 77.56C615.688 74.5481 615.375 71.3814 615.693 68.2466C616.011 65.1119 616.953 62.0725 618.465 59.3077C619.977 56.5428 622.027 54.1084 624.495 52.148C626.963 50.1876 629.798 48.7409 632.834 47.8931C635.87 47.0453 639.045 46.8135 642.172 47.2116C770.145 60.161 867.364 110.61 931.155 197.196C933.74 200.712 935.301 204.875 935.663 209.224C936.025 213.573 935.175 217.936 933.207 221.832C931.239 225.727 928.23 229.001 924.514 231.29C920.798 233.58 916.519 234.796 912.154 234.803H912.127Z" fill="#EFF1F4"/>
<path d="M556.668 91.0241H308.359C302.096 91.0241 296.089 88.537 291.66 84.1101C287.231 79.6831 284.743 73.6789 284.743 67.4183C284.743 61.1576 287.231 55.1534 291.66 50.7265C296.089 46.2995 302.096 43.8125 308.359 43.8125H556.668C562.932 43.8125 568.939 46.2995 573.367 50.7265C577.796 55.1534 580.285 61.1576 580.285 67.4183C580.285 73.6789 577.796 79.6831 573.367 84.1101C568.939 88.537 562.932 91.0241 556.668 91.0241Z" fill="#EFF1F4"/>
<path d="M236.836 91.0241H135.624C129.36 91.0241 123.353 88.537 118.924 84.1101C114.495 79.6831 112.007 73.6789 112.007 67.4183C112.007 61.1576 114.495 55.1534 118.924 50.7265C123.353 46.2995 129.36 43.8125 135.624 43.8125H236.836C243.1 43.8125 249.107 46.2995 253.536 50.7265C257.965 55.1534 260.453 61.1576 260.453 67.4183C260.453 73.6789 257.965 79.6831 253.536 84.1101C249.107 88.537 243.1 91.0241 236.836 91.0241Z" fill="#EFF1F4"/>
<path d="M66.8004 91.0241H23.6163C17.3529 91.0241 11.346 88.537 6.91706 84.1101C2.48814 79.6831 0 73.6789 0 67.4183C0 61.1576 2.48814 55.1534 6.91706 50.7265C11.346 46.2995 17.3529 43.8125 23.6163 43.8125H66.8004C73.0639 43.8125 79.0708 46.2995 83.4997 50.7265C87.9286 55.1534 90.4168 61.1576 90.4168 67.4183C90.4168 73.6789 87.9286 79.6831 83.4997 84.1101C79.0708 88.537 73.0639 91.0241 66.8004 91.0241Z" fill="#EFF1F4"/>
<path d="M1046.43 523.9C1042.85 523.9 1039.42 522.479 1036.89 519.949C1034.36 517.419 1032.94 513.989 1032.94 510.411C1032.94 461.675 1029.13 415.853 1021.62 374.172C1021.04 370.677 1021.86 367.097 1023.91 364.204C1025.95 361.31 1029.05 359.336 1032.54 358.707C1036.02 358.079 1039.62 358.846 1042.54 360.843C1045.47 362.841 1047.49 365.908 1048.17 369.383C1055.97 412.548 1059.93 460.016 1059.93 510.357C1059.94 512.133 1059.59 513.893 1058.92 515.536C1058.24 517.178 1057.25 518.672 1056 519.93C1054.74 521.188 1053.25 522.187 1051.61 522.868C1049.97 523.549 1048.21 523.9 1046.43 523.9Z" fill="#EFF1F4"/>
<path d="M1025.79 343.444C1022.79 343.445 1019.88 342.448 1017.51 340.611C1015.14 338.775 1013.45 336.202 1012.71 333.3C1008.57 317.019 1003.61 300.956 997.865 285.171C997.194 283.496 996.865 281.702 996.9 279.898C996.934 278.093 997.331 276.313 998.066 274.664C998.801 273.016 999.86 271.531 1001.18 270.299C1002.5 269.066 1004.05 268.111 1005.75 267.49C1007.44 266.869 1009.25 266.594 1011.05 266.682C1012.85 266.77 1014.62 267.219 1016.25 268.003C1017.88 268.786 1019.33 269.888 1020.52 271.243C1021.72 272.598 1022.62 274.178 1023.2 275.891C1029.12 292.078 1034.4 309.101 1038.89 326.596C1039.33 328.313 1039.43 330.099 1039.18 331.853C1038.93 333.607 1038.33 335.295 1037.43 336.819C1036.52 338.344 1035.33 339.675 1033.91 340.738C1032.49 341.8 1030.88 342.573 1029.16 343.012C1028.06 343.303 1026.93 343.448 1025.79 343.444Z" fill="#EFF1F4"/>
<path d="M993.006 252.704C990.471 252.704 987.987 251.99 985.839 250.645C983.691 249.299 981.966 247.376 980.861 245.096C976.353 235.815 971.495 226.697 966.407 218.01C964.661 214.926 964.199 211.278 965.121 207.856C966.043 204.434 968.276 201.513 971.336 199.723C974.396 197.933 978.038 197.419 981.474 198.291C984.911 199.164 987.865 201.353 989.7 204.386C995.098 213.68 1000.33 223.419 1005.14 233.32C1006.14 235.377 1006.6 237.654 1006.48 239.938C1006.35 242.221 1005.65 244.436 1004.44 246.375C1003.22 248.313 1001.54 249.91 999.533 251.018C997.531 252.125 995.281 252.705 992.993 252.704H993.006Z" fill="#EFF1F4"/>
<path d="M951.898 185.663C949.812 185.676 947.752 185.205 945.878 184.287C944.005 183.37 942.37 182.031 941.102 180.375C900.617 127.404 845.949 87.6787 778.662 62.1845C775.389 60.8651 772.764 58.3167 771.348 55.0855C769.933 51.8542 769.84 48.1973 771.089 44.8984C772.339 41.5994 774.831 38.921 778.033 37.4371C781.235 35.9532 784.89 35.782 788.217 36.96C860.28 64.2078 918.943 106.955 962.613 163.973C964.144 165.971 965.085 168.357 965.33 170.862C965.575 173.366 965.114 175.89 963.999 178.146C962.884 180.403 961.16 182.303 959.022 183.631C956.883 184.959 954.416 185.663 951.898 185.663Z" fill="#EFF1F4"/>
<path d="M737.463 48.2907C736.273 48.2855 735.089 48.1268 733.94 47.8186C682.497 33.9923 623.767 26.978 559.369 26.978C513.863 26.978 467.67 27.059 428.467 27.1399C424.888 27.1399 421.455 25.7187 418.924 23.1891C416.393 20.6594 414.972 17.2284 414.972 13.6509C414.972 10.0734 416.393 6.64239 418.924 4.11271C421.455 1.58303 424.888 0.161868 428.467 0.161868C467.602 0.0809341 513.863 0 559.369 0C626.169 0 687.221 7.32454 740.958 21.7713C744.121 22.6176 746.869 24.5849 748.689 27.3064C750.509 30.028 751.276 33.3181 750.848 36.5635C750.421 39.8089 748.827 42.788 746.364 44.9457C743.901 47.1033 740.738 48.2922 737.463 48.2907Z" fill="#EFF1F4"/>
<path d="M319.657 27.3696C316.078 27.3696 312.646 25.9484 310.115 23.4187C307.584 20.8891 306.162 17.4581 306.162 13.8806C306.162 10.303 307.584 6.87207 310.115 4.34238C312.646 1.8127 316.078 0.391543 319.657 0.391543L353.111 0.310609L382.18 0.243164C385.759 0.243164 389.191 1.66432 391.722 4.19401C394.253 6.72369 395.675 10.1547 395.675 13.7322C395.675 17.3097 394.253 20.7407 391.722 23.2704C389.191 25.8 385.759 27.2212 382.18 27.2212L353.125 27.2886L319.63 27.3696H319.657Z" fill="#EFF1F4"/>
<path d="M103.913 27.6253C100.334 27.6253 96.9019 26.2041 94.3711 23.6744C91.8403 21.1447 90.4185 17.7138 90.4185 14.1362C90.4185 10.5587 91.8403 7.12774 94.3711 4.59806C96.9019 2.06838 100.334 0.64722 103.913 0.64722C157.664 0.64722 211.874 0.64722 274.518 0.485352C278.097 0.485352 281.529 1.90651 284.06 4.43619C286.591 6.96588 288.013 10.3969 288.013 13.9744C288.013 17.5519 286.591 20.9829 284.06 23.5126C281.529 26.0422 278.097 27.4634 274.518 27.4634C211.874 27.5848 157.678 27.6253 103.913 27.6253Z" fill="#EFF1F4"/>
<path d="M993.233 658.75C986.97 658.75 980.963 656.263 976.534 651.836C972.105 647.409 969.617 641.405 969.617 635.144V567.577C969.617 561.317 972.105 555.313 976.534 550.886C980.963 546.459 986.97 543.972 993.233 543.972C999.497 543.972 1005.5 546.459 1009.93 550.886C1014.36 555.313 1016.85 561.317 1016.85 567.577V635.144C1016.85 641.403 1014.36 647.406 1009.93 651.832C1005.5 656.258 999.496 658.746 993.233 658.75Z" fill="#EFF1F4"/>
<path d="M935.735 789.958C931.261 789.958 926.97 788.181 923.807 785.019C920.643 781.857 918.866 777.568 918.866 773.096V601.273C918.866 596.801 920.643 592.513 923.807 589.351C926.97 586.189 931.261 584.412 935.735 584.412C940.209 584.412 944.5 586.189 947.663 589.351C950.827 592.513 952.604 596.801 952.604 601.273V773.096C952.604 777.568 950.827 781.857 947.663 785.019C944.5 788.181 940.209 789.958 935.735 789.958Z" fill="#EFF1F4"/>
<path d="M935.735 865.631C931.261 865.631 926.971 863.854 923.807 860.692C920.644 857.53 918.866 853.241 918.866 848.77V827.268C918.866 822.796 920.644 818.508 923.807 815.346C926.971 812.183 931.261 810.407 935.735 810.407C940.209 810.407 944.5 812.183 947.663 815.346C950.827 818.508 952.604 822.796 952.604 827.268V848.77C952.604 853.241 950.827 857.53 947.663 860.692C944.5 863.854 940.209 865.631 935.735 865.631Z" fill="#EFF1F4"/>
<path d="M993.233 923.012C990.132 923.014 987.06 922.405 984.194 921.219C981.328 920.033 978.724 918.295 976.53 916.102C974.337 913.91 972.597 911.307 971.411 908.442C970.225 905.577 969.615 902.507 969.617 899.407V700.079C969.617 693.819 972.105 687.815 976.534 683.388C980.963 678.961 986.97 676.474 993.233 676.474C999.497 676.474 1005.5 678.961 1009.93 683.388C1014.36 687.815 1016.85 693.819 1016.85 700.079V899.407C1016.85 905.667 1014.36 911.671 1009.93 916.098C1005.5 920.525 999.497 923.012 993.233 923.012Z" fill="#EFF1F4"/>
<path d="M1047.04 593.786C1043.46 593.786 1040.03 592.365 1037.5 589.835C1034.97 587.306 1033.55 583.875 1033.55 580.297V558.796C1033.55 555.218 1034.97 551.787 1037.5 549.257C1040.03 546.728 1043.46 545.307 1047.04 545.307C1050.62 545.307 1054.05 546.728 1056.58 549.257C1059.11 551.787 1060.54 555.218 1060.54 558.796V580.297C1060.54 583.875 1059.11 587.306 1056.58 589.835C1054.05 592.365 1050.62 593.786 1047.04 593.786Z" fill="#EFF1F4"/>
<path d="M1047.04 743.717C1043.46 743.717 1040.03 742.296 1037.5 739.766C1034.97 737.237 1033.55 733.805 1033.55 730.228V627.482C1033.55 623.905 1034.97 620.474 1037.5 617.944C1040.03 615.414 1043.46 613.993 1047.04 613.993C1050.62 613.993 1054.05 615.414 1056.58 617.944C1059.11 620.474 1060.54 623.905 1060.54 627.482V730.228C1060.54 733.805 1059.11 737.237 1056.58 739.766C1054.05 742.296 1050.62 743.717 1047.04 743.717Z" fill="#EFF1F4"/>
</g>
</svg>
