<svg width="982" height="943" viewBox="0 0 982 943" fill="none" xmlns="http://www.w3.org/2000/svg">
<g>
<path d="M86.0066 406.377H86.6271C92.0981 406.539 97.2816 408.863 101.042 412.838C104.802 416.814 106.832 422.117 106.688 427.586C103.627 532.626 127.244 611.785 176.879 662.857C225.961 713.448 303.018 739.039 405.885 739.039C411.37 739.039 416.63 741.217 420.509 745.094C424.387 748.971 426.566 754.229 426.566 759.711C426.566 765.194 424.387 770.452 420.509 774.328C416.63 778.205 411.37 780.383 405.885 780.383C291.451 780.383 204.384 750.547 147.208 691.701C89.4673 632.332 61.8927 543.086 65.3533 426.456C65.5075 421.082 67.7505 415.979 71.6064 412.23C75.4623 408.482 80.6277 406.382 86.0066 406.377Z" fill="#EFF1F4"/>
<path d="M474.818 739.039H543.754C549.239 739.039 554.499 741.217 558.378 745.094C562.256 748.971 564.435 754.229 564.435 759.711C564.435 765.194 562.256 770.452 558.378 774.328C554.499 778.205 549.239 780.383 543.754 780.383H474.818C469.333 780.383 464.073 778.205 460.194 774.328C456.316 770.452 454.137 765.194 454.137 759.711C454.137 754.229 456.316 748.971 460.194 745.094C464.073 741.217 469.333 739.039 474.818 739.039Z" fill="#EFF1F4"/>
<path d="M605.803 739.039H767.115C772.599 739.039 777.86 741.217 781.738 745.094C785.617 748.971 787.795 754.229 787.795 759.711C787.795 765.194 785.617 770.452 781.738 774.328C777.86 778.205 772.599 780.383 767.115 780.383H605.803C600.319 780.383 595.058 778.205 591.18 774.328C587.301 770.452 585.123 765.194 585.123 759.711C585.123 754.229 587.301 748.971 591.18 745.094C595.058 741.217 600.319 739.039 605.803 739.039Z" fill="#EFF1F4"/>
<path d="M25.907 364.345C30.4777 364.345 34.8612 366.16 38.0932 369.391C41.3252 372.622 43.141 377.003 43.141 381.572C43.141 492.331 52.1992 550.597 70.0674 600.058C70.8833 602.195 71.2649 604.474 71.19 606.761C71.1151 609.048 70.5851 611.297 69.631 613.377C68.6769 615.457 67.3179 617.326 65.6332 618.875C63.9485 620.424 61.9718 621.623 59.8188 622.4C57.6657 623.177 55.3794 623.518 53.0931 623.402C50.8069 623.286 48.5668 622.716 46.5033 621.725C44.4399 620.735 42.5945 619.343 41.0751 617.632C39.5557 615.92 38.3925 613.923 37.6536 611.758C18.4204 558.549 8.70044 493.75 8.70044 381.613C8.695 379.35 9.13585 377.108 9.99778 375.015C10.8597 372.922 12.1259 371.019 13.7238 369.415C15.3218 367.812 17.2202 366.539 19.3106 365.669C21.4011 364.799 23.6426 364.349 25.907 364.345Z" fill="#EFF1F4"/>
<path d="M75.0723 636.15C78.175 636.145 81.2215 636.978 83.8906 638.559C86.5597 640.141 88.7526 642.412 90.2383 645.135C110.609 683.118 139.953 715.552 175.719 739.618C208.243 761.434 247.413 777.282 292.18 786.736C296.652 787.683 300.565 790.366 303.057 794.196C305.55 798.026 306.418 802.689 305.471 807.16C304.524 811.63 301.839 815.54 298.007 818.032C294.176 820.523 289.51 821.391 285.038 820.444C181.11 798.477 105.377 745.048 59.9339 661.617C58.5069 658.991 57.7876 656.038 57.8466 653.05C57.9055 650.062 58.7407 647.14 60.2701 644.572C61.7995 642.004 63.9707 639.877 66.5706 638.4C69.1704 636.924 72.1097 636.148 75.0999 636.15H75.0723Z" fill="#EFF1F4"/>
<path d="M345.191 794.881C345.743 794.881 346.294 794.881 346.846 794.881C365.569 796.659 385.45 797.637 405.883 797.637H473.44C478.011 797.637 482.395 799.452 485.627 802.683C488.859 805.913 490.674 810.295 490.674 814.863C490.674 819.432 488.859 823.814 485.627 827.044C482.395 830.275 478.011 832.09 473.44 832.09H405.883C384.347 832.09 363.376 831.125 343.592 829.251C339.195 828.819 335.133 826.717 332.243 823.378C329.352 820.038 327.855 815.717 328.061 811.307C328.266 806.896 330.158 802.732 333.346 799.676C336.533 796.619 340.774 794.903 345.191 794.881Z" fill="#EFF1F4"/>
<path d="M532.725 797.637H715.407C719.977 797.637 724.361 799.452 727.593 802.683C730.825 805.913 732.641 810.295 732.641 814.863C732.641 819.432 730.825 823.814 727.593 827.044C724.361 830.275 719.977 832.09 715.407 832.09H532.725C528.154 832.09 523.771 830.275 520.539 827.044C517.307 823.814 515.491 819.432 515.491 814.863C515.491 810.295 517.307 805.913 520.539 802.683C523.771 799.452 528.154 797.637 532.725 797.637Z" fill="#EFF1F4"/>
<path d="M767.109 797.637H784.798C789.369 797.637 793.752 799.452 796.984 802.683C800.217 805.913 802.032 810.295 802.032 814.863C802.032 819.432 800.217 823.814 796.984 827.044C793.752 830.275 789.369 832.09 784.798 832.09H767.109C762.538 832.09 758.155 830.275 754.923 827.044C751.691 823.814 749.875 819.432 749.875 814.863C749.875 810.295 751.691 805.913 754.923 802.683C758.155 799.452 762.538 797.637 767.109 797.637Z" fill="#EFF1F4"/>
<path d="M836.047 797.637H895.332C899.903 797.637 904.287 799.452 907.519 802.683C910.751 805.913 912.566 810.295 912.566 814.863C912.566 819.432 910.751 823.814 907.519 827.044C904.287 830.275 899.903 832.09 895.332 832.09H836.047C831.476 832.09 827.093 830.275 823.861 827.044C820.629 823.814 818.813 819.432 818.813 814.863C818.813 810.295 820.629 805.913 823.861 802.683C827.093 799.452 831.476 797.637 836.047 797.637Z" fill="#EFF1F4"/>
<path d="M-32.9922 405.688C-26.5943 405.691 -20.4594 408.233 -15.9354 412.755C-11.4114 417.277 -8.86819 423.409 -8.86454 429.805C-8.86454 513.166 4.59183 586.151 31.1185 646.719C32.5018 649.638 33.2847 652.804 33.4205 656.031C33.5564 659.257 33.0427 662.478 31.9096 665.503C30.7766 668.527 29.0473 671.293 26.8246 673.637C24.6018 675.981 21.9307 677.854 18.9698 679.147C16.0089 680.439 12.8186 681.124 9.58787 681.161C6.35719 681.197 3.15203 680.585 0.162567 679.36C-2.82689 678.135 -5.5398 676.322 -7.81518 674.03C-10.0906 671.737 -11.882 669.011 -13.0834 666.013C-42.3124 599.298 -57.2027 519.809 -57.2027 429.749C-57.1954 426.58 -56.5633 423.443 -55.3423 420.518C-54.1214 417.593 -52.3356 414.937 -50.0871 412.703C-47.8386 410.468 -45.1714 408.698 -42.2381 407.494C-39.3049 406.291 -36.1631 405.677 -32.9922 405.688Z" fill="#EFF1F4"/>
<path d="M49.6234 703.112C53.4106 703.106 57.1458 703.992 60.5259 705.699C63.906 707.407 66.8358 709.887 69.0773 712.938C125.798 789.933 213.678 834.97 330.291 846.794C333.502 847.036 336.632 847.919 339.497 849.39C342.362 850.861 344.903 852.89 346.97 855.358C349.038 857.826 350.59 860.683 351.536 863.76C352.482 866.837 352.801 870.073 352.477 873.275C352.152 876.478 351.189 879.583 349.644 882.408C348.1 885.232 346.005 887.72 343.484 889.722C340.963 891.725 338.066 893.203 334.964 894.07C331.862 894.936 328.619 895.172 325.424 894.766C194.679 881.536 95.3558 829.995 30.1834 741.534C27.5419 737.941 25.9477 733.688 25.5776 729.245C25.2074 724.802 26.0758 720.344 28.0864 716.364C30.097 712.385 33.1713 709.04 36.968 706.701C40.7648 704.361 45.1357 703.119 49.5959 703.112H49.6234Z" fill="#EFF1F4"/>
<path d="M412.779 850.004H666.465C672.864 850.004 679.001 852.545 683.526 857.068C688.051 861.591 690.593 867.725 690.593 874.121C690.593 880.518 688.051 886.652 683.526 891.175C679.001 895.697 672.864 898.238 666.465 898.238H412.779C406.38 898.238 400.243 895.697 395.719 891.175C391.194 886.652 388.652 880.518 388.652 874.121C388.652 867.725 391.194 861.591 395.719 857.068C400.243 852.545 406.38 850.004 412.779 850.004Z" fill="#EFF1F4"/>
<path d="M739.537 850.004H842.941C849.34 850.004 855.477 852.545 860.002 857.068C864.527 861.591 867.069 867.725 867.069 874.121C867.069 880.518 864.527 886.652 860.002 891.175C855.477 895.697 849.34 898.238 842.941 898.238H739.537C733.138 898.238 727.001 895.697 722.476 891.175C717.951 886.652 715.409 880.518 715.409 874.121C715.409 867.725 717.951 861.591 722.476 857.068C727.001 852.545 733.138 850.004 739.537 850.004Z" fill="#EFF1F4"/>
<path d="M913.255 850.004H957.374C963.773 850.004 969.91 852.545 974.435 857.068C978.96 861.591 981.502 867.725 981.502 874.121C981.502 880.518 978.96 886.652 974.435 891.175C969.91 895.697 963.773 898.238 957.374 898.238H913.255C906.856 898.238 900.719 895.697 896.194 891.175C891.669 886.652 889.127 880.518 889.127 874.121C889.127 867.725 891.669 861.591 896.194 857.068C900.719 852.545 906.856 850.004 913.255 850.004Z" fill="#EFF1F4"/>
<path d="M8.99141 753.317C11.1225 753.304 13.2276 753.785 15.1414 754.723C17.0552 755.66 18.7255 757.028 20.0212 758.719C61.383 812.838 117.235 853.423 185.979 879.469C189.322 880.817 192.005 883.421 193.451 886.722C194.897 890.023 194.992 893.759 193.716 897.13C192.439 900.5 189.892 903.237 186.621 904.753C183.351 906.269 179.616 906.444 176.217 905.24C102.593 877.402 42.6599 833.73 -1.95569 775.477C-3.51964 773.436 -4.48106 770.998 -4.73131 768.439C-4.98155 765.88 -4.51065 763.302 -3.37178 760.997C-2.23289 758.691 -0.471497 756.75 1.71329 755.393C3.89807 754.036 6.41911 753.317 8.99141 753.317Z" fill="#EFF1F4"/>
<path d="M228.071 893.664C229.286 893.669 230.495 893.831 231.669 894.146C284.226 908.272 344.228 915.438 410.021 915.438C456.512 915.438 503.706 915.355 543.758 915.272C547.414 915.272 550.921 916.724 553.507 919.309C556.092 921.893 557.545 925.399 557.545 929.054C557.545 932.708 556.092 936.214 553.507 938.798C550.921 941.383 547.414 942.835 543.758 942.835C503.775 942.917 456.512 943 410.021 943C341.774 943 279.401 935.517 224.5 920.757C221.268 919.893 218.46 917.883 216.601 915.102C214.742 912.322 213.958 908.96 214.395 905.645C214.832 902.329 216.46 899.285 218.977 897.081C221.493 894.877 224.725 893.662 228.071 893.664Z" fill="#EFF1F4"/>
<path d="M654.922 915.038C658.579 915.038 662.086 916.49 664.671 919.075C667.257 921.659 668.709 925.164 668.709 928.819C668.709 932.474 667.257 935.98 664.671 938.564C662.086 941.148 658.579 942.6 654.922 942.6L620.744 942.683L591.046 942.752C587.389 942.752 583.882 941.3 581.297 938.716C578.711 936.131 577.258 932.626 577.258 928.971C577.258 925.316 578.711 921.811 581.297 919.226C583.882 916.642 587.389 915.19 591.046 915.19L620.73 915.121L654.95 915.038H654.922Z" fill="#EFF1F4"/>
<path d="M875.338 914.776C878.994 914.776 882.501 916.228 885.087 918.813C887.672 921.397 889.125 924.902 889.125 928.557C889.125 932.212 887.672 935.718 885.087 938.302C882.501 940.887 878.994 942.339 875.338 942.339C820.423 942.339 765.04 942.339 701.039 942.504C697.382 942.504 693.876 941.052 691.29 938.468C688.704 935.883 687.252 932.378 687.252 928.723C687.252 925.068 688.704 921.563 691.29 918.978C693.876 916.394 697.382 914.942 701.039 914.942C765.04 914.818 820.409 914.776 875.338 914.776Z" fill="#EFF1F4"/>
<path d="M25.5047 135.936C30.0754 135.936 34.459 137.751 37.6911 140.982C40.9231 144.212 42.7388 148.594 42.7388 153.162V328.706C42.7388 333.275 40.9231 337.657 37.6911 340.887C34.459 344.118 30.0754 345.933 25.5047 345.933C20.9339 345.933 16.5504 344.118 13.3183 340.887C10.0863 337.657 8.27055 333.275 8.27055 328.706V153.162C8.27055 148.594 10.0863 144.212 13.3183 140.982C16.5504 137.751 20.9339 135.936 25.5047 135.936Z" fill="#EFF1F4"/>
<path d="M25.5047 58.6253C30.0754 58.6253 34.459 60.4402 37.6911 63.6708C40.9231 66.9013 42.7388 71.2829 42.7388 75.8516V97.8186C42.7388 102.387 40.9231 106.769 37.6911 109.999C34.459 113.23 30.0754 115.045 25.5047 115.045C20.9339 115.045 16.5504 113.23 13.3183 109.999C10.0863 106.769 8.27055 102.387 8.27055 97.8186V75.8516C8.27055 71.2829 10.0863 66.9013 13.3183 63.6708C16.5504 60.4402 20.9339 58.6253 25.5047 58.6253Z" fill="#EFF1F4"/>
</g>
</svg>
