<?xml version="1.0" encoding="utf-8"?><svg xmlns="http://www.w3.org/2000/svg" xmlns:xlink="http://www.w3.org/1999/xlink"><symbol fill="none" viewBox="0 0 200 22" id="logo" xmlns="http://www.w3.org/2000/svg"><path d="M5.912 14.726a1.18 1.18 0 001.17-1.188 1.18 1.18 0 00-1.17-1.188 1.18 1.18 0 00-1.17 1.188 1.18 1.18 0 001.17 1.188zM10.911 7.706c.97 0 1.756-.798 1.756-1.782s-.786-1.782-1.756-1.782c-.969 0-1.755.798-1.755 1.782s.786 1.782 1.755 1.782zM15.908 10.244c.969 0 1.755-.798 1.755-1.782s-.786-1.782-1.755-1.782c-.97 0-1.756.798-1.756 1.782s.786 1.782 1.756 1.782zM20.857 12.782c.97 0 1.755-.798 1.755-1.782s-.786-1.782-1.755-1.782c-.97 0-1.755.798-1.755 1.782s.785 1.782 1.755 1.782zM15.908 15.32c.969 0 1.755-.798 1.755-1.782s-.786-1.782-1.755-1.782c-.97 0-1.756.798-1.756 1.782s.786 1.782 1.756 1.782zM25.86 15.32c.97 0 1.756-.798 1.756-1.782s-.786-1.782-1.755-1.782c-.97 0-1.756.798-1.756 1.782s.786 1.782 1.756 1.782zM25.858 19.748a1.18 1.18 0 001.17-1.188 1.18 1.18 0 00-1.17-1.188 1.18 1.18 0 00-1.17 1.188 1.18 1.18 0 001.17 1.188zM30.854 17.264a1.18 1.18 0 001.17-1.188 1.18 1.18 0 00-1.17-1.188 1.18 1.18 0 00-1.17 1.188 1.18 1.18 0 001.17 1.188zM30.857 12.782c.97 0 1.755-.798 1.755-1.782s-.786-1.782-1.755-1.782c-.97 0-1.755.798-1.755 1.782s.785 1.782 1.755 1.782zM25.86 10.244c.97 0 1.756-.798 1.756-1.782S26.83 6.68 25.86 6.68c-.97 0-1.756.798-1.756 1.782s.786 1.782 1.756 1.782zM20.858 17.264a1.18 1.18 0 001.17-1.188 1.18 1.18 0 00-1.17-1.188 1.18 1.18 0 00-1.17 1.188 1.18 1.18 0 001.17 1.188zM30.857 7.706c.97 0 1.755-.798 1.755-1.782s-.786-1.782-1.755-1.782c-.97 0-1.755.798-1.755 1.782s.785 1.782 1.755 1.782zM35.803 4.628a1.18 1.18 0 001.17-1.188 1.18 1.18 0 00-1.17-1.188 1.18 1.18 0 00-1.17 1.188 1.18 1.18 0 001.17 1.188zM35.803 14.726a1.18 1.18 0 001.17-1.188 1.18 1.18 0 00-1.17-1.188 1.18 1.18 0 00-1.17 1.188 1.18 1.18 0 001.17 1.188zM20.858 7.112a1.18 1.18 0 001.17-1.188 1.18 1.18 0 00-1.17-1.188 1.18 1.18 0 00-1.17 1.188 1.18 1.18 0 001.17 1.188zM15.916 19.748a1.18 1.18 0 001.17-1.188 1.18 1.18 0 00-1.17-1.188 1.18 1.18 0 00-1.17 1.188 1.18 1.18 0 001.17 1.188zM10.911 12.782c.97 0 1.756-.798 1.756-1.782s-.786-1.782-1.756-1.782c-.969 0-1.755.798-1.755 1.782s.786 1.782 1.755 1.782z" fill="#21222E"/><path d="M5.911 10.244c.97 0 1.756-.798 1.756-1.782S6.88 6.68 5.91 6.68c-.969 0-1.755.798-1.755 1.782s.786 1.782 1.755 1.782z" fill="#EC0B43"/><path d="M.965 16.778a.697.697 0 00.691-.702.697.697 0 00-.691-.702.697.697 0 00-.692.702c0 .388.31.702.692.702zM.965 11.702A.697.697 0 001.656 11a.697.697 0 00-.691-.702.697.697 0 00-.692.702c0 .388.31.702.692.702zM10.91 16.724a.697.697 0 00.692-.702.697.697 0 00-.692-.702.697.697 0 00-.691.702c0 .388.31.702.691.702zM10.91 1.604a.697.697 0 00.692-.702A.697.697 0 0010.91.2a.697.697 0 00-.691.702c0 .388.31.702.691.702zM20.86 21.8a.697.697 0 00.69-.702.697.697 0 00-.69-.702.697.697 0 00-.692.702c0 .388.31.702.691.702zM5.91 4.142a.697.697 0 00.692-.702.697.697 0 00-.692-.702.697.697 0 00-.691.702c0 .388.31.702.691.702zM15.91 4.142a.697.697 0 00.692-.702.697.697 0 00-.692-.702.697.697 0 00-.691.702c0 .388.31.702.691.702z" fill="#21222E"/><path d="M20.86 21.8a.697.697 0 00.69-.702.697.697 0 00-.69-.702.697.697 0 00-.692.702c0 .388.31.702.691.702zM45.75 9.164a.697.697 0 00.691-.702.697.697 0 00-.691-.702.697.697 0 00-.691.702c0 .388.31.702.691.702zM35.805 19.262a.697.697 0 00.691-.702.697.697 0 00-.691-.702.697.697 0 00-.692.702c0 .388.31.702.692.702zM40.802 7.706c.97 0 1.755-.798 1.755-1.782s-.786-1.782-1.755-1.782c-.97 0-1.755.798-1.755 1.782s.786 1.782 1.755 1.782zM35.802 10.244c.97 0 1.755-.798 1.755-1.782s-.786-1.782-1.755-1.782c-.97 0-1.755.798-1.755 1.782s.786 1.782 1.755 1.782zM40.8 16.778a.697.697 0 00.692-.702.697.697 0 00-.691-.702.697.697 0 00-.692.702c0 .388.31.702.692.702zM40.807 12.188A1.18 1.18 0 0041.977 11a1.18 1.18 0 00-1.17-1.188A1.18 1.18 0 0039.637 11a1.18 1.18 0 001.17 1.188zM25.855 4.142a.697.697 0 00.692-.702.697.697 0 00-.692-.702.697.697 0 00-.69.702c0 .388.309.702.69.702zM40.8 1.604a.697.697 0 00.692-.702.697.697 0 00-.691-.702.697.697 0 00-.692.702c0 .388.31.702.692.702zM45.75 4.142a.697.697 0 00.691-.702.697.697 0 00-.691-.702.697.697 0 00-.691.702c0 .388.31.702.691.702z" fill="#21222E"/><path d="M60.374 7.382c.16-.378.212-.702.106-.918 0-.162-.213-.27-.425-.378-.532-.216-.958 0-1.224.702l-1.861 4.698-2.66-4.86c-.16-.27-.319-.54-.531-.54a.896.896 0 00-.745 0c-.16.162-.32.378-.32.648s0 .54.214.81l3.19 5.724c-.106.378-.265.702-.425.864a.678.678 0 01-.532.216h-.266c-.106 0-.212 0-.319-.108l-.319-.108c-.532-.162-.797 0-.957.432-.213.54 0 .864.532 1.188.319.162.798.27 1.33.27.69 0 1.223-.27 1.595-.756.532-.378.904-1.188 1.33-2.16l2.393-5.778-.106.054zm2.66 8.64c.265 0 .53-.108.637-.324a.9.9 0 00.266-.648v-3.348H68.3v3.348c0 .27 0 .54.16.648.159.216.371.27.69.27.266 0 .532 0 .639-.27a.9.9 0 00.266-.648v-8.1c0-.27-.107-.54-.266-.648-.16-.216-.373-.27-.638-.27-.32 0-.532 0-.692.27-.16.162-.213.378-.213.648v3.132h-4.414V6.95c0-.27-.107-.54-.266-.648-.16-.216-.372-.27-.638-.27s-.532 0-.692.27a1.17 1.17 0 00-.212.648v8.1c0 .27.106.54.212.648.16.216.426.27.692.27l.106.054zm10.477 0c.266 0 .532-.216.85-.54l4.469-6.21v5.778c0 .27 0 .54.212.648.213.216.426.27.745.27.266 0 .532 0 .638-.27.16-.162.213-.378.213-.648v-8.1c0-.54-.266-.918-.851-.918-.32 0-.532.162-.851.54l-4.415 6.21V6.95c0-.27-.106-.54-.266-.648-.16-.216-.372-.27-.638-.27-.319 0-.532 0-.691.27-.16.162-.213.378-.213.648v8.1c0 .27.107.54.266.702.16.162.372.216.638.216l-.106.054zm15.211-5.4c.32-.162.532-.432.798-.756.266-.54.372-.864.372-1.35 0-1.728-1.223-2.7-3.616-2.7-.851 0-1.596.108-2.234.27-.532 0-.851.432-.851.972v7.83c0 .54.213.864.745.972.69.162 1.489.216 2.393.216 2.66 0 3.936-1.08 3.936-3.078 0-.54-.16-1.08-.532-1.512-.266-.432-.638-.702-1.064-.918l.053.054zm-2.446-.432H84.84v-2.7h1.276c1.33 0 1.915.432 1.915 1.296 0 .864-.532 1.35-1.755 1.35v.054zm1.755 4.05c-.372.162-.904.27-1.596.27H84.84v-2.97h1.595c1.383 0 2.128.54 2.128 1.512 0 .54-.213.918-.532 1.08v.108zm10.903 1.512a.699.699 0 00.213-.54c0-.324-.107-.54-.266-.648-.16-.162-.372-.216-.638-.216h-3.99v-2.7h3.086c.266 0 .531 0 .638-.216.16-.108.213-.324.213-.54 0-.27 0-.54-.213-.648a1.13 1.13 0 00-.638-.216h-3.085V7.652h3.83c.265 0 .531 0 .637-.216.16-.162.266-.324.266-.54 0-.324-.106-.54-.266-.648-.16-.162-.372-.216-.638-.216h-4.787c-.212 0-.532 0-.638.27-.16.162-.213.378-.213.648v8.1c0 .27 0 .54.266.648.107.216.32.27.532.27h4.947c.266 0 .531 0 .638-.216h.106zm8.776-6.588c0-1.08-.319-1.944-1.064-2.43-.532-.54-1.595-.756-2.659-.756-.851 0-1.596.108-2.234.216-.532.108-.798.432-.798 1.08v7.83c0 .27 0 .54.213.648.16.216.372.27.691.27.266 0 .532 0 .639-.27a.903.903 0 00.266-.648v-2.538h1.17c1.063 0 1.968-.216 2.659-.81.692-.54 1.064-1.404 1.064-2.538l.053-.054zm-4.946-1.512l1.063-.108c1.383 0 2.021.54 2.021 1.62 0 1.242-.691 1.782-2.021 1.782-.532 0-.797 0-1.063-.108v-3.24.054zm12.924 6.21c-.691.432-1.383.54-2.021.54-.798 0-1.436-.216-1.968-.864-.532-.54-.798-1.458-.798-2.538 0-1.08.266-1.89.745-2.538.798-1.08 2.127-1.242 3.829-.54.532.216.958.108 1.064-.27.266-.432.16-.81-.319-1.08-.532-.54-1.489-.702-2.659-.702-1.383 0-2.5.54-3.298 1.404-.798.972-1.223 2.16-1.223 3.78 0 1.62.372 2.808 1.063 3.78.851.864 1.968 1.35 3.458 1.35 1.17 0 2.127-.27 2.872-.864a1.65 1.65 0 00.532-.702c0-.216 0-.432-.16-.648-.213-.324-.532-.378-1.064-.108h-.053zm10.265-7.83c-.319 0-.532.162-.851.54l-4.414 6.21V6.95c0-.27-.107-.54-.266-.648-.213-.216-.426-.27-.692-.27-.319 0-.532 0-.691.27-.16.162-.213.378-.213.648v8.1c0 .27 0 .54.213.702.159.162.372.216.638.216s.532-.162.851-.54l4.468-6.156v5.778c0 .27 0 .54.212.648.16.216.373.27.692.27.266 0 .532 0 .638-.27.16-.162.213-.378.213-.648v-8.1c0-.54-.319-.918-.904-.918h.106zm10.85.81c0-.27-.106-.54-.266-.54-.159-.216-.372-.27-.638-.27h-6.648c-.266 0-.532 0-.639.216-.159.108-.212.324-.212.54 0 .27 0 .54.159.648.16.162.373.216.638.216h2.447v7.398c0 .27.106.54.266.648.16.216.372.27.691.27.266 0 .532 0 .639-.27a.903.903 0 00.266-.648V7.652h2.393c.266 0 .532 0 .638-.216.16-.162.266-.378.266-.54v-.054zm7.446 7.56h-4.095v-2.7h3.085c.266 0 .532-.108.638-.27a.667.667 0 00.266-.54c0-.27-.106-.54-.266-.648a1.13 1.13 0 00-.638-.216h-3.085V7.652h3.883c.266 0 .531 0 .638-.216a.701.701 0 00.213-.54c0-.324-.107-.54-.266-.648-.16-.162-.373-.216-.639-.216h-4.786c-.266 0-.532 0-.639.27a1.172 1.172 0 00-.212.648v8.1c0 .27.106.54.266.648.212.216.425.27.744.27h4.893c.213 0 .426 0 .532-.216.213-.162.319-.324.319-.54 0-.324-.106-.54-.266-.648a.754.754 0 00-.531-.216l-.054.054zm9.84-7.56c0-.27-.106-.54-.213-.54-.159-.216-.372-.27-.638-.27h-6.702c-.266 0-.425 0-.531.216a.596.596 0 00-.32.54c0 .27.107.54.266.648 0 .162.266.216.532.216h2.447v7.398c0 .27 0 .54.213.648.159.216.425.27.691.27.266 0 .532 0 .638-.27a.9.9 0 00.266-.648V7.652h2.447c.266 0 .532 0 .638-.216.106-.162.213-.378.213-.54l.053-.054zm13.456 8.208v-8.1c0-.54-.266-.918-.851-.918-.372 0-.691.162-.904.54l-4.361 6.156V6.95c0-.27-.107-.54-.266-.648-.16-.216-.373-.27-.692-.27-.266 0-.532 0-.638.27-.159.162-.213.378-.213.648v8.1c0 .27 0 .54.213.702.16.162.372.216.638.216s.532-.162.798-.54l4.415-6.048v5.778c0 .27.159.54.319.648.159.216.372.27.691.27.213 0 .426 0 .532-.27.213-.162.266-.378.266-.648l.053-.108zm9.042-9.018h-6.595c-.213 0-.426 0-.532.216-.213.108-.266.324-.266.54 0 .27 0 .54.213.648.106.162.319.216.532.216h2.499v7.398c0 .27 0 .54.213.648.213.216.426.27.745.27.266 0 .532 0 .638-.27a.9.9 0 00.266-.648V7.652h2.446c.266 0 .532 0 .639-.216.159-.162.266-.378.266-.54 0-.324-.107-.54-.266-.648-.16-.162-.373-.216-.639-.216h-.159zm10.637 0c-.372 0-.638.162-.904.54l-2.766 4.536-2.819-4.482c-.212-.54-.531-.648-.904-.648-.266 0-.532 0-.638.216a1.369 1.369 0 00-.213.702v8.1c0 .54.266.918.851.918.532 0 .851-.324.851-.918V9.488l1.968 3.24c.16.27.426.432.798.432.319 0 .532-.162.798-.54l1.968-3.24v5.67c0 .27 0 .54.212.648.213.216.426.27.745.27.266 0 .532 0 .638-.27a.9.9 0 00.266-.648v-8.1c0-.27 0-.54-.159-.648-.16-.216-.373-.27-.639-.27h-.053zm11.17 1.296c-.905-.972-2.128-1.458-3.511-1.458s-2.659.54-3.51 1.458c-.851.972-1.223 2.16-1.223 3.672s.425 2.7 1.276 3.672c.798.972 1.968 1.458 3.457 1.458 1.383 0 2.553-.54 3.404-1.458.798-.918 1.223-2.16 1.223-3.672 0-1.458-.425-2.7-1.223-3.672h.107zm-1.49 6.21c-.532.54-1.17.918-2.021.918-.957 0-1.595-.324-2.127-.918-.532-.648-.745-1.512-.745-2.538 0-1.026.266-1.89.745-2.538.532-.54 1.17-.918 2.127-.918.798 0 1.489.324 1.968.918.532.648.745 1.512.745 2.538 0 1.08-.16 1.89-.692 2.538z" fill="currentColor"/></symbol></svg>