<?xml version="1.0" encoding="utf-8"?><svg xmlns="http://www.w3.org/2000/svg" xmlns:xlink="http://www.w3.org/1999/xlink"><symbol viewBox="0 0 982 943" id="bg-layer-left" xmlns="http://www.w3.org/2000/svg"><g><path d="M86.007 406.377h.62a20.672 20.672 0 0120.06 21.209c-3.06 105.04 20.557 184.199 70.192 235.271 49.082 50.591 126.139 76.182 229.006 76.182a20.686 20.686 0 0114.624 6.055 20.67 20.67 0 010 29.234 20.686 20.686 0 01-14.624 6.055c-114.434 0-201.501-29.836-258.677-88.682-57.74-59.369-85.315-148.615-81.855-265.245a20.669 20.669 0 016.253-14.226 20.689 20.689 0 0114.4-5.853zM474.818 739.039h68.936a20.686 20.686 0 0114.624 6.055 20.67 20.67 0 010 29.234 20.686 20.686 0 01-14.624 6.055h-68.936a20.686 20.686 0 01-14.624-6.055 20.666 20.666 0 010-29.234 20.686 20.686 0 0114.624-6.055zM605.803 739.039h161.312a20.684 20.684 0 0114.623 6.055 20.665 20.665 0 010 29.234 20.684 20.684 0 01-14.623 6.055H605.803a20.684 20.684 0 01-14.623-6.055 20.662 20.662 0 010-29.234 20.684 20.684 0 0114.623-6.055zM25.907 364.345c4.57 0 8.954 1.815 12.186 5.046a17.223 17.223 0 015.048 12.181c0 110.759 9.058 169.025 26.926 218.486a17.214 17.214 0 01-.436 13.319 17.224 17.224 0 01-9.812 9.023 17.24 17.24 0 01-22.165-10.642C18.42 558.549 8.7 493.75 8.7 381.613a17.218 17.218 0 015.024-12.198 17.245 17.245 0 0112.183-5.07z"/><path d="M75.072 636.15a17.25 17.25 0 0115.166 8.985 264.637 264.637 0 0085.481 94.483c32.524 21.816 71.694 37.664 116.461 47.118a17.236 17.236 0 0110.877 7.46 17.221 17.221 0 01-5.05 23.836 17.241 17.241 0 01-12.969 2.412C181.11 798.477 105.377 745.048 59.934 661.617a17.232 17.232 0 01.336-17.045 17.251 17.251 0 0114.83-8.422h-.028zM345.191 794.881h1.655c18.723 1.778 38.604 2.756 59.037 2.756h67.557c4.571 0 8.955 1.815 12.187 5.046a17.22 17.22 0 010 24.361 17.238 17.238 0 01-12.187 5.046h-67.557c-21.536 0-42.507-.965-62.291-2.839a17.237 17.237 0 01-11.349-5.873 17.217 17.217 0 011.103-23.702 17.236 17.236 0 0111.845-4.795zM532.725 797.637h182.682c4.57 0 8.954 1.815 12.186 5.046a17.221 17.221 0 010 24.361 17.237 17.237 0 01-12.186 5.046H532.725a17.235 17.235 0 01-17.234-17.227 17.235 17.235 0 0117.234-17.226zM767.109 797.637h17.689a17.235 17.235 0 0117.234 17.226 17.235 17.235 0 01-17.234 17.227h-17.689a17.235 17.235 0 01-17.234-17.227 17.235 17.235 0 0117.234-17.226zM836.047 797.637h59.285c4.571 0 8.955 1.815 12.187 5.046a17.22 17.22 0 010 24.361 17.238 17.238 0 01-12.187 5.046h-59.285a17.235 17.235 0 01-17.234-17.227 17.235 17.235 0 0117.234-17.226zM-32.992 405.688a24.144 24.144 0 0117.057 7.067 24.126 24.126 0 017.07 17.05c0 83.361 13.457 156.346 39.984 216.914a24.11 24.11 0 01-12.15 32.428 24.148 24.148 0 01-26.785-5.117 24.118 24.118 0 01-5.267-8.017c-29.23-66.715-44.12-146.204-44.12-236.264a24.108 24.108 0 017.116-17.046 24.131 24.131 0 0117.095-7.015z"/><path d="M49.623 703.112a24.095 24.095 0 0119.454 9.826c56.721 76.995 144.601 122.032 261.214 133.856a24.125 24.125 0 0122.186 26.481 24.103 24.103 0 01-8.993 16.447 24.142 24.142 0 01-18.06 5.044c-130.745-13.23-230.068-64.771-295.24-153.232a24.127 24.127 0 0119.412-38.422h.027zM412.779 850.004h253.686a24.133 24.133 0 0117.061 7.064 24.111 24.111 0 010 34.107 24.137 24.137 0 01-17.061 7.063H412.779a24.133 24.133 0 01-17.06-7.063 24.112 24.112 0 010-34.107 24.13 24.13 0 0117.06-7.064zM739.537 850.004h103.404a24.133 24.133 0 0117.061 7.064 24.111 24.111 0 010 34.107 24.137 24.137 0 01-17.061 7.063H739.537a24.137 24.137 0 01-17.061-7.063 24.112 24.112 0 010-34.107 24.133 24.133 0 0117.061-7.064zM913.255 850.004h44.119a24.133 24.133 0 0117.061 7.064 24.111 24.111 0 010 34.107 24.137 24.137 0 01-17.061 7.063h-44.119a24.137 24.137 0 01-17.061-7.063 24.112 24.112 0 010-34.107 24.133 24.133 0 0117.061-7.064z"/><path d="M8.991 753.317a13.782 13.782 0 0111.03 5.402c41.362 54.119 97.214 94.704 165.958 120.75a13.78 13.78 0 01.642 25.284 13.79 13.79 0 01-10.404.487C102.593 877.402 42.66 833.73-1.956 775.477a13.776 13.776 0 013.67-20.084 13.794 13.794 0 017.277-2.076zM228.071 893.664c1.215.005 2.424.167 3.598.482 52.557 14.126 112.559 21.292 178.352 21.292 46.491 0 93.685-.083 133.737-.166a13.79 13.79 0 019.749 4.037 13.78 13.78 0 01-9.749 23.526c-39.983.082-87.246.165-133.737.165-68.247 0-130.62-7.483-185.521-22.243a13.783 13.783 0 01-10.105-15.112 13.79 13.79 0 0113.676-11.981zM654.922 915.038a13.787 13.787 0 0113.787 13.781c0 3.655-1.452 7.161-4.038 9.745a13.79 13.79 0 01-9.749 4.036l-34.178.083-29.698.069a13.79 13.79 0 01-9.749-4.036 13.779 13.779 0 019.749-23.526l29.684-.069 34.22-.083h-.028zM875.338 914.776a13.79 13.79 0 019.749 4.037 13.778 13.778 0 010 19.489 13.79 13.79 0 01-9.749 4.037c-54.915 0-110.298 0-174.299.165a13.792 13.792 0 01-9.749-4.036 13.778 13.778 0 010-19.49 13.792 13.792 0 019.749-4.036c64.001-.124 119.37-.166 174.299-.166zM25.505 135.936c4.57 0 8.954 1.815 12.186 5.046a17.22 17.22 0 015.048 12.18v175.544c0 4.569-1.816 8.951-5.048 12.181a17.237 17.237 0 01-29.42-12.181V153.162a17.22 17.22 0 015.047-12.18 17.237 17.237 0 0112.187-5.046zM25.505 58.625c4.57 0 8.954 1.815 12.186 5.046a17.222 17.222 0 015.048 12.18V97.82a17.22 17.22 0 01-5.048 12.18 17.237 17.237 0 01-29.42-12.18V75.852c0-4.57 1.815-8.95 5.047-12.181a17.238 17.238 0 0112.187-5.046z"/></g></symbol><symbol viewBox="0 0 1061 924" id="bg-layer-right" xmlns="http://www.w3.org/2000/svg"><g><path d="M876.515 525.249h-.607a20.247 20.247 0 01-14.11-6.324 20.232 20.232 0 01-5.526-14.435c2.996-102.814-20.121-180.294-68.703-230.285-48.042-49.518-123.466-74.567-224.153-74.567a20.248 20.248 0 01-14.313-5.926 20.231 20.231 0 0114.313-34.541c112.009 0 197.23 29.204 253.194 86.802 56.518 58.11 83.508 145.465 80.12 259.623a20.23 20.23 0 01-6.12 13.924 20.244 20.244 0 01-14.095 5.729zM495.944 199.637h-67.475a20.25 20.25 0 01-14.314-5.926 20.23 20.23 0 010-28.615 20.25 20.25 0 0114.314-5.926h67.475a20.249 20.249 0 0114.314 5.926 20.23 20.23 0 01-14.314 34.541zM367.736 199.638H209.844a20.249 20.249 0 01-14.314-5.926 20.231 20.231 0 0114.314-34.541h157.892a20.248 20.248 0 0114.313 5.926 20.226 20.226 0 010 28.615 20.248 20.248 0 01-14.313 5.926zM935.34 566.39a16.874 16.874 0 01-11.928-4.939 16.86 16.86 0 01-4.941-11.922c0-108.412-8.866-165.443-26.355-213.855a16.855 16.855 0 0110.031-21.869 16.874 16.874 0 0121.695 10.416c18.826 52.082 28.34 115.507 28.34 225.267a16.859 16.859 0 01-10.385 15.607 16.9 16.9 0 01-6.457 1.295z"/><path d="M887.218 300.346a16.883 16.883 0 01-14.845-8.795 259.036 259.036 0 00-83.669-92.48c-31.835-21.353-70.174-36.866-113.993-46.119a16.87 16.87 0 01-10.646-7.302 16.857 16.857 0 014.943-23.331 16.876 16.876 0 0112.694-2.361c101.725 21.501 175.853 73.798 220.333 155.461a16.874 16.874 0 01-14.844 24.927h.027zM622.823 144.98h-1.619c-18.326-1.74-37.786-2.698-57.786-2.698h-66.125a16.871 16.871 0 01-11.928-4.938 16.858 16.858 0 010-23.846 16.871 16.871 0 0111.928-4.938h66.125c21.08 0 41.606.944 60.971 2.778a16.873 16.873 0 0111.108 5.749 16.857 16.857 0 01-1.079 23.2 16.87 16.87 0 01-11.595 4.693zM439.265 142.282h-178.81a16.862 16.862 0 01-16.869-16.861 16.86 16.86 0 014.941-11.923 16.873 16.873 0 0111.928-4.938h178.81a16.86 16.86 0 110 33.722zM209.848 142.282h-17.314a16.86 16.86 0 110-33.722h17.314a16.86 16.86 0 110 33.722zM142.372 142.282H84.343a16.872 16.872 0 01-11.928-4.938 16.86 16.86 0 0111.928-28.784h58.029c4.474 0 8.765 1.776 11.928 4.938a16.856 16.856 0 010 23.846 16.871 16.871 0 01-11.928 4.938zM992.992 525.924a23.637 23.637 0 01-16.695-6.918 23.607 23.607 0 01-6.921-16.688c0-81.595-13.172-153.033-39.136-212.317a23.599 23.599 0 0111.891-31.74 23.625 23.625 0 0126.217 5.008 23.597 23.597 0 015.157 7.847c28.605 65.301 43.185 143.105 43.185 231.256a23.749 23.749 0 01-1.82 9.036 23.564 23.564 0 01-5.15 7.65 23.61 23.61 0 01-16.728 6.866z"/><path d="M912.127 234.803a23.582 23.582 0 01-19.042-9.617c-55.518-75.363-141.536-119.446-255.677-131.02a23.628 23.628 0 01-16.326-8.382 23.608 23.608 0 01-2.617-26.476 23.61 23.61 0 0114.369-11.415 23.626 23.626 0 019.338-.681C770.145 60.16 867.364 110.61 931.155 197.196a23.613 23.613 0 01-6.641 34.094 23.634 23.634 0 01-12.36 3.513h-.027zM556.668 91.024H308.359a23.622 23.622 0 01-16.699-6.914 23.6 23.6 0 010-33.383 23.622 23.622 0 0116.699-6.914h248.309a23.618 23.618 0 0116.699 6.913 23.6 23.6 0 016.918 16.692c0 6.26-2.489 12.265-6.918 16.692a23.619 23.619 0 01-16.699 6.914zM236.836 91.024H135.624a23.623 23.623 0 01-16.7-6.914 23.6 23.6 0 010-33.383 23.622 23.622 0 0116.7-6.914h101.212a23.622 23.622 0 0116.7 6.913 23.6 23.6 0 010 33.384 23.623 23.623 0 01-16.7 6.914zM66.8 91.024H23.616A23.622 23.622 0 016.917 84.11a23.6 23.6 0 010-33.383 23.622 23.622 0 0116.7-6.914H66.8c6.264 0 12.27 2.486 16.7 6.913a23.6 23.6 0 010 33.384 23.622 23.622 0 01-16.7 6.914zM1046.43 523.9a13.488 13.488 0 01-13.49-13.489c0-48.736-3.81-94.558-11.32-136.239a13.43 13.43 0 012.29-9.968 13.489 13.489 0 0118.63-3.361 13.463 13.463 0 015.63 8.54c7.8 43.165 11.76 90.633 11.76 140.974.01 1.776-.34 3.536-1.01 5.179a13.629 13.629 0 01-2.92 4.394 13.593 13.593 0 01-4.39 2.938c-1.64.681-3.4 1.032-5.18 1.032zM1025.79 343.444c-3 .001-5.91-.996-8.28-2.833a13.456 13.456 0 01-4.8-7.311 503.675 503.675 0 00-14.845-48.129 13.481 13.481 0 013.315-14.872 13.488 13.488 0 0115.07-2.296c1.63.783 3.08 1.885 4.27 3.24 1.2 1.355 2.1 2.935 2.68 4.648 5.92 16.187 11.2 33.21 15.69 50.705.44 1.717.54 3.503.29 5.257a13.532 13.532 0 01-1.75 4.966 13.5 13.5 0 01-8.27 6.193c-1.1.291-2.23.436-3.37.432zM993.006 252.704a13.493 13.493 0 01-12.145-7.608c-4.508-9.281-9.366-18.399-14.454-27.086a13.489 13.489 0 0115.067-19.719 13.496 13.496 0 018.226 6.095c5.398 9.294 10.63 19.033 15.44 28.934 1 2.057 1.46 4.334 1.34 6.618a13.622 13.622 0 01-2.04 6.437 13.514 13.514 0 01-11.447 6.329h.013z"/><path d="M951.898 185.663a13.492 13.492 0 01-10.796-5.288c-40.485-52.971-95.153-92.696-162.44-118.19a13.489 13.489 0 01-.629-24.747 13.501 13.501 0 0110.184-.478c72.063 27.248 130.726 69.995 174.396 127.013a13.483 13.483 0 01-3.591 19.658 13.505 13.505 0 01-7.124 2.032zM737.463 48.29a13.831 13.831 0 01-3.523-.471c-51.443-13.827-110.173-20.841-174.571-20.841-45.506 0-91.699.081-130.902.162a13.5 13.5 0 01-9.543-3.95 13.485 13.485 0 010-19.077 13.5 13.5 0 019.543-3.951C467.602.08 513.863 0 559.369 0c66.8 0 127.852 7.325 181.589 21.771a13.498 13.498 0 017.731 5.535 13.481 13.481 0 01-2.325 17.64 13.498 13.498 0 01-8.901 3.345zM319.657 27.37a13.498 13.498 0 01-9.542-3.951 13.485 13.485 0 010-19.077 13.498 13.498 0 019.542-3.95L353.111.31 382.18.243c3.579 0 7.011 1.421 9.542 3.951a13.486 13.486 0 010 19.076 13.498 13.498 0 01-9.542 3.951l-29.055.068-33.495.08h.027zM103.913 27.625a13.497 13.497 0 01-9.542-3.95 13.486 13.486 0 010-19.077 13.497 13.497 0 019.542-3.95c53.751 0 107.961 0 170.605-.163 3.579 0 7.011 1.422 9.542 3.951a13.486 13.486 0 010 19.077 13.498 13.498 0 01-9.542 3.95c-62.644.122-116.84.162-170.605.162zM993.233 658.75a23.622 23.622 0 01-16.699-6.914 23.6 23.6 0 01-6.917-16.692v-67.567a23.6 23.6 0 016.917-16.691 23.622 23.622 0 0133.396 0 23.598 23.598 0 016.92 16.691v67.567c0 6.259-2.49 12.262-6.92 16.688a23.644 23.644 0 01-16.697 6.918zM935.735 789.958a16.872 16.872 0 01-11.928-4.939 16.856 16.856 0 01-4.941-11.923V601.273c0-4.472 1.777-8.76 4.941-11.922a16.872 16.872 0 0123.856 0 16.854 16.854 0 014.941 11.922v171.823c0 4.472-1.777 8.761-4.941 11.923a16.872 16.872 0 01-11.928 4.939zM935.735 865.631a16.874 16.874 0 01-11.928-4.939 16.86 16.86 0 01-4.941-11.922v-21.502a16.87 16.87 0 0128.797-11.922 16.854 16.854 0 014.941 11.922v21.502c0 4.471-1.777 8.76-4.941 11.922a16.872 16.872 0 01-11.928 4.939zM993.233 923.012a23.6 23.6 0 01-23.616-23.605V700.079a23.6 23.6 0 016.917-16.691 23.622 23.622 0 0133.396 0 23.598 23.598 0 016.92 16.691v199.328a23.617 23.617 0 01-23.617 23.605zM1047.04 593.786a13.488 13.488 0 01-13.49-13.489v-21.501a13.488 13.488 0 0123.03-9.539 13.498 13.498 0 013.96 9.539v21.501c0 3.578-1.43 7.009-3.96 9.538a13.488 13.488 0 01-9.54 3.951zM1047.04 743.717a13.488 13.488 0 01-13.49-13.489V627.482a13.488 13.488 0 0113.49-13.489c3.58 0 7.01 1.421 9.54 3.951a13.498 13.498 0 013.96 9.538v102.746c0 3.577-1.43 7.009-3.96 9.538a13.488 13.488 0 01-9.54 3.951z"/></g></symbol><symbol viewBox="0 0 20 20" id="book" xmlns="http://www.w3.org/2000/svg"><path clip-rule="evenodd" d="M10 16.667c-1.706-1.544-4.283-1.817-6.297-.818-.554.274-1.203-.1-1.203-.718V5.703c0-.505.23-.99.63-1.299 2.074-1.597 4.997-1.407 6.87.57 1.873-1.977 4.796-2.167 6.87-.569.4.308.63.793.63 1.298v9.427c0 .618-.65.993-1.203.718-2.014-.998-4.591-.725-6.297.819v0z"/><path d="M10 16.667V4.975"/></symbol><symbol viewBox="0 0 20 20" id="book-user" xmlns="http://www.w3.org/2000/svg"><path clip-rule="evenodd" d="M17.503 9.587v5.71a.83.83 0 01-.812.832A12.53 12.53 0 0010 17.92a12.53 12.53 0 00-6.691-1.79.83.83 0 01-.812-.833v-5.71a1.248 1.248 0 011.321-1.252c2.173.069 4.296.672 6.182 1.755a13.254 13.254 0 016.181-1.755 1.248 1.248 0 011.322 1.252v0z"/><path d="M10 10.09v7.83"/><circle cx="10" cy="4.581" r="2.501"/></symbol><symbol viewBox="0 0 23.21 23.23" id="cross" xmlns="http://www.w3.org/2000/svg"><path d="M13 11.62l9.91-9.91a1 1 0 000-1.42 1 1 0 00-1.41 0l-9.9 9.91L1.71.31A1 1 0 00.29 1.73l9.89 9.89-9.89 9.89a1 1 0 000 1.41 1 1 0 001.42 0L11.6 13l9.91 9.91a1 1 0 001.41-1.41z"/></symbol><symbol viewBox="0 0 27 27" id="file" xmlns="http://www.w3.org/2000/svg"><path clip-rule="evenodd" d="M7.875 23.625h11.25A3.375 3.375 0 0022.5 20.25V9.418c0-.895-.356-1.753-.988-2.386l-2.669-2.668a3.375 3.375 0 00-2.386-.989H7.875A3.375 3.375 0 004.5 6.75v13.5a3.375 3.375 0 003.375 3.375z"/><path d="M18 19.125H9M18 15.188H9M12.375 11.25H9M22.5 9.563h-3.938a2.25 2.25 0 01-2.25-2.25V3.374"/></symbol><symbol viewBox="0 0 60 32" id="logo-arsib" xmlns="http://www.w3.org/2000/svg"><path d="M59.685 11.32C57.002 1.91 45.093-.938 32.04.256 44.17.54 55.003 5.295 56.855 12.63c.814 3.226.514 6.465-.782 9.235 2.866-3.068 4.694-6.751 3.612-10.547zM2.51 18.808c-.756-3.236-.127-6.493 1.588-9.235C1.232 12.642-.568 16.263.163 20.12c1.71 9.02 14.915 12.256 27.969 11.062C16 30.9 4.446 27.082 2.51 18.808z"/><path d="M12.704 20.495l1.196-.41-1.152-2.658-1.162 2.656 1.117.412z"/><path d="M8.504 20.105h1.745l2.495-5.7 2.496 5.7h1.746l-4.242-9.499-4.24 9.499zM21.932 10.56h-3.866v1.952h3.771c.838 0 1.392.403 1.392 1.2 0 .797-.554 1.187-1.392 1.187h-3.77v5.206h1.952V16.85h1.913c1.864 0 3.174-1.39 3.174-3.146s-1.323-3.146-3.174-3.146zM28.617 12.528c.297-.338.75-.5 1.25-.5.554 0 .916.162 1.443.676l1.254-1.243c-.527-.5-.777-.662-1.236-.85-.42-.176-.889-.257-1.415-.257-1.04 0-1.956.364-2.631 1.054-.743.756-.97 1.525-.97 3.443v.392c0 1.607.026 2.876.972 3.835.675.69 1.593 1.054 2.633 1.054.513 0 1.005-.094 1.41-.257.46-.189.72-.35 1.246-.85l-1.24-1.243c-.527.513-.85.675-1.418.675-.513 0-1.001-.162-1.298-.5-.379-.418-.569-.944-.569-2.47v-.514c0-.919.096-1.918.57-2.445zM36.075 16.593V10.56H34.34v9.546h1.613l3.81-6.226v6.226H41.5v-9.546h-1.602l-3.822 6.034zM47.66 14.03h-3.777v6.075h3.776c1.945 0 3.12-1.282 3.12-3.038 0-1.755-1.188-3.037-3.12-3.037zm-.095 4.774h-1.946v-3.038h1.946c.838 0 1.337.735 1.337 1.519 0 .797-.5 1.518-1.337 1.518zM50.174 10.56h-6.291v1.735h6.291v-1.736zM12.698 22.704h-.172a.359.359 0 00-.145-.225.388.388 0 00-.118-.058.472.472 0 00-.37.046.454.454 0 00-.166.192.715.715 0 00-.06.311c0 .123.02.227.06.311a.454.454 0 00.166.192c.07.044.148.066.234.066a.475.475 0 00.136-.02.366.366 0 00.263-.283h.172a.532.532 0 01-.37.432.639.639 0 01-.201.031.596.596 0 01-.323-.088.61.61 0 01-.223-.253.865.865 0 01-.081-.388c0-.15.027-.28.081-.388a.609.609 0 01.223-.253.595.595 0 01.323-.088c.071 0 .139.01.202.03a.55.55 0 01.298.238.565.565 0 01.071.195zM14.119 22.704h-.172a.359.359 0 00-.145-.225.387.387 0 00-.119-.058.471.471 0 00-.37.046.454.454 0 00-.165.192.716.716 0 00-.061.311c0 .123.02.227.06.311a.454.454 0 00.167.192c.07.044.147.066.233.066a.474.474 0 00.136-.02.366.366 0 00.264-.283h.172a.532.532 0 01-.37.432.639.639 0 01-.202.031.596.596 0 01-.323-.088.61.61 0 01-.222-.253.866.866 0 01-.082-.388c0-.15.028-.28.082-.388a.609.609 0 01.222-.253.595.595 0 01.323-.088c.072 0 .14.01.202.03a.55.55 0 01.299.238.565.565 0 01.07.195zM15.595 22.97c0 .15-.027.28-.082.388a.61.61 0 01-.222.253.596.596 0 01-.323.088.596.596 0 01-.323-.088.61.61 0 01-.223-.253.866.866 0 01-.081-.388c0-.15.027-.28.081-.388a.609.609 0 01.223-.253.595.595 0 01.323-.088c.12 0 .229.03.323.088.094.06.168.144.223.253.054.109.08.238.08.388zm-.167 0a.708.708 0 00-.062-.311.43.43 0 00-.399-.257.433.433 0 00-.233.065.454.454 0 00-.166.192.716.716 0 00-.06.311c0 .123.02.227.06.311a.454.454 0 00.166.192c.07.044.148.066.234.066a.43.43 0 00.399-.258.708.708 0 00.061-.311zM17.09 23.516l-.02.5h-.177v-.336h-.1v-.164h.297zm-1.206.164v-1.42h.163v1.262h.732V22.26h.164v1.42h-1.06zM17.35 22.26h.17v1.118h.013l.777-1.118h.166v1.42h-.172v-1.115h-.014l-.774 1.115h-.166v-1.42zM18.878 23.68h-.18l.521-1.42h.178l.521 1.42h-.18l-.424-1.195h-.011l-.425 1.195zm.067-.555h.727v.153h-.727v-.153zM21.346 23.516l-.02.5h-.177v-.336h-.1v-.164h.297zm-1.206.164v-1.42h.163v1.262h.732V22.26h.164v1.42h-1.06zM21.606 22.26h.169v1.118h.014l.776-1.118h.167v1.42h-.172v-1.115h-.014l-.774 1.115h-.166v-1.42zM24.041 23.68h-.172v-1.267h-.302a.414.414 0 00-.185.035.218.218 0 00-.102.098.33.33 0 00-.032.15c0 .056.01.105.031.146.021.041.055.073.101.095a.43.43 0 00.184.033h.383v.155h-.389a.59.59 0 01-.27-.054.362.362 0 01-.158-.153.469.469 0 01-.051-.223c0-.083.017-.158.051-.224a.363.363 0 01.158-.154.579.579 0 01.273-.057h.48v1.42zm-.668-.638h.194l-.344.638h-.2l.35-.638zM24.935 23.68v-1.42h.48c.111 0 .202.02.273.06.071.04.124.094.158.162a.499.499 0 01.051.227c0 .084-.017.16-.051.228a.381.381 0 01-.157.164.545.545 0 01-.271.06h-.344v-.152h.338a.369.369 0 00.184-.04.235.235 0 00.1-.106.357.357 0 00.032-.154.353.353 0 00-.032-.152.227.227 0 00-.101-.106.383.383 0 00-.186-.038h-.302v1.267h-.172zM26.25 23.7v-.161h.088a.169.169 0 00.144-.073.351.351 0 00.039-.066l.022-.053-.49-1.087h.185l.391.882.358-.882h.183l-.49 1.19a.819.819 0 01-.067.123.271.271 0 01-.101.092.358.358 0 01-.171.034h-.092zM28.227 23.68l-.488-.652h-.174v.652h-.172v-1.42h.172v.616h.075l.568-.616h.205l-.574.624.594.796h-.206zM29.786 22.97c0 .15-.027.28-.08.388a.608.608 0 01-.223.253.596.596 0 01-.323.088.596.596 0 01-.323-.088.61.61 0 01-.223-.253.865.865 0 01-.081-.388c0-.15.027-.28.08-.388a.609.609 0 01.224-.253.595.595 0 01.323-.088c.12 0 .228.03.323.088.094.06.168.144.222.253.054.109.081.238.081.388zm-.166 0a.708.708 0 00-.062-.311.43.43 0 00-.399-.257.434.434 0 00-.233.065.454.454 0 00-.166.192.715.715 0 00-.06.311c0 .123.02.227.06.311a.454.454 0 00.166.192c.07.044.148.066.234.066a.43.43 0 00.398-.258.708.708 0 00.062-.311zM30.076 23.68v-1.42h.496c.099 0 .18.017.245.051.064.034.112.08.143.137.032.057.047.12.047.19 0 .06-.01.11-.032.15a.255.255 0 01-.085.095.387.387 0 01-.113.051v.014a.279.279 0 01.131.046c.044.027.08.067.11.119.03.052.045.115.045.19a.336.336 0 01-.202.327.636.636 0 01-.272.05h-.513zm.171-.152h.342c.112 0 .192-.022.239-.066a.21.21 0 00.071-.16.254.254 0 00-.037-.132.266.266 0 00-.104-.099.328.328 0 00-.161-.037h-.35v.494zm0-.644h.32c.051 0 .098-.01.14-.03a.245.245 0 00.1-.086.228.228 0 00.037-.13.216.216 0 00-.065-.16c-.044-.044-.113-.065-.207-.065h-.325v.471zM32.544 22.97c0 .15-.028.28-.082.388a.61.61 0 01-.222.253.596.596 0 01-.323.088.596.596 0 01-.323-.088.61.61 0 01-.223-.253.865.865 0 01-.081-.388c0-.15.027-.28.081-.388a.609.609 0 01.223-.253.595.595 0 01.323-.088c.12 0 .228.03.323.088.094.06.168.144.222.253.054.109.081.238.081.388zm-.167 0a.708.708 0 00-.062-.311.43.43 0 00-.399-.257.434.434 0 00-.233.065.454.454 0 00-.166.192.715.715 0 00-.06.311c0 .123.02.227.06.311a.454.454 0 00.166.192c.07.044.148.066.234.066a.43.43 0 00.398-.258.708.708 0 00.062-.311zM32.71 24.024v-.497h.092a.448.448 0 00.089-.12.837.837 0 00.071-.212c.02-.088.033-.2.04-.336l.03-.599h.843v1.267h.164v.494h-.164v-.341h-1v.344h-.164zm.297-.497h.705v-1.114h-.524l-.023.446a2.575 2.575 0 01-.029.282 1.454 1.454 0 01-.053.222.765.765 0 01-.076.165zM34.299 22.26h.17v1.118h.013l.776-1.118h.167v1.42h-.172v-1.115h-.014l-.774 1.115H34.3v-1.42zM35.691 22.413v-.153h1.065v.153h-.446v1.267h-.172v-1.267h-.447zM37.022 23.68v-1.42h.857v.153h-.685v.48h.64v.152h-.64v.482h.696v.153h-.868zM38.067 23.68v-.158h.041c.06 0 .105-.019.138-.057a.38.38 0 00.07-.184 2.58 2.58 0 00.03-.336l.026-.685h.865v1.42h-.172v-1.267h-.53l-.022.565c-.005.15-.02.276-.04.38a.466.466 0 01-.115.24c-.055.055-.134.082-.239.082h-.052zM39.58 23.68v-1.42h.858v.153h-.686v.48h.641v.152h-.64v.482h.696v.153h-.868zM40.747 22.26h.17v1.118h.014l.776-1.118h.166v1.42h-.171v-1.115h-.014l-.774 1.115h-.167v-1.42zm.7-.355h.152a.238.238 0 01-.078.184.3.3 0 01-.21.071.296.296 0 01-.21-.071.24.24 0 01-.076-.184h.152c0 .036.01.068.03.095.02.027.055.04.103.04.049 0 .084-.013.104-.04a.15.15 0 00.032-.095zM43.91 22.704h-.173a.359.359 0 00-.145-.225.387.387 0 00-.118-.058.472.472 0 00-.37.046.454.454 0 00-.165.192.715.715 0 00-.061.311c0 .123.02.227.06.311a.454.454 0 00.166.192c.07.044.148.066.234.066a.475.475 0 00.136-.02.365.365 0 00.264-.283h.171a.533.533 0 01-.37.432.638.638 0 01-.201.031.596.596 0 01-.323-.088.61.61 0 01-.223-.253.865.865 0 01-.08-.388c0-.15.026-.28.08-.388a.609.609 0 01.223-.253.595.595 0 01.323-.088c.072 0 .139.01.202.03a.55.55 0 01.299.238.565.565 0 01.07.195zM44.065 23.68v-.158h.042c.059 0 .105-.019.138-.057a.379.379 0 00.07-.184c.015-.084.025-.196.03-.336l.025-.685h.866v1.42h-.172v-1.267h-.53l-.022.565c-.006.15-.02.276-.041.38a.465.465 0 01-.115.24c-.054.055-.134.082-.238.082h-.053zM45.654 23.7v-.161h.089a.17.17 0 00.144-.073.352.352 0 00.039-.066l.022-.053-.491-1.087h.186l.39.882.359-.882h.183l-.491 1.19a.828.828 0 01-.067.123.271.271 0 01-.1.092.357.357 0 01-.172.034h-.091zM47.638 22.26v1.42h-.172v-1.42h.172zm-.96 1.42l.46-.74-.421-.68h.208l.369.63h.519l.368-.63h.208l-.424.682.46.738h-.196l-.386-.63h-.582l-.389.63h-.194zM48.65 23.68v-1.42h.858v.153h-.685v.443h.36c.102 0 .188.017.258.05.07.034.123.08.159.141.036.06.055.132.055.214a.425.425 0 01-.055.218.371.371 0 01-.16.148.562.562 0 01-.257.053h-.532zm.173-.15h.36c.065 0 .12-.013.165-.039a.27.27 0 00.138-.232.233.233 0 00-.079-.176c-.052-.05-.127-.074-.224-.074h-.36v.521zM50.487 22.26h.17v1.118h.013l.777-1.118h.166v1.42h-.172v-1.115h-.014l-.774 1.115h-.166v-1.42zM51.957 23.68v-1.42h.172v.632h.757v-.632h.172v1.42h-.172v-.635h-.757v.635h-.172zM53.89 22.43h.225c.105 0 .2.023.28.07a.506.506 0 01.194.197c.046.084.07.181.07.292a.597.597 0 01-.07.294.51.51 0 01-.193.198.548.548 0 01-.28.071h-.225a.552.552 0 01-.281-.07.506.506 0 01-.193-.197.593.593 0 01-.07-.293c0-.11.023-.209.07-.293a.51.51 0 01.193-.198.548.548 0 01.28-.072zm0 .152a.385.385 0 00-.203.05.323.323 0 00-.126.143.516.516 0 00-.042.217c0 .082.014.154.042.215.029.061.07.108.126.142.055.034.123.05.204.05h.224c.08 0 .148-.016.203-.05a.318.318 0 00.126-.143.51.51 0 00.043-.217.502.502 0 00-.043-.215.318.318 0 00-.126-.142.381.381 0 00-.203-.05h-.224zm.2-.347v1.503h-.172v-1.503h.172zM56.145 22.97c0 .15-.027.28-.081.388a.61.61 0 01-.223.253.596.596 0 01-.323.088.596.596 0 01-.323-.088.61.61 0 01-.223-.253.865.865 0 01-.08-.388c0-.15.026-.28.08-.388a.609.609 0 01.223-.253.595.595 0 01.323-.088c.121 0 .229.03.323.088.094.06.169.144.223.253.054.109.08.238.08.388zm-.167 0a.707.707 0 00-.061-.311.43.43 0 00-.399-.257.434.434 0 00-.233.065.453.453 0 00-.166.192.715.715 0 00-.061.311c0 .123.02.227.06.311a.453.453 0 00.166.192c.07.044.148.066.234.066a.43.43 0 00.399-.258.707.707 0 00.061-.311z"/></symbol><symbol viewBox="0 0 27 27" id="logo-second" xmlns="http://www.w3.org/2000/svg"><g clip-path="url(#hclip0_73_12942)"><path d="M23.58 10.485c-1.44 0-2.61.99-2.97 2.295h-5.22c-.315-.54-.9-.9-1.53-.9-.675 0-1.26.36-1.53.9H6.075c-.045-.225-.135-.405-.225-.63l5.805-5.355c.63.45 1.395.72 2.25.72 2.07 0 3.78-1.71 3.78-3.78S15.93 0 13.86 0c-2.07 0-3.78 1.71-3.78 3.78 0 .675.18 1.305.495 1.845L4.77 10.98c-.495-.315-1.08-.54-1.71-.54A3.063 3.063 0 000 13.5c0 1.755 1.395 3.15 3.06 3.15 1.44 0 2.61-.99 2.97-2.295h6.165c.27.63.9 1.08 1.62 1.08.72 0 1.35-.45 1.62-1.08h5.085c.09.27.18.54.315.765l-5.265 5.04c-.63-.405-1.35-.675-2.16-.675-2.07 0-3.78 1.71-3.78 3.78s1.71 3.78 3.78 3.78 3.78-1.71 3.78-3.78c0-.72-.225-1.395-.54-1.935l5.4-5.13c.45.27.99.405 1.53.405 1.71 0 3.06-1.395 3.06-3.06s-1.395-3.06-3.06-3.06zm-9.72-8.91c1.215 0 2.205.99 2.205 2.205s-.99 2.205-2.205 2.205a2.209 2.209 0 01-2.205-2.205c0-1.215.99-2.205 2.205-2.205zm-10.8 13.5c-.855 0-1.53-.675-1.53-1.53s.675-1.53 1.53-1.53 1.53.675 1.53 1.53-.675 1.53-1.53 1.53zm10.8-1.215c-.135 0-.225-.09-.225-.225s.09-.225.225-.225.225.09.225.225-.09.225-.225.225zm-.405 11.565a2.209 2.209 0 01-2.205-2.205c0-1.215.99-2.205 2.205-2.205s2.205.99 2.205 2.205-.99 2.205-2.205 2.205zm10.125-10.35c-.81 0-1.53-.675-1.53-1.53 0-.81.675-1.53 1.53-1.53s1.53.675 1.53 1.53c-.045.855-.72 1.53-1.53 1.53z"/></g><defs><clipPath id="hclip0_73_12942"><path d="M0 0h27v27H0z"/></clipPath></defs></symbol><symbol viewBox="0 0 24 24" id="paly" xmlns="http://www.w3.org/2000/svg"><path clip-rule="evenodd" d="M9.514 6.144l8.098 4.86a1 1 0 010 1.714l-8.098 4.86A1 1 0 018 16.718V7.001a1 1 0 011.514-.857z"/></symbol><symbol viewBox="0 0 24 25" id="phone" xmlns="http://www.w3.org/2000/svg"><path d="M16.8 21.53a4 4 0 01-.77-.08 16.48 16.48 0 01-8.32-4.66 16.48 16.48 0 01-4.66-8.32 4 4 0 011-3.54l.66-.65a2.8 2.8 0 013.88 0l1.23 1.17a2.25 2.25 0 01.65 1.63 2.44 2.44 0 01-.74 1.64l-.82.82a11.72 11.72 0 002.48 3.57A11.85 11.85 0 0015 15.6l.89-.92a2.31 2.31 0 013.19 0l1.17 1.18a2.76 2.76 0 010 3.89l-.65.65a3.91 3.91 0 01-2.8 1.13zM6.7 5a1.22 1.22 0 00-.88.37L5.16 6a2.49 2.49 0 00-.64 2.2 14.81 14.81 0 004.26 7.53A14.89 14.89 0 0016.31 20a2.49 2.49 0 002.2-.64l.65-.66a1.24 1.24 0 000-1.76L18 15.74a.77.77 0 00-1.06 0l-.91.91a1.51 1.51 0 01-1.66.32 13.36 13.36 0 01-4-2.8 13.36 13.36 0 01-2.8-4 1.53 1.53 0 01.32-1.66l.82-.82A.94.94 0 009 7a.75.75 0 00-.21-.52L7.58 5.34A1.22 1.22 0 006.7 5z"/></symbol><symbol viewBox="0 0 20 20" id="physics" xmlns="http://www.w3.org/2000/svg"><path d="M12.252 12.251l.5-1.5c1.084-4.085.75-7.837-.75-8.17-.668-.084-1.334.166-1.751.75M9.75 16.67c-.416.583-1.083.833-1.75.75-1.5-.417-1.834-4.085-.75-8.17.166-.5.333-1.084.5-1.501"/><path d="M9.167 13.085c.5-.083 1-.25 1.584-.333C14.836 11.668 17.92 9.5 17.504 8c-.167-.584-.75-.917-1.584-1.167M4.081 13.168c-.834-.25-1.417-.583-1.584-1.167-.417-1.5 2.585-3.668 6.753-4.752.5-.167 1.084-.25 1.584-.333"/><path d="M6.916 10.834c.333.417.667.75 1.084 1.167 3 3.001 6.335 4.585 7.503 3.418.416-.583.5-1.334.25-1.917M4.332 6.499a2.393 2.393 0 01.166-2C5.582 3.413 9 4.914 12.002 7.915c.416.417.75.75 1.083 1.167M10 10.084c.084 0 .084-.084.084-.084L10 9.917 9.917 10s0 .084.083.084"/></symbol><symbol viewBox="0 0 20 20" id="portfolio" xmlns="http://www.w3.org/2000/svg"><path clip-rule="evenodd" d="M15.835 17.503H4.165c-.92 0-1.667-.746-1.667-1.667V8.333c0-.921.746-1.667 1.667-1.667h11.671c.921 0 1.668.746 1.668 1.667v7.503c0 .92-.747 1.667-1.668 1.667z"/><path d="M13.335 17.503V4.998c0-.92-.747-1.667-1.668-1.667H8.332c-.92 0-1.667.746-1.667 1.667v12.505"/></symbol><symbol viewBox="0 0 20 20" id="school-board" xmlns="http://www.w3.org/2000/svg"><rect x="10" y="11.667" width="4.167" height="2.5" rx="1"/><rect x="5.833" y="2.083" width="8.333" height="2.5" rx="1"/><path d="M5.833 3.333H4.167A1.667 1.667 0 002.5 5v7.5c0 .92.746 1.666 1.667 1.666h11.666c.92 0 1.667-.746 1.667-1.666V5c0-.92-.746-1.667-1.667-1.667h-1.666M13.333 17.5l-.833-3.333M6.667 17.5l.833-3.333"/></symbol><symbol viewBox="0 0 14 31" id="shevron-left" xmlns="http://www.w3.org/2000/svg"><path d="M13 1L2 15.5 13 30"/></symbol><symbol viewBox="0 0 14 31" id="shevron-right" xmlns="http://www.w3.org/2000/svg"><path d="M1 1l11 14.5L1 30"/></symbol><symbol viewBox="0 0 14 13" id="tg" xmlns="http://www.w3.org/2000/svg"><path d="M.302 6.615l3.131 1.168 1.212 3.897c.077.25.383.342.585.176l1.745-1.422a.52.52 0 01.635-.018l3.148 2.285a.369.369 0 00.578-.223l2.305-11.09a.37.37 0 00-.494-.42L.3 5.924a.37.37 0 00.003.69zm4.148.546l6.118-3.768c.11-.068.223.08.129.168l-5.05 4.694a1.047 1.047 0 00-.324.627l-.172 1.274c-.023.17-.262.187-.309.023l-.661-2.325a.616.616 0 01.269-.693z"/></symbol><symbol viewBox="0 0 14 9" id="vk" xmlns="http://www.w3.org/2000/svg"><path d="M13.88 8.14c-.532-.992-1.9-2.183-2.466-2.702a.39.39 0 01-.03-.544c1.078-1.202 1.941-2.582 2.238-3.417A.566.566 0 0013.1.72h-1.11c-.366 0-.58.136-.682.352-.896 1.905-1.665 2.729-2.204 3.21-.301.27-.77.047-.77-.364V1.38a.628.628 0 00-.62-.637L5.686.72c-.255 0-.401.3-.248.51l.335.497c.126.173.194.383.194.598L5.965 4.57c0 .39-.456.581-.727.308C4.32 3.95 3.526 2.062 3.24 1.158A.62.62 0 002.653.72L1.56.717c-.41 0-.71.403-.599.809C1.96 5.16 4.01 8.619 7.663 8.994c.36.037.67-.263.67-.635v-1.18c0-.337.256-.628.585-.637h.034c.967 0 2.049 1.458 2.427 2.14a.608.608 0 00.533.316h1.47c.43 0 .705-.472.498-.858z"/></symbol><symbol viewBox="0 0 14 14" id="wp" xmlns="http://www.w3.org/2000/svg"><path d="M7.038.351a6.507 6.507 0 00-6.5 6.496c-.001 1.145.299 2.263.867 3.248l-.882 3.269 3.405-.805c.95.518 2.018.79 3.106.79h.003a6.508 6.508 0 006.499-6.495 6.456 6.456 0 00-1.901-4.598A6.457 6.457 0 007.038.35zm-.001 1.301c1.39.001 2.696.543 3.678 1.524a5.159 5.159 0 011.52 3.676 5.204 5.204 0 01-5.2 5.196 5.205 5.205 0 01-2.483-.631l-.438-.24-.485.115-1.28.303.312-1.162.141-.52-.27-.468a5.191 5.191 0 01-.693-2.598 5.204 5.204 0 015.198-5.195zm-2.3 2.196a.597.597 0 00-.433.204c-.149.162-.57.554-.57 1.353.001.799.583 1.571.664 1.68.081.108 1.124 1.8 2.775 2.45 1.371.54 1.65.434 1.948.406.298-.026.961-.392 1.097-.77.135-.38.135-.706.095-.774-.04-.067-.149-.108-.311-.189s-.96-.473-1.11-.527c-.149-.054-.258-.082-.366.081a9.165 9.165 0 01-.513.635c-.095.11-.19.124-.352.042-.163-.082-.686-.253-1.307-.806a4.892 4.892 0 01-.903-1.124c-.095-.162-.01-.25.072-.332.073-.072.161-.19.243-.284.08-.095.108-.163.162-.27.054-.109.027-.204-.013-.285-.04-.082-.357-.884-.501-1.205-.122-.27-.25-.276-.366-.281-.095-.004-.202-.004-.31-.004z"/></symbol></svg>