<?xml version="1.0" encoding="utf-8"?><svg xmlns="http://www.w3.org/2000/svg" xmlns:xlink="http://www.w3.org/1999/xlink"><symbol viewBox="0 0 27 27" id="file" xmlns="http://www.w3.org/2000/svg"><path clip-rule="evenodd" d="M7.875 23.625h11.25A3.375 3.375 0 0022.5 20.25V9.418c0-.895-.356-1.753-.988-2.386l-2.669-2.668a3.375 3.375 0 00-2.386-.989H7.875A3.375 3.375 0 004.5 6.75v13.5a3.375 3.375 0 003.375 3.375z"/><path d="M18 19.125H9M18 15.188H9M12.375 11.25H9M22.5 9.563h-3.938a2.25 2.25 0 01-2.25-2.25V3.374"/></symbol><symbol viewBox="0 0 60 32" id="logo-arsib" xmlns="http://www.w3.org/2000/svg"><path d="M59.685 11.32C57.002 1.91 45.093-.938 32.04.256 44.17.54 55.003 5.295 56.855 12.63c.814 3.226.514 6.465-.782 9.235 2.866-3.068 4.694-6.751 3.612-10.547zM2.51 18.808c-.756-3.236-.127-6.493 1.588-9.235C1.232 12.642-.568 16.263.163 20.12c1.71 9.02 14.915 12.256 27.969 11.062C16 30.9 4.446 27.082 2.51 18.808z"/><path d="M12.704 20.495l1.196-.41-1.152-2.658-1.162 2.656 1.117.412z"/><path d="M8.504 20.105h1.745l2.495-5.7 2.496 5.7h1.746l-4.242-9.499-4.24 9.499zM21.932 10.56h-3.866v1.952h3.771c.838 0 1.392.403 1.392 1.2 0 .797-.554 1.187-1.392 1.187h-3.77v5.206h1.952V16.85h1.913c1.864 0 3.174-1.39 3.174-3.146s-1.323-3.146-3.174-3.146zM28.617 12.528c.297-.338.75-.5 1.25-.5.554 0 .916.162 1.443.676l1.254-1.243c-.527-.5-.777-.662-1.236-.85-.42-.176-.889-.257-1.415-.257-1.04 0-1.956.364-2.631 1.054-.743.756-.97 1.525-.97 3.443v.392c0 1.607.026 2.876.972 3.835.675.69 1.593 1.054 2.633 1.054.513 0 1.005-.094 1.41-.257.46-.189.72-.35 1.246-.85l-1.24-1.243c-.527.513-.85.675-1.418.675-.513 0-1.001-.162-1.298-.5-.379-.418-.569-.944-.569-2.47v-.514c0-.919.096-1.918.57-2.445zM36.075 16.593V10.56H34.34v9.546h1.613l3.81-6.226v6.226H41.5v-9.546h-1.602l-3.822 6.034zM47.66 14.03h-3.777v6.075h3.776c1.945 0 3.12-1.282 3.12-3.038 0-1.755-1.188-3.037-3.12-3.037zm-.095 4.774h-1.946v-3.038h1.946c.838 0 1.337.735 1.337 1.519 0 .797-.5 1.518-1.337 1.518zM50.174 10.56h-6.291v1.735h6.291v-1.736zM12.698 22.704h-.172a.359.359 0 00-.145-.225.388.388 0 00-.118-.058.472.472 0 00-.37.046.454.454 0 00-.166.192.715.715 0 00-.06.311c0 .123.02.227.06.311a.454.454 0 00.166.192c.07.044.148.066.234.066a.475.475 0 00.136-.02.366.366 0 00.263-.283h.172a.532.532 0 01-.37.432.639.639 0 01-.201.031.596.596 0 01-.323-.088.61.61 0 01-.223-.253.865.865 0 01-.081-.388c0-.15.027-.28.081-.388a.609.609 0 01.223-.253.595.595 0 01.323-.088c.071 0 .139.01.202.03a.55.55 0 01.298.238.565.565 0 01.071.195zM14.119 22.704h-.172a.359.359 0 00-.145-.225.387.387 0 00-.119-.058.471.471 0 00-.37.046.454.454 0 00-.165.192.716.716 0 00-.061.311c0 .123.02.227.06.311a.454.454 0 00.167.192c.07.044.147.066.233.066a.474.474 0 00.136-.02.366.366 0 00.264-.283h.172a.532.532 0 01-.37.432.639.639 0 01-.202.031.596.596 0 01-.323-.088.61.61 0 01-.222-.253.866.866 0 01-.082-.388c0-.15.028-.28.082-.388a.609.609 0 01.222-.253.595.595 0 01.323-.088c.072 0 .14.01.202.03a.55.55 0 01.299.238.565.565 0 01.07.195zM15.595 22.97c0 .15-.027.28-.082.388a.61.61 0 01-.222.253.596.596 0 01-.323.088.596.596 0 01-.323-.088.61.61 0 01-.223-.253.866.866 0 01-.081-.388c0-.15.027-.28.081-.388a.609.609 0 01.223-.253.595.595 0 01.323-.088c.12 0 .229.03.323.088.094.06.168.144.223.253.054.109.08.238.08.388zm-.167 0a.708.708 0 00-.062-.311.43.43 0 00-.399-.257.433.433 0 00-.233.065.454.454 0 00-.166.192.716.716 0 00-.06.311c0 .123.02.227.06.311a.454.454 0 00.166.192c.07.044.148.066.234.066a.43.43 0 00.399-.258.708.708 0 00.061-.311zM17.09 23.516l-.02.5h-.177v-.336h-.1v-.164h.297zm-1.206.164v-1.42h.163v1.262h.732V22.26h.164v1.42h-1.06zM17.35 22.26h.17v1.118h.013l.777-1.118h.166v1.42h-.172v-1.115h-.014l-.774 1.115h-.166v-1.42zM18.878 23.68h-.18l.521-1.42h.178l.521 1.42h-.18l-.424-1.195h-.011l-.425 1.195zm.067-.555h.727v.153h-.727v-.153zM21.346 23.516l-.02.5h-.177v-.336h-.1v-.164h.297zm-1.206.164v-1.42h.163v1.262h.732V22.26h.164v1.42h-1.06zM21.606 22.26h.169v1.118h.014l.776-1.118h.167v1.42h-.172v-1.115h-.014l-.774 1.115h-.166v-1.42zM24.041 23.68h-.172v-1.267h-.302a.414.414 0 00-.185.035.218.218 0 00-.102.098.33.33 0 00-.032.15c0 .056.01.105.031.146.021.041.055.073.101.095a.43.43 0 00.184.033h.383v.155h-.389a.59.59 0 01-.27-.054.362.362 0 01-.158-.153.469.469 0 01-.051-.223c0-.083.017-.158.051-.224a.363.363 0 01.158-.154.579.579 0 01.273-.057h.48v1.42zm-.668-.638h.194l-.344.638h-.2l.35-.638zM24.935 23.68v-1.42h.48c.111 0 .202.02.273.06.071.04.124.094.158.162a.499.499 0 01.051.227c0 .084-.017.16-.051.228a.381.381 0 01-.157.164.545.545 0 01-.271.06h-.344v-.152h.338a.369.369 0 00.184-.04.235.235 0 00.1-.106.357.357 0 00.032-.154.353.353 0 00-.032-.152.227.227 0 00-.101-.106.383.383 0 00-.186-.038h-.302v1.267h-.172zM26.25 23.7v-.161h.088a.169.169 0 00.144-.073.351.351 0 00.039-.066l.022-.053-.49-1.087h.185l.391.882.358-.882h.183l-.49 1.19a.819.819 0 01-.067.123.271.271 0 01-.101.092.358.358 0 01-.171.034h-.092zM28.227 23.68l-.488-.652h-.174v.652h-.172v-1.42h.172v.616h.075l.568-.616h.205l-.574.624.594.796h-.206zM29.786 22.97c0 .15-.027.28-.08.388a.608.608 0 01-.223.253.596.596 0 01-.323.088.596.596 0 01-.323-.088.61.61 0 01-.223-.253.865.865 0 01-.081-.388c0-.15.027-.28.08-.388a.609.609 0 01.224-.253.595.595 0 01.323-.088c.12 0 .228.03.323.088.094.06.168.144.222.253.054.109.081.238.081.388zm-.166 0a.708.708 0 00-.062-.311.43.43 0 00-.399-.257.434.434 0 00-.233.065.454.454 0 00-.166.192.715.715 0 00-.06.311c0 .123.02.227.06.311a.454.454 0 00.166.192c.07.044.148.066.234.066a.43.43 0 00.398-.258.708.708 0 00.062-.311zM30.076 23.68v-1.42h.496c.099 0 .18.017.245.051.064.034.112.08.143.137.032.057.047.12.047.19 0 .06-.01.11-.032.15a.255.255 0 01-.085.095.387.387 0 01-.113.051v.014a.279.279 0 01.131.046c.044.027.08.067.11.119.03.052.045.115.045.19a.336.336 0 01-.202.327.636.636 0 01-.272.05h-.513zm.171-.152h.342c.112 0 .192-.022.239-.066a.21.21 0 00.071-.16.254.254 0 00-.037-.132.266.266 0 00-.104-.099.328.328 0 00-.161-.037h-.35v.494zm0-.644h.32c.051 0 .098-.01.14-.03a.245.245 0 00.1-.086.228.228 0 00.037-.13.216.216 0 00-.065-.16c-.044-.044-.113-.065-.207-.065h-.325v.471zM32.544 22.97c0 .15-.028.28-.082.388a.61.61 0 01-.222.253.596.596 0 01-.323.088.596.596 0 01-.323-.088.61.61 0 01-.223-.253.865.865 0 01-.081-.388c0-.15.027-.28.081-.388a.609.609 0 01.223-.253.595.595 0 01.323-.088c.12 0 .228.03.323.088.094.06.168.144.222.253.054.109.081.238.081.388zm-.167 0a.708.708 0 00-.062-.311.43.43 0 00-.399-.257.434.434 0 00-.233.065.454.454 0 00-.166.192.715.715 0 00-.06.311c0 .123.02.227.06.311a.454.454 0 00.166.192c.07.044.148.066.234.066a.43.43 0 00.398-.258.708.708 0 00.062-.311zM32.71 24.024v-.497h.092a.448.448 0 00.089-.12.837.837 0 00.071-.212c.02-.088.033-.2.04-.336l.03-.599h.843v1.267h.164v.494h-.164v-.341h-1v.344h-.164zm.297-.497h.705v-1.114h-.524l-.023.446a2.575 2.575 0 01-.029.282 1.454 1.454 0 01-.053.222.765.765 0 01-.076.165zM34.299 22.26h.17v1.118h.013l.776-1.118h.167v1.42h-.172v-1.115h-.014l-.774 1.115H34.3v-1.42zM35.691 22.413v-.153h1.065v.153h-.446v1.267h-.172v-1.267h-.447zM37.022 23.68v-1.42h.857v.153h-.685v.48h.64v.152h-.64v.482h.696v.153h-.868zM38.067 23.68v-.158h.041c.06 0 .105-.019.138-.057a.38.38 0 00.07-.184 2.58 2.58 0 00.03-.336l.026-.685h.865v1.42h-.172v-1.267h-.53l-.022.565c-.005.15-.02.276-.04.38a.466.466 0 01-.115.24c-.055.055-.134.082-.239.082h-.052zM39.58 23.68v-1.42h.858v.153h-.686v.48h.641v.152h-.64v.482h.696v.153h-.868zM40.747 22.26h.17v1.118h.014l.776-1.118h.166v1.42h-.171v-1.115h-.014l-.774 1.115h-.167v-1.42zm.7-.355h.152a.238.238 0 01-.078.184.3.3 0 01-.21.071.296.296 0 01-.21-.071.24.24 0 01-.076-.184h.152c0 .036.01.068.03.095.02.027.055.04.103.04.049 0 .084-.013.104-.04a.15.15 0 00.032-.095zM43.91 22.704h-.173a.359.359 0 00-.145-.225.387.387 0 00-.118-.058.472.472 0 00-.37.046.454.454 0 00-.165.192.715.715 0 00-.061.311c0 .123.02.227.06.311a.454.454 0 00.166.192c.07.044.148.066.234.066a.475.475 0 00.136-.02.365.365 0 00.264-.283h.171a.533.533 0 01-.37.432.638.638 0 01-.201.031.596.596 0 01-.323-.088.61.61 0 01-.223-.253.865.865 0 01-.08-.388c0-.15.026-.28.08-.388a.609.609 0 01.223-.253.595.595 0 01.323-.088c.072 0 .139.01.202.03a.55.55 0 01.299.238.565.565 0 01.07.195zM44.065 23.68v-.158h.042c.059 0 .105-.019.138-.057a.379.379 0 00.07-.184c.015-.084.025-.196.03-.336l.025-.685h.866v1.42h-.172v-1.267h-.53l-.022.565c-.006.15-.02.276-.041.38a.465.465 0 01-.115.24c-.054.055-.134.082-.238.082h-.053zM45.654 23.7v-.161h.089a.17.17 0 00.144-.073.352.352 0 00.039-.066l.022-.053-.491-1.087h.186l.39.882.359-.882h.183l-.491 1.19a.828.828 0 01-.067.123.271.271 0 01-.1.092.357.357 0 01-.172.034h-.091zM47.638 22.26v1.42h-.172v-1.42h.172zm-.96 1.42l.46-.74-.421-.68h.208l.369.63h.519l.368-.63h.208l-.424.682.46.738h-.196l-.386-.63h-.582l-.389.63h-.194zM48.65 23.68v-1.42h.858v.153h-.685v.443h.36c.102 0 .188.017.258.05.07.034.123.08.159.141.036.06.055.132.055.214a.425.425 0 01-.055.218.371.371 0 01-.16.148.562.562 0 01-.257.053h-.532zm.173-.15h.36c.065 0 .12-.013.165-.039a.27.27 0 00.138-.232.233.233 0 00-.079-.176c-.052-.05-.127-.074-.224-.074h-.36v.521zM50.487 22.26h.17v1.118h.013l.777-1.118h.166v1.42h-.172v-1.115h-.014l-.774 1.115h-.166v-1.42zM51.957 23.68v-1.42h.172v.632h.757v-.632h.172v1.42h-.172v-.635h-.757v.635h-.172zM53.89 22.43h.225c.105 0 .2.023.28.07a.506.506 0 01.194.197c.046.084.07.181.07.292a.597.597 0 01-.07.294.51.51 0 01-.193.198.548.548 0 01-.28.071h-.225a.552.552 0 01-.281-.07.506.506 0 01-.193-.197.593.593 0 01-.07-.293c0-.11.023-.209.07-.293a.51.51 0 01.193-.198.548.548 0 01.28-.072zm0 .152a.385.385 0 00-.203.05.323.323 0 00-.126.143.516.516 0 00-.042.217c0 .082.014.154.042.215.029.061.07.108.126.142.055.034.123.05.204.05h.224c.08 0 .148-.016.203-.05a.318.318 0 00.126-.143.51.51 0 00.043-.217.502.502 0 00-.043-.215.318.318 0 00-.126-.142.381.381 0 00-.203-.05h-.224zm.2-.347v1.503h-.172v-1.503h.172zM56.145 22.97c0 .15-.027.28-.081.388a.61.61 0 01-.223.253.596.596 0 01-.323.088.596.596 0 01-.323-.088.61.61 0 01-.223-.253.865.865 0 01-.08-.388c0-.15.026-.28.08-.388a.609.609 0 01.223-.253.595.595 0 01.323-.088c.121 0 .229.03.323.088.094.06.169.144.223.253.054.109.08.238.08.388zm-.167 0a.707.707 0 00-.061-.311.43.43 0 00-.399-.257.434.434 0 00-.233.065.453.453 0 00-.166.192.715.715 0 00-.061.311c0 .123.02.227.06.311a.453.453 0 00.166.192c.07.044.148.066.234.066a.43.43 0 00.399-.258.707.707 0 00.061-.311z"/></symbol><symbol viewBox="0 0 27 27" id="logo-second" xmlns="http://www.w3.org/2000/svg"><g clip-path="url(#cclip0_73_12942)"><path d="M23.58 10.485c-1.44 0-2.61.99-2.97 2.295h-5.22c-.315-.54-.9-.9-1.53-.9-.675 0-1.26.36-1.53.9H6.075c-.045-.225-.135-.405-.225-.63l5.805-5.355c.63.45 1.395.72 2.25.72 2.07 0 3.78-1.71 3.78-3.78S15.93 0 13.86 0c-2.07 0-3.78 1.71-3.78 3.78 0 .675.18 1.305.495 1.845L4.77 10.98c-.495-.315-1.08-.54-1.71-.54A3.063 3.063 0 000 13.5c0 1.755 1.395 3.15 3.06 3.15 1.44 0 2.61-.99 2.97-2.295h6.165c.27.63.9 1.08 1.62 1.08.72 0 1.35-.45 1.62-1.08h5.085c.09.27.18.54.315.765l-5.265 5.04c-.63-.405-1.35-.675-2.16-.675-2.07 0-3.78 1.71-3.78 3.78s1.71 3.78 3.78 3.78 3.78-1.71 3.78-3.78c0-.72-.225-1.395-.54-1.935l5.4-5.13c.45.27.99.405 1.53.405 1.71 0 3.06-1.395 3.06-3.06s-1.395-3.06-3.06-3.06zm-9.72-8.91c1.215 0 2.205.99 2.205 2.205s-.99 2.205-2.205 2.205a2.209 2.209 0 01-2.205-2.205c0-1.215.99-2.205 2.205-2.205zm-10.8 13.5c-.855 0-1.53-.675-1.53-1.53s.675-1.53 1.53-1.53 1.53.675 1.53 1.53-.675 1.53-1.53 1.53zm10.8-1.215c-.135 0-.225-.09-.225-.225s.09-.225.225-.225.225.09.225.225-.09.225-.225.225zm-.405 11.565a2.209 2.209 0 01-2.205-2.205c0-1.215.99-2.205 2.205-2.205s2.205.99 2.205 2.205-.99 2.205-2.205 2.205zm10.125-10.35c-.81 0-1.53-.675-1.53-1.53 0-.81.675-1.53 1.53-1.53s1.53.675 1.53 1.53c-.045.855-.72 1.53-1.53 1.53z"/></g><defs><clipPath id="cclip0_73_12942"><path d="M0 0h27v27H0z"/></clipPath></defs></symbol><symbol viewBox="0 0 14 31" id="shevron-left" xmlns="http://www.w3.org/2000/svg"><path d="M13 1L2 15.5 13 30"/></symbol><symbol viewBox="0 0 14 31" id="shevron-right" xmlns="http://www.w3.org/2000/svg"><path d="M1 1l11 14.5L1 30"/></symbol><symbol viewBox="0 0 14 13" id="tg" xmlns="http://www.w3.org/2000/svg"><path d="M.302 6.615l3.131 1.168 1.212 3.897c.077.25.383.342.585.176l1.745-1.422a.52.52 0 01.635-.018l3.148 2.285a.369.369 0 00.578-.223l2.305-11.09a.37.37 0 00-.494-.42L.3 5.924a.37.37 0 00.003.69zm4.148.546l6.118-3.768c.11-.068.223.08.129.168l-5.05 4.694a1.047 1.047 0 00-.324.627l-.172 1.274c-.023.17-.262.187-.309.023l-.661-2.325a.616.616 0 01.269-.693z"/></symbol><symbol viewBox="0 0 14 9" id="vk" xmlns="http://www.w3.org/2000/svg"><path d="M13.88 8.14c-.532-.992-1.9-2.183-2.466-2.702a.39.39 0 01-.03-.544c1.078-1.202 1.941-2.582 2.238-3.417A.566.566 0 0013.1.72h-1.11c-.366 0-.58.136-.682.352-.896 1.905-1.665 2.729-2.204 3.21-.301.27-.77.047-.77-.364V1.38a.628.628 0 00-.62-.637L5.686.72c-.255 0-.401.3-.248.51l.335.497c.126.173.194.383.194.598L5.965 4.57c0 .39-.456.581-.727.308C4.32 3.95 3.526 2.062 3.24 1.158A.62.62 0 002.653.72L1.56.717c-.41 0-.71.403-.599.809C1.96 5.16 4.01 8.619 7.663 8.994c.36.037.67-.263.67-.635v-1.18c0-.337.256-.628.585-.637h.034c.967 0 2.049 1.458 2.427 2.14a.608.608 0 00.533.316h1.47c.43 0 .705-.472.498-.858z"/></symbol><symbol viewBox="0 0 14 14" id="wp" xmlns="http://www.w3.org/2000/svg"><path d="M7.038.351a6.507 6.507 0 00-6.5 6.496c-.001 1.145.299 2.263.867 3.248l-.882 3.269 3.405-.805c.95.518 2.018.79 3.106.79h.003a6.508 6.508 0 006.499-6.495 6.456 6.456 0 00-1.901-4.598A6.457 6.457 0 007.038.35zm-.001 1.301c1.39.001 2.696.543 3.678 1.524a5.159 5.159 0 011.52 3.676 5.204 5.204 0 01-5.2 5.196 5.205 5.205 0 01-2.483-.631l-.438-.24-.485.115-1.28.303.312-1.162.141-.52-.27-.468a5.191 5.191 0 01-.693-2.598 5.204 5.204 0 015.198-5.195zm-2.3 2.196a.597.597 0 00-.433.204c-.149.162-.57.554-.57 1.353.001.799.583 1.571.664 1.68.081.108 1.124 1.8 2.775 2.45 1.371.54 1.65.434 1.948.406.298-.026.961-.392 1.097-.77.135-.38.135-.706.095-.774-.04-.067-.149-.108-.311-.189s-.96-.473-1.11-.527c-.149-.054-.258-.082-.366.081a9.165 9.165 0 01-.513.635c-.095.11-.19.124-.352.042-.163-.082-.686-.253-1.307-.806a4.892 4.892 0 01-.903-1.124c-.095-.162-.01-.25.072-.332.073-.072.161-.19.243-.284.08-.095.108-.163.162-.27.054-.109.027-.204-.013-.285-.04-.082-.357-.884-.501-1.205-.122-.27-.25-.276-.366-.281-.095-.004-.202-.004-.31-.004z"/></symbol></svg>