<?xml version="1.0" encoding="utf-8"?><svg xmlns="http://www.w3.org/2000/svg" xmlns:xlink="http://www.w3.org/1999/xlink"><symbol fill="none" viewBox="0 0 1559 132" id="how-to-prepare" xmlns="http://www.w3.org/2000/svg"><path fill-rule="evenodd" clip-rule="evenodd" d="M550.467 54.033c0 11.47-2.177 21.23-6.531 29.276-4.319 8.047-10.216 14.193-17.689 18.439-7.439 4.212-15.804 6.317-25.095 6.317-9.359 0-17.758-2.123-25.197-6.369-7.439-4.245-13.318-10.392-17.638-18.438-4.32-8.047-6.479-17.789-6.479-29.225 0-11.471 2.159-21.23 6.479-29.277 4.32-8.046 10.199-14.175 17.638-18.387C483.394 2.123 491.793 0 501.152 0c9.291 0 17.656 2.123 25.095 6.369 7.473 4.212 13.37 10.34 17.689 18.387 4.354 8.047 6.531 17.806 6.531 29.277zm-22.575 0c0-7.43-1.114-13.697-3.342-18.799-2.194-5.102-5.297-8.971-9.308-11.608-4.011-2.636-8.707-3.954-14.09-3.954-5.382 0-10.079 1.318-14.09 3.954-4.011 2.637-7.13 6.506-9.359 11.608-2.194 5.102-3.291 11.368-3.291 18.799 0 7.43 1.097 13.696 3.291 18.798 2.229 5.102 5.348 8.971 9.359 11.608 4.011 2.637 8.708 3.955 14.09 3.955 5.383 0 10.079-1.319 14.09-3.955 4.011-2.637 7.114-6.506 9.308-11.608 2.228-5.102 3.342-11.368 3.342-18.798zM29.877 61.788l33.836 44.839H110.541l7.812-23.986h38.025l7.797 23.986h23.86L151.731 1.438h-28.694L88.13 102.433 48.338 50.232 89.425 1.438H61.708L26.74 43.452h-4.474V1.438H0v105.189h22.266V61.788h7.61zm120.858 3.493l-12.94-39.806h-.823l-12.965 39.806h26.728zm103.553 41.346l-33.836-44.839h-7.611v44.839h-22.266V1.438h22.266v42.014h4.474l34.967-42.014H280l-41.088 48.794 42.99 56.395h-27.614zm188.338 0V1.438H356.03v105.189h22.009v-87.11h42.578v87.11h22.009zm108.491-17.72V132h21.392v-25.373h63.507v25.27h21.392v-25.27h19.085l14.398-86.853h47.618l3.086-18.336h-69.884l-14.539 87.47H645.89V1.437h-69.679l-2.982 44.48c-.617 9.176-1.646 16.607-3.086 22.29-1.44 5.65-3.171 10.085-5.193 13.303-2.023 3.185-4.251 5.65-6.685 7.396h-7.148zm73.38 0h-40.521c1.783-2.91 3.377-6.368 4.782-10.375 1.44-4.04 2.657-8.748 3.651-14.124 1.029-5.376 1.766-11.54 2.212-18.49l1.645-26.144h28.231v69.133zm193.082-4.828c5.519-7.84 9.239-17.377 11.159-28.608 1.92-11.676 1.337-21.64-1.748-29.893-3.052-8.286-8.04-14.62-14.965-19.004C805.135 2.191 796.941 0 787.445 0c-9.153 0-17.707 2.072-25.66 6.215-7.954 4.109-14.69 10.101-20.209 17.976-5.52 7.842-9.205 17.395-11.056 28.66-1.92 11.642-1.337 21.59 1.748 29.842 3.085 8.218 8.073 14.5 14.964 18.849 6.925 4.349 15.17 6.523 24.735 6.523 9.119 0 17.621-2.037 25.506-6.112 7.919-4.074 14.621-10.032 20.106-17.874zm14.559-64.305l3.086-18.336h86.494l-3.086 18.336H886.39l-14.399 86.853h-22.009l14.399-86.853h-32.243zM997.689 84.08c5.521-7.84 9.241-17.377 11.161-28.608 1.92-11.676 1.33-21.64-1.75-29.893-3.05-8.286-8.04-14.62-14.965-19.004C985.245 2.191 977.051 0 967.555 0c-9.153 0-17.707 2.072-25.66 6.215-7.953 4.109-14.69 10.101-20.209 17.976-5.52 7.842-9.205 17.395-11.056 28.66-1.92 11.642-1.337 21.59 1.748 29.842 3.086 8.218 8.074 14.5 14.964 18.849 6.925 4.349 15.17 6.523 24.735 6.523 9.119 0 17.621-2.037 25.506-6.112 7.919-4.074 14.621-10.032 20.106-17.874zM986.53 34.67c1.303 4.897 1.354 10.958.155 18.182-1.269 7.602-3.497 14.056-6.685 19.364-3.189 5.273-7.114 9.296-11.776 12.07-4.628 2.74-9.737 4.109-15.324 4.109-5.143 0-9.445-1.233-12.908-3.698-3.428-2.5-5.81-6.18-7.148-11.043-1.302-4.862-1.336-10.923-.102-18.182 1.234-7.602 3.445-14.056 6.633-19.364 3.223-5.341 7.165-9.416 11.828-12.224 4.696-2.807 9.856-4.211 15.478-4.211 5.177 0 9.462 1.267 12.856 3.8 3.394 2.534 5.725 6.266 6.993 11.197zm37.62-33.23h42.17c7.75 0 14.02 1.146 18.82 3.44 4.83 2.295 8.21 5.479 10.13 9.554 1.92 4.04 2.44 8.697 1.54 13.97-.72 4.11-2.17 7.704-4.37 10.786a27.348 27.348 0 01-8.02 7.602 32.83 32.83 0 01-10.39 4.211l-.2 1.028c3.97.17 7.56 1.3 10.75 3.39 3.18 2.054 5.57 4.964 7.14 8.731 1.58 3.767 1.94 8.235 1.08 13.405-.92 5.582-3.13 10.564-6.63 14.947-3.5 4.348-8.16 7.79-13.99 10.323-5.79 2.534-12.63 3.801-20.52 3.801h-44.99l17.48-105.189zm7.87 87.006h18.15c6.17 0 10.89-1.198 14.14-3.595 3.26-2.397 5.22-5.564 5.87-9.502.44-2.91.15-5.479-.88-7.704-.99-2.226-2.69-3.972-5.09-5.24-2.36-1.266-5.36-1.9-9-1.9h-18.61l-4.58 27.941zm7.15-42.99h16.51c3.01 0 5.81-.53 8.38-1.592 2.6-1.096 4.75-2.636 6.43-4.623 1.71-2.02 2.79-4.4 3.23-7.139.62-3.835-.24-6.9-2.57-9.194-2.29-2.328-5.89-3.492-10.8-3.492h-16.86l-4.32 26.04zm92.8-44.017h-22.22l-17.48 105.189h19.28l56.77-66.205h.78l-11.01 66.205h22.27l17.48-105.189h-19.49l-56.46 66.154h-.93l11.01-66.154zm67.04 18.336l3.08-18.336h86.49l-3.08 18.336h-32.24l-14.4 86.853h-22.01l14.4-86.853h-32.24zm105.96 38.11l-5.13 30.87h17.12c3.98 0 7.46-.72 10.44-2.158 3.02-1.472 5.44-3.407 7.25-5.804 1.85-2.43 3-5.085 3.45-7.96.72-4.178-.28-7.705-2.98-10.581-2.71-2.91-7.05-4.366-13.01-4.366h-17.14zm20.07-17.565h-17.16l6.46-38.88h-22.27l-17.48 105.188h39.39c8.33 0 15.75-1.421 22.27-4.263 6.55-2.842 11.89-6.78 16.04-11.813 4.15-5.068 6.77-10.906 7.87-17.514 1.13-6.643.44-12.413-2.06-17.31-2.47-4.896-6.51-8.68-12.13-11.35-5.59-2.705-12.57-4.058-20.93-4.058zm141.22-2.054h-22.21c.07-2.945-.31-5.547-1.13-7.807-.82-2.295-2.06-4.246-3.7-5.856-1.62-1.609-3.59-2.825-5.92-3.646-2.33-.856-4.95-1.284-7.87-1.284-5.62 0-10.78 1.404-15.47 4.211-4.7 2.808-8.66 6.883-11.88 12.224-3.23 5.308-5.45 11.728-6.69 19.261-1.2 7.26-1.13 13.337.21 18.234 1.34 4.896 3.7 8.594 7.09 11.094 3.43 2.465 7.7 3.698 12.81 3.698 3.15 0 6.15-.394 9-1.182 2.84-.821 5.43-1.986 7.76-3.492a25.73 25.73 0 006.17-5.599c1.79-2.191 3.17-4.673 4.17-7.447h22.37c-1.41 4.828-3.6 9.485-6.58 13.97-2.95 4.486-6.6 8.492-10.96 12.019-4.35 3.493-9.31 6.266-14.86 8.321-5.55 2.054-11.64 3.081-18.25 3.081-9.57 0-17.78-2.191-24.64-6.574-6.82-4.383-11.74-10.7-14.75-18.953-3.02-8.252-3.59-18.199-1.7-29.84 1.88-11.266 5.57-20.82 11.05-28.66 5.52-7.876 12.23-13.851 20.11-17.926 7.92-4.075 16.39-6.112 25.4-6.112 6.28 0 11.95.856 17.03 2.568 5.07 1.712 9.39 4.212 12.95 7.499 3.6 3.253 6.31 7.242 8.13 11.967 1.82 4.726 2.6 10.136 2.36 16.23zm53.04 68.362h22.27L1559 1.438h-41.5c-7.95 0-14.98 1.421-21.08 4.263-6.1 2.808-11.08 6.797-14.91 11.968-3.81 5.136-6.31 11.18-7.51 18.13-1.13 6.985-.6 12.995 1.59 18.028 2.2 5 5.92 8.834 11.16 11.505.3.152.61.3.92.444l-29.1 40.851h24.53l26.16-37.288h16.23l-6.19 37.288zm9.16-55.162h-15.07c-4.25 0-7.7-.583-10.34-1.747-2.6-1.164-4.42-2.91-5.45-5.239-.99-2.328-1.22-5.221-.67-8.68.59-3.492 1.77-6.437 3.55-8.834 1.82-2.397 4.23-4.212 7.25-5.444 3.05-1.267 6.72-1.9 11.01-1.9h15.01l-5.29 31.844zM826 54c0 25.405-20.595 46-46 46s-46-20.595-46-46 20.595-46 46-46 46 20.595 46 46z" fill="#21222E"/></symbol><symbol fill="none" viewBox="0 0 200 22" id="logo" xmlns="http://www.w3.org/2000/svg"><path d="M5.912 14.726a1.18 1.18 0 001.17-1.188 1.18 1.18 0 00-1.17-1.188 1.18 1.18 0 00-1.17 1.188 1.18 1.18 0 001.17 1.188zM10.911 7.706c.97 0 1.756-.798 1.756-1.782s-.786-1.782-1.756-1.782c-.969 0-1.755.798-1.755 1.782s.786 1.782 1.755 1.782zM15.908 10.244c.969 0 1.755-.798 1.755-1.782s-.786-1.782-1.755-1.782c-.97 0-1.756.798-1.756 1.782s.786 1.782 1.756 1.782zM20.857 12.782c.97 0 1.755-.798 1.755-1.782s-.786-1.782-1.755-1.782c-.97 0-1.755.798-1.755 1.782s.785 1.782 1.755 1.782zM15.908 15.32c.969 0 1.755-.798 1.755-1.782s-.786-1.782-1.755-1.782c-.97 0-1.756.798-1.756 1.782s.786 1.782 1.756 1.782zM25.86 15.32c.97 0 1.756-.798 1.756-1.782s-.786-1.782-1.755-1.782c-.97 0-1.756.798-1.756 1.782s.786 1.782 1.756 1.782zM25.858 19.748a1.18 1.18 0 001.17-1.188 1.18 1.18 0 00-1.17-1.188 1.18 1.18 0 00-1.17 1.188 1.18 1.18 0 001.17 1.188zM30.854 17.264a1.18 1.18 0 001.17-1.188 1.18 1.18 0 00-1.17-1.188 1.18 1.18 0 00-1.17 1.188 1.18 1.18 0 001.17 1.188zM30.857 12.782c.97 0 1.755-.798 1.755-1.782s-.786-1.782-1.755-1.782c-.97 0-1.755.798-1.755 1.782s.785 1.782 1.755 1.782zM25.86 10.244c.97 0 1.756-.798 1.756-1.782S26.83 6.68 25.86 6.68c-.97 0-1.756.798-1.756 1.782s.786 1.782 1.756 1.782zM20.858 17.264a1.18 1.18 0 001.17-1.188 1.18 1.18 0 00-1.17-1.188 1.18 1.18 0 00-1.17 1.188 1.18 1.18 0 001.17 1.188zM30.857 7.706c.97 0 1.755-.798 1.755-1.782s-.786-1.782-1.755-1.782c-.97 0-1.755.798-1.755 1.782s.785 1.782 1.755 1.782zM35.803 4.628a1.18 1.18 0 001.17-1.188 1.18 1.18 0 00-1.17-1.188 1.18 1.18 0 00-1.17 1.188 1.18 1.18 0 001.17 1.188zM35.803 14.726a1.18 1.18 0 001.17-1.188 1.18 1.18 0 00-1.17-1.188 1.18 1.18 0 00-1.17 1.188 1.18 1.18 0 001.17 1.188zM20.858 7.112a1.18 1.18 0 001.17-1.188 1.18 1.18 0 00-1.17-1.188 1.18 1.18 0 00-1.17 1.188 1.18 1.18 0 001.17 1.188zM15.916 19.748a1.18 1.18 0 001.17-1.188 1.18 1.18 0 00-1.17-1.188 1.18 1.18 0 00-1.17 1.188 1.18 1.18 0 001.17 1.188zM10.911 12.782c.97 0 1.756-.798 1.756-1.782s-.786-1.782-1.756-1.782c-.969 0-1.755.798-1.755 1.782s.786 1.782 1.755 1.782z" fill="#21222E"/><path d="M5.911 10.244c.97 0 1.756-.798 1.756-1.782S6.88 6.68 5.91 6.68c-.969 0-1.755.798-1.755 1.782s.786 1.782 1.755 1.782z" fill="#EC0B43"/><path d="M.965 16.778a.697.697 0 00.691-.702.697.697 0 00-.691-.702.697.697 0 00-.692.702c0 .388.31.702.692.702zM.965 11.702A.697.697 0 001.656 11a.697.697 0 00-.691-.702.697.697 0 00-.692.702c0 .388.31.702.692.702zM10.91 16.724a.697.697 0 00.692-.702.697.697 0 00-.692-.702.697.697 0 00-.691.702c0 .388.31.702.691.702zM10.91 1.604a.697.697 0 00.692-.702A.697.697 0 0010.91.2a.697.697 0 00-.691.702c0 .388.31.702.691.702zM20.86 21.8a.697.697 0 00.69-.702.697.697 0 00-.69-.702.697.697 0 00-.692.702c0 .388.31.702.691.702zM5.91 4.142a.697.697 0 00.692-.702.697.697 0 00-.692-.702.697.697 0 00-.691.702c0 .388.31.702.691.702zM15.91 4.142a.697.697 0 00.692-.702.697.697 0 00-.692-.702.697.697 0 00-.691.702c0 .388.31.702.691.702z" fill="#21222E"/><path d="M20.86 21.8a.697.697 0 00.69-.702.697.697 0 00-.69-.702.697.697 0 00-.692.702c0 .388.31.702.691.702zM45.75 9.164a.697.697 0 00.691-.702.697.697 0 00-.691-.702.697.697 0 00-.691.702c0 .388.31.702.691.702zM35.805 19.262a.697.697 0 00.691-.702.697.697 0 00-.691-.702.697.697 0 00-.692.702c0 .388.31.702.692.702zM40.802 7.706c.97 0 1.755-.798 1.755-1.782s-.786-1.782-1.755-1.782c-.97 0-1.755.798-1.755 1.782s.786 1.782 1.755 1.782zM35.802 10.244c.97 0 1.755-.798 1.755-1.782s-.786-1.782-1.755-1.782c-.97 0-1.755.798-1.755 1.782s.786 1.782 1.755 1.782zM40.8 16.778a.697.697 0 00.692-.702.697.697 0 00-.691-.702.697.697 0 00-.692.702c0 .388.31.702.692.702zM40.807 12.188A1.18 1.18 0 0041.977 11a1.18 1.18 0 00-1.17-1.188A1.18 1.18 0 0039.637 11a1.18 1.18 0 001.17 1.188zM25.855 4.142a.697.697 0 00.692-.702.697.697 0 00-.692-.702.697.697 0 00-.69.702c0 .388.309.702.69.702zM40.8 1.604a.697.697 0 00.692-.702.697.697 0 00-.691-.702.697.697 0 00-.692.702c0 .388.31.702.692.702zM45.75 4.142a.697.697 0 00.691-.702.697.697 0 00-.691-.702.697.697 0 00-.691.702c0 .388.31.702.691.702z" fill="#21222E"/><path d="M60.374 7.382c.16-.378.212-.702.106-.918 0-.162-.213-.27-.425-.378-.532-.216-.958 0-1.224.702l-1.861 4.698-2.66-4.86c-.16-.27-.319-.54-.531-.54a.896.896 0 00-.745 0c-.16.162-.32.378-.32.648s0 .54.214.81l3.19 5.724c-.106.378-.265.702-.425.864a.678.678 0 01-.532.216h-.266c-.106 0-.212 0-.319-.108l-.319-.108c-.532-.162-.797 0-.957.432-.213.54 0 .864.532 1.188.319.162.798.27 1.33.27.69 0 1.223-.27 1.595-.756.532-.378.904-1.188 1.33-2.16l2.393-5.778-.106.054zm2.66 8.64c.265 0 .53-.108.637-.324a.9.9 0 00.266-.648v-3.348H68.3v3.348c0 .27 0 .54.16.648.159.216.371.27.69.27.266 0 .532 0 .639-.27a.9.9 0 00.266-.648v-8.1c0-.27-.107-.54-.266-.648-.16-.216-.373-.27-.638-.27-.32 0-.532 0-.692.27-.16.162-.213.378-.213.648v3.132h-4.414V6.95c0-.27-.107-.54-.266-.648-.16-.216-.372-.27-.638-.27s-.532 0-.692.27a1.17 1.17 0 00-.212.648v8.1c0 .27.106.54.212.648.16.216.426.27.692.27l.106.054zm10.477 0c.266 0 .532-.216.85-.54l4.469-6.21v5.778c0 .27 0 .54.212.648.213.216.426.27.745.27.266 0 .532 0 .638-.27.16-.162.213-.378.213-.648v-8.1c0-.54-.266-.918-.851-.918-.32 0-.532.162-.851.54l-4.415 6.21V6.95c0-.27-.106-.54-.266-.648-.16-.216-.372-.27-.638-.27-.319 0-.532 0-.691.27-.16.162-.213.378-.213.648v8.1c0 .27.107.54.266.702.16.162.372.216.638.216l-.106.054zm15.211-5.4c.32-.162.532-.432.798-.756.266-.54.372-.864.372-1.35 0-1.728-1.223-2.7-3.616-2.7-.851 0-1.596.108-2.234.27-.532 0-.851.432-.851.972v7.83c0 .54.213.864.745.972.69.162 1.489.216 2.393.216 2.66 0 3.936-1.08 3.936-3.078 0-.54-.16-1.08-.532-1.512-.266-.432-.638-.702-1.064-.918l.053.054zm-2.446-.432H84.84v-2.7h1.276c1.33 0 1.915.432 1.915 1.296 0 .864-.532 1.35-1.755 1.35v.054zm1.755 4.05c-.372.162-.904.27-1.596.27H84.84v-2.97h1.595c1.383 0 2.128.54 2.128 1.512 0 .54-.213.918-.532 1.08v.108zm10.903 1.512a.699.699 0 00.213-.54c0-.324-.107-.54-.266-.648-.16-.162-.372-.216-.638-.216h-3.99v-2.7h3.086c.266 0 .531 0 .638-.216.16-.108.213-.324.213-.54 0-.27 0-.54-.213-.648a1.13 1.13 0 00-.638-.216h-3.085V7.652h3.83c.265 0 .531 0 .637-.216.16-.162.266-.324.266-.54 0-.324-.106-.54-.266-.648-.16-.162-.372-.216-.638-.216h-4.787c-.212 0-.532 0-.638.27-.16.162-.213.378-.213.648v8.1c0 .27 0 .54.266.648.107.216.32.27.532.27h4.947c.266 0 .531 0 .638-.216h.106zm8.776-6.588c0-1.08-.319-1.944-1.064-2.43-.532-.54-1.595-.756-2.659-.756-.851 0-1.596.108-2.234.216-.532.108-.798.432-.798 1.08v7.83c0 .27 0 .54.213.648.16.216.372.27.691.27.266 0 .532 0 .639-.27a.903.903 0 00.266-.648v-2.538h1.17c1.063 0 1.968-.216 2.659-.81.692-.54 1.064-1.404 1.064-2.538l.053-.054zm-4.946-1.512l1.063-.108c1.383 0 2.021.54 2.021 1.62 0 1.242-.691 1.782-2.021 1.782-.532 0-.797 0-1.063-.108v-3.24.054zm12.924 6.21c-.691.432-1.383.54-2.021.54-.798 0-1.436-.216-1.968-.864-.532-.54-.798-1.458-.798-2.538 0-1.08.266-1.89.745-2.538.798-1.08 2.127-1.242 3.829-.54.532.216.958.108 1.064-.27.266-.432.16-.81-.319-1.08-.532-.54-1.489-.702-2.659-.702-1.383 0-2.5.54-3.298 1.404-.798.972-1.223 2.16-1.223 3.78 0 1.62.372 2.808 1.063 3.78.851.864 1.968 1.35 3.458 1.35 1.17 0 2.127-.27 2.872-.864a1.65 1.65 0 00.532-.702c0-.216 0-.432-.16-.648-.213-.324-.532-.378-1.064-.108h-.053zm10.265-7.83c-.319 0-.532.162-.851.54l-4.414 6.21V6.95c0-.27-.107-.54-.266-.648-.213-.216-.426-.27-.692-.27-.319 0-.532 0-.691.27-.16.162-.213.378-.213.648v8.1c0 .27 0 .54.213.702.159.162.372.216.638.216s.532-.162.851-.54l4.468-6.156v5.778c0 .27 0 .54.212.648.16.216.373.27.692.27.266 0 .532 0 .638-.27.16-.162.213-.378.213-.648v-8.1c0-.54-.319-.918-.904-.918h.106zm10.85.81c0-.27-.106-.54-.266-.54-.159-.216-.372-.27-.638-.27h-6.648c-.266 0-.532 0-.639.216-.159.108-.212.324-.212.54 0 .27 0 .54.159.648.16.162.373.216.638.216h2.447v7.398c0 .27.106.54.266.648.16.216.372.27.691.27.266 0 .532 0 .639-.27a.903.903 0 00.266-.648V7.652h2.393c.266 0 .532 0 .638-.216.16-.162.266-.378.266-.54v-.054zm7.446 7.56h-4.095v-2.7h3.085c.266 0 .532-.108.638-.27a.667.667 0 00.266-.54c0-.27-.106-.54-.266-.648a1.13 1.13 0 00-.638-.216h-3.085V7.652h3.883c.266 0 .531 0 .638-.216a.701.701 0 00.213-.54c0-.324-.107-.54-.266-.648-.16-.162-.373-.216-.639-.216h-4.786c-.266 0-.532 0-.639.27a1.172 1.172 0 00-.212.648v8.1c0 .27.106.54.266.648.212.216.425.27.744.27h4.893c.213 0 .426 0 .532-.216.213-.162.319-.324.319-.54 0-.324-.106-.54-.266-.648a.754.754 0 00-.531-.216l-.054.054zm9.84-7.56c0-.27-.106-.54-.213-.54-.159-.216-.372-.27-.638-.27h-6.702c-.266 0-.425 0-.531.216a.596.596 0 00-.32.54c0 .27.107.54.266.648 0 .162.266.216.532.216h2.447v7.398c0 .27 0 .54.213.648.159.216.425.27.691.27.266 0 .532 0 .638-.27a.9.9 0 00.266-.648V7.652h2.447c.266 0 .532 0 .638-.216.106-.162.213-.378.213-.54l.053-.054zm13.456 8.208v-8.1c0-.54-.266-.918-.851-.918-.372 0-.691.162-.904.54l-4.361 6.156V6.95c0-.27-.107-.54-.266-.648-.16-.216-.373-.27-.692-.27-.266 0-.532 0-.638.27-.159.162-.213.378-.213.648v8.1c0 .27 0 .54.213.702.16.162.372.216.638.216s.532-.162.798-.54l4.415-6.048v5.778c0 .27.159.54.319.648.159.216.372.27.691.27.213 0 .426 0 .532-.27.213-.162.266-.378.266-.648l.053-.108zm9.042-9.018h-6.595c-.213 0-.426 0-.532.216-.213.108-.266.324-.266.54 0 .27 0 .54.213.648.106.162.319.216.532.216h2.499v7.398c0 .27 0 .54.213.648.213.216.426.27.745.27.266 0 .532 0 .638-.27a.9.9 0 00.266-.648V7.652h2.446c.266 0 .532 0 .639-.216.159-.162.266-.378.266-.54 0-.324-.107-.54-.266-.648-.16-.162-.373-.216-.639-.216h-.159zm10.637 0c-.372 0-.638.162-.904.54l-2.766 4.536-2.819-4.482c-.212-.54-.531-.648-.904-.648-.266 0-.532 0-.638.216a1.369 1.369 0 00-.213.702v8.1c0 .54.266.918.851.918.532 0 .851-.324.851-.918V9.488l1.968 3.24c.16.27.426.432.798.432.319 0 .532-.162.798-.54l1.968-3.24v5.67c0 .27 0 .54.212.648.213.216.426.27.745.27.266 0 .532 0 .638-.27a.9.9 0 00.266-.648v-8.1c0-.27 0-.54-.159-.648-.16-.216-.373-.27-.639-.27h-.053zm11.17 1.296c-.905-.972-2.128-1.458-3.511-1.458s-2.659.54-3.51 1.458c-.851.972-1.223 2.16-1.223 3.672s.425 2.7 1.276 3.672c.798.972 1.968 1.458 3.457 1.458 1.383 0 2.553-.54 3.404-1.458.798-.918 1.223-2.16 1.223-3.672 0-1.458-.425-2.7-1.223-3.672h.107zm-1.49 6.21c-.532.54-1.17.918-2.021.918-.957 0-1.595-.324-2.127-.918-.532-.648-.745-1.512-.745-2.538 0-1.026.266-1.89.745-2.538.532-.54 1.17-.918 2.127-.918.798 0 1.489.324 1.968.918.532.648.745 1.512.745 2.538 0 1.08-.16 1.89-.692 2.538z" fill="currentColor"/></symbol><symbol fill="none" viewBox="0 0 87 23" id="markweber" xmlns="http://www.w3.org/2000/svg"><path fill-rule="evenodd" clip-rule="evenodd" d="M46.773 5.76c.209.222 2.092 5.497 2.29 6.148.195.698.472 1.367.824 1.993.652.156.714-.534.91-1.081 1.072-2.957 2.696-7.268 3.509-10.173.566-1.407.615-1.784-.406-1.784-1.022 0-.911.703-1.317 1.615-.357 1.732-1.736 5.392-2.24 7.073 0 .221 0 .221-.26.221-.849-2.5-1.833-5.562-2.793-8.037-.259-.482-.714-.586-1.022.495-.517 1.72-1.23 3.765-1.785 5.432 0 0-.664 2.11-.714 2.214a6.724 6.724 0 01-.763-1.94c-.763-1.994-1.428-4.143-2.08-6.136-.16-.377-.16-.599-.517-.82a2.02 2.02 0 00-1.12-.104c-1.01.169-.357 1.029-.148 1.667 1.231 3.504 2.597 7.71 3.964 11.045a.507.507 0 00.15.21.467.467 0 00.477.068.484.484 0 00.197-.16c.197-.404 2.696-7.946 2.844-7.946zM.195 1.087c-.051.216-.034.445.049.65.209.913-.406 11.307-.246 11.724a2.337 2.337 0 001.587.156c.247-.274.148-.534.148-.964 0-1.837.148-3.608.148-5.497.061-.703.11-1.185.11-1.615 0-.43 0-.378.1-.482.098-.104 1.71 2.866 1.87 3.192.308.638.911 1.615 1.317 2.37.616 1.185.923.378 1.071.104.357-.482 3.114-5.6 3.311-5.705.185.209.185 5.328.185 5.705 0 2.8-.308 3.074 1.366 2.957.517 0 .566-.43.517-.912V9.918a130.683 130.683 0 01-.234-7.268c0-.274.099-1.303.099-1.46a.984.984 0 00-.579-.34.95.95 0 00-.652.12c-.357.22-.456.703-.714 1.028C8.614 3.94 7.223 6.14 6.25 7.977c-.357.651-.357.43-.665 0-.665-1.029-1.526-2.8-2.13-3.83l-1.23-2.149A4.48 4.48 0 001.573.97C1.228.71.551.917.195 1.087zM65.144 7.114a3.33 3.33 0 011.504-.747 3.23 3.23 0 011.659.095c1.625.756 1.834 3.296 1.12 4.533a2.68 2.68 0 01-1.253 1.06 2.51 2.51 0 01-1.603.1 3.591 3.591 0 01-1.427-.652v-4.39zm0-1.837a39.399 39.399 0 010-4.26c0-.586-.197-.69-.714-.481-1.231.547-1.231.325-1.059 1.51.099.6 0 7.542 0 8.52 0 1.927-.258 2.37 2.388 3.177a5.405 5.405 0 002.287.013 5.547 5.547 0 002.107-.937c2.598-2.254 1.884-8.61-2.855-8.128a8.99 8.99 0 00-1.231.156c-.16.052-.763.43-.837.43h-.086zM29.256 13.575c.192-.68.247-1.394.16-2.098-.05-.737-.05-1.477 0-2.214.147 0 .307.274.615.6.308.325 2.843 3.126 3.25 3.438.141.14.312.242.498.299.186.056.382.065.572.027.357 0 .924 0 1.12-.26 0-.379-.713-.978-1.021-1.303a20.291 20.291 0 01-1.059-1.186 22.402 22.402 0 01-2.19-2.357c0-.117 2.794-2.605 3.31-3.074.197-.222.407-.274.357-.6a3.126 3.126 0 00-1.944 0c-.247.118-1.933 1.733-2.388 2.163-.148.156-1.022 1.133-1.12 1.08-.148-.494 0-7.228-.099-7.606-.098-.378-1.834.221-1.785.873.097.457.146.925.148 1.393v9.314c0 .325-.099 1.302.11 1.459.48.13.98.147 1.466.052zM15.996 9.16c.566-.156 2.462.326 2.548.86.05.576.05 1.156 0 1.732-.357.482-2.806 1.446-3.619-.274a1.913 1.913 0 010-1.563c.118-.198.275-.368.46-.498.184-.13.392-.218.611-.257zm2.597-.651a4.325 4.325 0 00-1.575-.69c-.701-.083-1.41-.03-2.093.156a2.794 2.794 0 00-1.446 1.04 3.067 3.067 0 00-.578 1.748c-.011.632.17 1.252.517 1.768.346.516.84.9 1.409 1.097.973.351 2.03.351 3.003 0 .21-.105.616-.378.763-.43.148-.052.21.378.407.482.196.104 1.12 0 1.378-.26.259-.261.308-.222.148-.6a2.835 2.835 0 01-.246-1.615V7.323a2.383 2.383 0 00-.357-1.563c-.973-2.045-6.832-1.237-6.364.495.468 1.733 1.23-.599 3.816-.273 1.39.156 1.243 1.563 1.243 2.527h-.025zM78.84 8.249H74.62a2.372 2.372 0 01.652-1.407c.399-.37.9-.594 1.428-.638.275-.024.552.01.815.103.262.091.504.238.711.431.21.182.374.414.481.677.107.262.153.548.135.834zm-4.332 1.394c.308-.157 4.924 0 5.76 0 .838 0 .456-2.905-1.07-4.09a3.933 3.933 0 00-4.382-.365 4.237 4.237 0 00-1.65 1.676 4.566 4.566 0 00-.553 2.349 4.64 4.64 0 00.508 2.293 4.328 4.328 0 001.547 1.693c1.366.977 5.034.925 5.49-.586.566-1.941-.763-.86-1.231-.652-.393.17-.808.28-1.23.326-2.721.325-3.386-2.215-3.189-2.644zM56.04 8.243a2.279 2.279 0 01.67-1.454c.387-.378.895-.59 1.423-.59 1.058-.118 2.29.86 2.08 2.044H56.04zm-.209 1.303h5.711c.665 0 .554-.43.505-.964a4.351 4.351 0 00-.618-2.034 4.046 4.046 0 00-1.487-1.446 3.774 3.774 0 00-1.967-.48 3.795 3.795 0 00-1.935.613A4.292 4.292 0 0054.49 6.95a4.602 4.602 0 00-.48 2.321c-.052.796.117 1.59.487 2.284a3.96 3.96 0 001.593 1.624c1.736 1.133 5.146.651 5.453-.638 0-.378.247-1.303-.307-1.081-.67.4-1.398.677-2.154.82a2.914 2.914 0 01-1.207-.083 3.013 3.013 0 01-1.083-.568c-.443-.378-1.157-1.51-.96-2.084zM83.477 13.626c.308-.325.258-.482.258-.963V11.36c0-1.72-.307-4.572 1.576-5.002.406-.104.505.26 1.022.156a2.53 2.53 0 00.664-1.068c0-.82-1.23-.977-2.35-.442-.358.169-.653.755-.912.807 0-.482.099-.69-.209-1.12-.394.04-.776.169-1.12.378-.505.26-.603.26-.505.911.099.652 0 5.12 0 6.188.05 1.628.05 1.576 1.576 1.458zM23.459 13.574v-.104c.143-1.323.18-2.656.11-3.986 0-1.029.247-2.696 1.318-3.022.861-.325.91.534 1.477 0 1.317-1.458-.456-2.045-1.527-1.563-1.07.482-.923.86-1.23.964a2.747 2.747 0 010-.638c0-.274-.111-.274-.21-.43a2.041 2.041 0 00-1.12.326c-.505.208-.665.26-.505.912.109.998.142 2.004.099 3.008v2.97c.11 1.615-.098 1.733 1.588 1.563z" fill="#21222E"/><path fill-rule="evenodd" clip-rule="evenodd" d="M46.413 15.307c-2.032.265-4.03.768-5.957 1.498-.604.274-1.231.43-1.835.704-1.23.482-2.388.911-3.606 1.406-.406.157-3.311 1.068-3.816 1.186-2.462.638-6.154 1.393-8.505.26-1.12-.586-1.231 1.238 1.317 1.889 1.49.276 3.019.205 4.48-.209 1.231-.273 2.708-.755 3.877-1.133 1.17-.378 2.548-.807 3.816-1.185.308-.117.554-.222.911-.326l1.883-.599c.357-.104.616-.26.924-.378l1.944-.482c.357-.104.616-.208.924-.325a34.974 34.974 0 017.84-.86c.653 0 1.625.17 2.29.274 1.23.156.96-.534.148-.977a12.286 12.286 0 00-6.635-.743z" fill="#F9CC46"/></symbol><symbol fill="none" viewBox="0 0 1409 110" id="organizers" xmlns="http://www.w3.org/2000/svg"><path fill-rule="evenodd" clip-rule="evenodd" d="M100.819 55c0 11.676-2.226 21.61-6.676 29.8C89.728 92.991 83.7 99.248 76.06 103.57 68.456 107.856 59.906 110 50.409 110c-9.566 0-18.152-2.161-25.756-6.483-7.605-4.322-13.614-10.578-18.03-18.769C2.208 76.558 0 66.641 0 55c0-11.676 2.208-21.61 6.623-29.8 4.416-8.191 10.425-14.43 18.03-18.717C32.257 2.16 40.843 0 50.409 0c9.497 0 18.047 2.161 25.652 6.483C83.7 10.77 89.727 17.009 94.143 25.2c4.45 8.19 6.676 18.124 6.676 29.8zm-23.076 0c0-7.563-1.14-13.942-3.417-19.135-2.243-5.193-5.414-9.132-9.514-11.816-4.1-2.683-8.901-4.025-14.403-4.025-5.502 0-10.302 1.342-14.402 4.025-4.1 2.684-7.29 6.623-9.567 11.816-2.243 5.193-3.364 11.572-3.364 19.135 0 7.563 1.121 13.942 3.364 19.135 2.278 5.193 5.467 9.132 9.567 11.816 4.1 2.683 8.9 4.025 14.402 4.025 5.502 0 10.303-1.342 14.403-4.025 4.1-2.684 7.271-6.623 9.514-11.816 2.278-5.193 3.417-11.572 3.417-19.135zm29.574-53.536h71.435v18.664h-48.675v20.913h17.504c8.516 0 15.857 1.377 22.025 4.13 6.203 2.719 10.986 6.57 14.35 11.554 3.364 4.984 5.046 10.857 5.046 17.62 0 6.726-1.682 12.669-5.046 17.827-3.364 5.124-8.147 9.132-14.35 12.025-6.168 2.893-13.509 4.339-22.025 4.339h-40.264V1.464zm22.76 88.878h17.504c4.065 0 7.5-.732 10.303-2.196 2.804-1.498 4.924-3.468 6.36-5.907 1.472-2.475 2.208-5.176 2.208-8.104 0-4.252-1.629-7.842-4.888-10.77-3.224-2.963-7.885-4.444-13.983-4.444h-17.504v31.421zm176.709-4.757c5.642-7.982 9.445-17.689 11.407-29.121 1.962-11.885 1.367-22.028-1.787-30.428-3.119-8.435-8.218-14.883-15.296-19.344C294.066 2.231 285.691 0 275.984 0c-9.357 0-18.1 2.109-26.23 6.326-8.13 4.183-15.016 10.282-20.658 18.299-5.642 7.981-9.409 17.706-11.301 29.172-1.962 11.851-1.367 21.976 1.787 30.376 3.154 8.365 8.253 14.76 15.296 19.187 7.079 4.427 15.507 6.64 25.284 6.64 9.321 0 18.012-2.074 26.072-6.221 8.095-4.148 14.946-10.213 20.552-18.194zm27.052-84.121h42.472c8.13 0 14.805 1.55 20.027 4.653 5.256 3.067 8.936 7.337 11.038 12.809 2.138 5.437 2.629 11.71 1.472 18.821-1.191 7.145-3.784 13.437-7.779 18.874-3.96 5.402-9.112 9.62-15.454 12.652-6.343 3.032-13.667 4.548-21.972 4.548h-19.085l-5.831 34.715h-22.76L333.838 1.464zm29.12 54.216h-15.354l5.998-35.709h15.349c4.38 0 7.867.75 10.46 2.249 2.628 1.463 4.433 3.52 5.414 6.169.981 2.649 1.174 5.768.578 9.358-.56 3.52-1.769 6.64-3.627 9.358-1.857 2.684-4.362 4.793-7.516 6.327-3.119 1.498-6.886 2.248-11.302 2.248zm124.638-35.552l3.153-18.664h-71.435l-17.872 107.072h22.761l14.718-88.408h48.675zm-5.106 88.408h-24.389L513.136 1.464h29.33l19.239 107.072h-24.39l-3.868-24.415h-38.869l-12.088 24.415zm41.737-82.604l6.42 40.518h-27.321l20.06-40.518h.841zm80.706-24.468h-22.76l-17.872 107.072h22.76l7.359-44.23h46.204l-7.359 44.23h22.708L673.845 1.464h-22.708l-7.359 44.178h-46.204l7.359-44.178zm77.316 0h22.708l-11.249 67.338h.946L752.37 1.464h19.922L754.42 108.536h-22.761l11.249-67.39h-.788l-58.031 67.39h-19.712L682.249 1.464zm99.905 104.51c5.818 2.684 12.756 4.026 20.816 4.026 7.92 0 15.121-1.29 21.604-3.869 6.483-2.579 11.827-6.152 16.032-10.718 4.205-4.565 6.781-9.811 7.727-15.736 1.121-6.832-.175-12.635-3.89-17.41-3.679-4.775-9.146-7.65-16.4-8.626v-.785c6.483-1.045 11.897-3.346 16.243-6.9 4.38-3.59 7.078-8.453 8.095-14.587.911-5.577.175-10.735-2.208-15.476-2.348-4.775-6.133-8.608-11.354-11.501C833.598 1.464 827.185 0 819.58 0c-7.148 0-13.807 1.342-19.974 4.026-6.133 2.649-11.266 6.326-15.401 11.031-4.101 4.705-6.694 10.143-7.78 16.312h21.709c.456-2.719 1.7-5.089 3.732-7.11 2.033-2.022 4.521-3.573 7.464-4.654a25.465 25.465 0 019.094-1.672c3.084 0 5.589.522 7.517 1.568 1.962 1.01 3.329 2.457 4.1 4.34.806 1.847.998 4.008.578 6.482-.491 3.032-1.7 5.699-3.627 8-1.927 2.3-4.363 4.095-7.307 5.384-2.908 1.29-6.115 1.935-9.619 1.935h-9.461l-2.786 16.625h10.46c3.995 0 7.342.54 10.04 1.62 2.698 1.081 4.661 2.632 5.887 4.654 1.227 1.987 1.612 4.392 1.156 7.215-.455 2.962-1.699 5.629-3.732 7.999-1.997 2.335-4.52 4.182-7.569 5.542-3.049 1.359-6.378 2.039-9.987 2.039-3.224 0-6.027-.54-8.41-1.621-2.348-1.08-4.118-2.614-5.309-4.6-1.157-1.988-1.56-4.27-1.209-6.85h-22.603c-.981 6.24-.088 11.746 2.681 16.521 2.803 4.775 7.113 8.505 12.93 11.188zm86.476 2.562h-24.39L899.275 1.464h29.331l19.238 107.072h-24.389l-3.869-24.415h-38.869l-12.087 24.415zm41.736-82.604l6.42 40.518h-27.32l20.059-40.518h.841zm40.692-24.468l-3.154 18.664h32.958l-14.718 88.408h22.497l14.719-88.408h32.96l3.15-18.664h-88.412zm177.482 55c-1.97 11.432-5.77 21.139-11.41 29.12-5.61 7.982-12.46 14.047-20.55 18.195-8.06 4.147-16.75 6.221-26.08 6.221-9.77 0-18.2-2.213-25.28-6.64-7.04-4.426-12.14-10.822-15.3-19.187-3.15-8.4-3.75-18.525-1.78-30.376 1.89-11.466 5.66-21.19 11.3-29.172 5.64-8.017 12.53-14.116 20.66-18.299C1068.23 2.109 1076.97 0 1086.33 0c9.7 0 18.08 2.23 25.12 6.692 7.08 4.461 12.18 10.91 15.3 19.344 3.15 8.4 3.75 18.543 1.79 30.428zm-22.66-2.666c1.23-7.355 1.17-13.524-.16-18.508-1.29-5.02-3.68-8.818-7.15-11.397-3.47-2.58-7.85-3.87-13.14-3.87-5.74 0-11.02 1.43-15.82 4.288-4.77 2.858-8.8 7.006-12.09 12.443-3.26 5.402-5.52 11.972-6.78 19.71-1.26 7.389-1.23 13.558.1 18.508 1.37 4.949 3.81 8.696 7.31 11.24 3.54 2.51 7.94 3.764 13.2 3.764 5.71 0 10.93-1.394 15.66-4.182 4.77-2.823 8.78-6.919 12.04-12.286 3.26-5.403 5.53-11.973 6.83-19.71zm80.77-52.334h-42.47l-17.87 107.072h22.76l5.83-34.715h19.08c8.31 0 15.63-1.516 21.98-4.548 6.34-3.032 11.49-7.25 15.45-12.652 3.99-5.438 6.59-11.729 7.78-18.874 1.16-7.11.67-13.384-1.47-18.821-2.11-5.472-5.78-9.742-11.04-12.81-5.22-3.101-11.9-4.652-20.03-4.652zm-28.7 54.216h15.35c4.42 0 8.18-.75 11.3-2.248 3.16-1.534 5.66-3.643 7.52-6.327 1.86-2.718 3.06-5.838 3.63-9.358.59-3.59.4-6.71-.58-9.358-.98-2.65-2.79-4.706-5.42-6.17-2.59-1.498-6.08-2.248-10.46-2.248h-15.35l-5.99 35.709zm59.96 52.856h-24.39l55.03-107.072h29.33l18.78 104.512L1337.35 55l-24.23-53.536h25.08l15.55 36.492h.85l27.96-36.492H1409L1367.32 55l24.54 53.536h-25.7l-15.98-36.544h-.84l-28.18 36.544h-48.43l-3.87-24.415H1230l-12.09 24.415zm41.73-82.604l6.42 40.518h-27.32l20.06-40.518h.84zM315 54c0 25.405-20.595 46-46 46s-46-20.595-46-46 20.595-46 46-46 46 20.595 46 46z" fill="#21222E"/></symbol></svg>