<svg width="324" height="370" viewBox="0 0 324 370" fill="none" xmlns="http://www.w3.org/2000/svg">
<g clip-path="url(#clip0_132_6430)">
<path d="M155.485 347.105L155.072 337.822C155.029 337.799 154.986 337.777 154.943 337.754C150.519 335.433 145.448 339.635 146.861 344.427C148.191 348.935 149.084 353.796 151.518 357.742C152.956 360.034 154.892 361.973 157.181 363.416C159.471 364.859 162.056 365.768 164.744 366.076L170.366 369.517C171.137 365.217 170.967 360.802 169.867 356.575C168.767 352.347 166.764 348.408 163.995 345.03C162.423 343.15 160.621 341.475 158.63 340.045C157.284 343.595 155.485 347.105 155.485 347.105Z" fill="#EFF1F4"/>
<path d="M105.156 252.901C94.3336 241.741 78.6501 235.341 62.1271 235.341L61.4898 235.343C50.6066 235.347 39.9176 232.461 30.516 226.98L29.5376 226.41L30.3256 225.598C34.5915 221.186 38.1535 216.143 40.8869 210.648C38.9456 212.458 36.6302 213.819 34.1046 214.634C31.579 215.45 28.9049 215.701 26.2717 215.369C23.4916 215.038 20.8226 214.081 18.465 212.571C16.1074 211.061 14.1224 209.037 12.6587 206.651C6.88381 197.283 0 183.99 0 173.864C0.00898957 165.304 1.80152 156.84 5.26334 149.012C8.72516 141.183 13.7803 134.162 20.1066 128.395C24.1117 124.784 27.3107 120.37 29.4952 115.44C31.6796 110.511 32.8003 105.176 32.7844 99.7843L32.7812 99.017C32.7801 91.9183 33.6477 84.8462 35.3647 77.9583L35.539 77.2627L36.2548 77.2878C40.8705 77.4448 45.4887 77.058 50.0139 76.1353C45.7692 75.6147 41.6168 74.5105 37.6743 72.8539L36.9043 72.5424L37.1657 71.7535C55.1794 60.6021 95.8416 66.3769 119.443 12.3878C138.581 -31.39 206.105 51.2494 206.105 99.017C206.105 103.891 201.28 110.332 204.892 113.554C243.934 148.379 216.996 170.741 208.502 193.243C206.487 198.582 210.857 204.443 210.857 210.219C210.857 211.2 210.832 212.211 210.782 213.226L210.707 214.787L209.405 213.921C206.83 212.234 204.443 210.277 202.285 208.082C204.524 213.233 205.579 218.821 205.373 224.434C205.166 230.047 203.704 235.543 201.093 240.516C197.001 248.237 193.043 253.765 189.328 256.944C177.427 267.127 162.085 272.379 146.439 271.628C130.794 270.876 116.026 264.177 105.156 252.901Z" fill="#EFF1F4"/>
<path d="M170.521 369.059C170.787 369.059 171.044 368.963 171.245 368.788C171.446 368.614 171.577 368.373 171.614 368.109C171.661 367.779 176.263 334.596 172.13 290.495C168.313 249.766 156.056 191.102 119.338 142.923C119.25 142.807 119.14 142.71 119.015 142.636C118.889 142.563 118.75 142.515 118.606 142.496C118.462 142.476 118.316 142.485 118.175 142.522C118.035 142.56 117.903 142.624 117.787 142.712C117.672 142.8 117.574 142.91 117.501 143.036C117.428 143.161 117.381 143.3 117.361 143.444C117.342 143.588 117.351 143.735 117.389 143.875C117.426 144.016 117.49 144.147 117.579 144.263C153.98 192.026 166.138 250.26 169.928 290.701C174.037 334.546 169.471 367.47 169.425 367.798C169.403 367.955 169.414 368.114 169.459 368.266C169.504 368.418 169.581 368.559 169.685 368.678C169.789 368.798 169.917 368.894 170.062 368.96C170.206 369.025 170.362 369.059 170.521 369.059Z" fill="#21222E"/>
<path d="M140.557 210.882C140.791 210.882 141.019 210.808 141.208 210.671C141.397 210.534 141.537 210.34 141.61 210.118C141.682 209.896 141.682 209.657 141.61 209.435C141.538 209.213 141.397 209.019 141.208 208.882C141.075 208.785 127.642 199.108 107.561 191.756C88.9971 184.961 60.768 178.801 31.7067 188.049C31.5681 188.093 31.4395 188.163 31.3283 188.257C31.2171 188.35 31.1254 188.465 31.0585 188.594C30.9917 188.723 30.9509 188.864 30.9386 189.009C30.9262 189.154 30.9426 189.299 30.9866 189.438C31.0307 189.576 31.1017 189.705 31.1954 189.816C31.2892 189.927 31.404 190.018 31.5331 190.085C31.6623 190.152 31.8034 190.192 31.9482 190.204C32.0931 190.216 32.2389 190.2 32.3773 190.156C60.8433 181.098 88.5606 187.156 106.8 193.833C126.595 201.08 139.777 210.575 139.908 210.67C140.097 210.808 140.324 210.882 140.557 210.882Z" fill="#21222E"/>
<path d="M191.169 84.8492C191.186 84.6163 191.129 84.384 191.006 84.1855C190.883 83.9871 190.7 83.8328 190.484 83.7447C190.267 83.6566 190.029 83.6393 189.802 83.6952C189.575 83.7512 189.372 83.8774 189.221 84.056C189.115 84.1819 178.494 96.8803 169.714 116.377C161.599 134.4 153.42 162.107 160.553 191.753C160.621 192.038 160.8 192.284 161.05 192.437C161.3 192.591 161.601 192.638 161.886 192.569C162.171 192.501 162.418 192.322 162.571 192.072C162.724 191.822 162.771 191.521 162.703 191.236C155.717 162.197 163.757 134.993 171.731 117.284C180.385 98.0664 190.808 85.6051 190.912 85.4814C191.063 85.3033 191.153 85.0819 191.169 84.8492Z" fill="#21222E"/>
<path d="M189.673 141.859C190.606 149.385 195.822 155.591 203.408 155.591C207.05 155.591 210.543 154.144 213.119 151.569C215.695 148.994 217.142 145.501 217.142 141.859C217.142 134.275 210.96 128.828 203.408 128.127C195.394 127.383 188.475 132.196 189.673 141.859Z" fill="#2F2E41"/>
<path d="M209.768 363.011L214.998 363.011L217.486 342.841L209.767 342.841L209.768 363.011Z" fill="#FFB6B6"/>
<path d="M209.584 368.466L225.668 368.465V368.262C225.668 366.602 225.008 365.01 223.834 363.836C222.66 362.662 221.068 362.003 219.408 362.003H219.407L216.469 359.774L210.988 362.003L209.584 362.003L209.584 368.466Z" fill="#21222E"/>
<path d="M189.168 363.011L194.398 363.011L196.886 342.841L189.167 342.841L189.168 363.011Z" fill="#FFB6B6"/>
<path d="M188.983 368.466L205.067 368.465V368.262C205.066 366.602 204.407 365.01 203.233 363.836C202.059 362.662 200.467 362.003 198.806 362.003H198.806L195.868 359.774L190.387 362.003L188.983 362.003L188.983 368.466Z" fill="#21222E"/>
<path d="M227.767 236.682L231.465 249.357L227.109 303.041C227.109 303.041 229.352 306.397 227.767 306.397C226.182 306.397 224.15 307.142 225.431 309.146C226.711 311.151 222.335 318.347 222.335 318.347L216.146 356.571L208.26 356.455C208.26 356.455 204.25 354.222 206.5 351.964C208.75 349.705 210.335 349.706 208.222 347.593C206.109 345.48 206.109 346.117 206.109 344.478C206.109 342.84 203.992 322.816 209.012 315.135L207.5 283.818L203.937 314.536L196.601 355.515L189.004 355.453C189.004 355.453 185.495 352.071 185.501 349.568C185.508 347.065 187.669 346.857 186.06 345.376C184.451 343.896 184.451 321.152 189.205 308.51C189.205 308.51 191.895 301.447 189.199 299.026C186.504 296.606 189.196 293.836 189.196 293.836C189.196 293.836 193.465 292.293 189.192 287.848C184.919 283.402 189.169 251.961 189.169 251.961C189.169 251.961 184.498 239.269 189.229 234.278C193.96 229.288 227.767 236.682 227.767 236.682Z" fill="#21222E"/>
<path d="M161.909 258.521L168.506 242.581L173.704 245.468L170.565 261.684C170.879 262.711 170.901 263.806 170.627 264.844C170.353 265.883 169.795 266.825 169.015 267.564C168.235 268.304 167.265 268.811 166.213 269.028C165.16 269.246 164.068 269.166 163.059 268.798C162.05 268.429 161.163 267.786 160.499 266.941C159.836 266.097 159.421 265.083 159.301 264.016C159.181 262.948 159.362 261.868 159.823 260.898C160.283 259.927 161.006 259.104 161.909 258.521Z" fill="#FFB6B6"/>
<path d="M272.614 132.467L262.575 146.499L258.167 142.509L264.899 127.426C264.826 126.355 265.053 125.284 265.555 124.334C266.057 123.384 266.814 122.593 267.741 122.05C268.668 121.506 269.729 121.232 270.803 121.259C271.877 121.285 272.923 121.61 273.822 122.198C274.722 122.785 275.439 123.612 275.894 124.586C276.35 125.559 276.524 126.64 276.399 127.707C276.273 128.774 275.852 129.784 275.184 130.625C274.515 131.466 273.625 132.104 272.614 132.467Z" fill="#FFB6B6"/>
<path d="M228.763 237.982C235.274 248.079 202.545 260.894 189.987 255.749C187.788 254.848 180.224 251.873 185.395 247.748C190.565 243.623 184.795 243.042 184.659 240.357C184.568 238.562 185.958 234.623 184.507 234.792C183.057 234.961 181.359 232.478 184.518 231.41C187.677 230.342 184.552 229.367 184.58 228.353C184.882 217.286 193.375 199.682 193.375 199.682L178.071 238.795C178.071 238.795 178.184 245.561 176.233 243.494C174.281 241.426 174.423 248.118 174.423 248.118C174.423 248.118 171.521 250.143 173.19 251.27C174.859 252.397 171.393 255.862 171.393 255.862L163.308 255.284C163.308 255.284 163.434 249.279 164.815 247.951C166.195 246.623 165.517 244.533 165.517 244.533C165.517 244.533 169.112 241.352 166.702 238.769C163.603 235.446 174.902 179.336 178.802 179.892C179.353 177.209 180.636 174.731 182.508 172.732C184.38 170.732 186.768 169.289 189.409 168.562L198.142 166.158L199.693 160.006H211.99L214.132 164.049L223.481 168.267C225.241 165.782 226.557 163.165 233.768 162.316C233.768 162.316 253.198 144.641 252.25 143.261C251.301 141.88 254.313 138.649 254.313 138.649C254.313 138.649 256.885 137.808 255.434 137.358C253.982 136.909 256.726 135.87 256.726 135.87C256.726 135.87 259.267 135.202 258.069 134.323C256.87 133.444 262.068 132.867 262.068 132.867L268.812 138.368L267.449 140.679C267.449 140.679 268.28 143.826 267.196 142.677C266.111 141.528 265.907 144.862 265.907 144.862C265.907 144.862 265.353 148.513 262.068 149.613C258.783 150.712 256.293 161.161 256.293 161.161C248.546 171.232 239.404 179.087 228.57 184.259C232.793 189.104 228.763 237.982 228.763 237.982Z" fill="#55B2E5"/>
<path d="M204.925 156.406C211.651 156.406 217.104 150.955 217.104 144.23C217.104 137.504 211.651 132.053 204.925 132.053C198.199 132.053 192.746 137.504 192.746 144.23C192.746 150.955 198.199 156.406 204.925 156.406Z" fill="#FFB6B6"/>
<path d="M192.313 145.556C192.699 148.202 194.955 151.894 194.426 151.894C193.898 151.894 190.142 140.986 193.898 140.275C196.623 139.759 197.231 140.211 199.778 139.108L199.418 139.446C201.103 140.671 203.449 139.916 205.372 139.118C207.3 138.326 209.64 137.571 211.33 138.791C212.392 139.557 212.841 140.887 213.501 142.018C214.162 143.153 215.382 144.225 216.639 143.877C217.648 143.597 218.229 142.467 218.224 141.421C218.219 140.375 216.857 139.38 217.315 138.442C218.675 135.662 217.452 133.767 214.489 132.458C213.412 132.295 212.334 132.127 211.256 131.956C211.821 131.174 212.506 130.486 213.285 129.918C212.956 129.074 212.386 128.345 211.647 127.821C210.786 127.309 209.719 127.346 208.721 127.399C206.492 127.515 204.264 127.631 202.038 127.747C200.39 127.832 198.684 127.932 197.21 128.687C195.372 129.633 194.168 131.476 193.291 133.351C191.326 137.565 191.637 140.956 192.313 145.556Z" fill="#2F2E41"/>
<path d="M141.65 369.838L261.429 370.001C261.596 370.001 261.756 369.934 261.874 369.816C261.992 369.699 262.058 369.539 262.058 369.372C262.058 369.205 261.992 369.045 261.874 368.927C261.756 368.809 261.596 368.743 261.429 368.743L141.65 368.581C141.483 368.581 141.323 368.647 141.205 368.765C141.087 368.883 141.021 369.043 141.021 369.209C141.021 369.376 141.087 369.536 141.205 369.654C141.323 369.772 141.483 369.838 141.65 369.838Z" fill="#A4A5BB"/>
<path d="M98.3285 315.02C98.5493 313.503 96.9597 312.016 94.7781 311.698C92.5965 311.381 90.6489 312.354 90.4281 313.871C90.2073 315.389 91.7969 316.876 93.9785 317.193C96.1601 317.511 98.1077 316.538 98.3285 315.02Z" fill="#E6E6E6"/>
<path d="M124.303 312.487C124.524 310.97 122.934 309.483 120.753 309.165C118.571 308.848 116.624 309.821 116.403 311.338C116.182 312.855 117.771 314.343 119.953 314.66C122.135 314.977 124.082 314.005 124.303 312.487Z" fill="#21222E"/>
<path d="M91.2161 293.997C91.4369 292.479 89.8474 290.992 87.6658 290.674C85.4842 290.357 83.5366 291.33 83.3158 292.847C83.095 294.365 84.6846 295.852 86.8662 296.169C89.0478 296.487 90.9953 295.514 91.2161 293.997Z" fill="#FF6584"/>
<path d="M79.9299 285.385C79.9404 283.992 79.1632 282.856 78.194 282.849C77.2248 282.842 76.4305 283.965 76.42 285.358C76.4094 286.751 77.1866 287.886 78.1558 287.894C79.1251 287.901 79.9193 286.778 79.9299 285.385Z" fill="#E6E6E6"/>
<path d="M76.1022 269.344C76.1127 267.951 75.3356 266.816 74.3663 266.809C73.3971 266.801 72.6029 267.925 72.5923 269.318C72.5818 270.711 73.359 271.846 74.3282 271.853C75.2974 271.86 76.0917 270.737 76.1022 269.344Z" fill="#21222E"/>
<path d="M105.865 297.575C105.876 296.182 105.099 295.046 104.13 295.039C103.16 295.032 102.366 296.155 102.356 297.548C102.345 298.941 103.122 300.076 104.091 300.084C105.061 300.091 105.855 298.968 105.865 297.575Z" fill="#E6E6E6"/>
<path d="M93.3141 303.839C93.3246 302.446 92.5475 301.311 91.5782 301.304C90.609 301.296 89.8148 302.42 89.8042 303.813C89.7937 305.206 90.5708 306.341 91.5401 306.348C92.5093 306.356 93.3036 305.232 93.3141 303.839Z" fill="#FF6584"/>
<path d="M110.787 315.42C110.798 314.027 110.021 312.892 109.051 312.885C108.082 312.877 107.288 314.001 107.277 315.394C107.267 316.787 108.044 317.922 109.013 317.929C109.982 317.937 110.777 316.813 110.787 315.42Z" fill="#21222E"/>
<path d="M298.005 233.686C298.226 232.169 296.636 230.681 294.455 230.364C292.273 230.047 290.326 231.019 290.105 232.537C289.884 234.054 291.474 235.541 293.655 235.859C295.837 236.176 297.784 235.203 298.005 233.686Z" fill="#CCCDE2"/>
<path d="M323.979 231.151C324.2 229.634 322.611 228.147 320.429 227.829C318.247 227.512 316.3 228.485 316.079 230.002C315.858 231.519 317.448 233.007 319.629 233.324C321.811 233.642 323.759 232.669 323.979 231.151Z" fill="#21222E"/>
<path d="M290.892 212.661C291.113 211.143 289.523 209.656 287.342 209.339C285.16 209.021 283.212 209.994 282.992 211.511C282.771 213.029 284.36 214.516 286.542 214.833C288.724 215.151 290.671 214.178 290.892 212.661Z" fill="#FF6584"/>
<path d="M279.606 204.049C279.616 202.656 278.839 201.52 277.87 201.513C276.901 201.506 276.106 202.629 276.096 204.022C276.085 205.415 276.862 206.55 277.832 206.558C278.801 206.565 279.595 205.442 279.606 204.049Z" fill="#CCCDE2"/>
<path d="M275.778 188.008C275.789 186.615 275.012 185.48 274.043 185.473C273.073 185.465 272.279 186.589 272.269 187.982C272.258 189.375 273.035 190.51 274.004 190.517C274.974 190.525 275.768 189.401 275.778 188.008Z" fill="#21222E"/>
<path d="M305.542 216.238C305.553 214.845 304.775 213.71 303.806 213.703C302.837 213.695 302.043 214.819 302.032 216.212C302.022 217.605 302.799 218.74 303.768 218.747C304.737 218.754 305.532 217.631 305.542 216.238Z" fill="#CCCDE2"/>
<path d="M292.99 222.505C293 221.112 292.223 219.977 291.254 219.969C290.285 219.962 289.491 221.085 289.48 222.478C289.469 223.871 290.247 225.006 291.216 225.014C292.185 225.021 292.979 223.898 292.99 222.505Z" fill="#FF6584"/>
<path d="M310.463 234.086C310.474 232.693 309.697 231.558 308.728 231.551C307.758 231.543 306.964 232.667 306.954 234.06C306.943 235.453 307.72 236.588 308.69 236.595C309.659 236.603 310.453 235.479 310.463 234.086Z" fill="#21222E"/>
<path d="M201.336 83.163C201.557 81.6457 199.968 80.1583 197.786 79.841C195.604 79.5236 193.657 80.4964 193.436 82.0138C193.215 83.5311 194.805 85.0185 196.986 85.3359C199.168 85.6532 201.115 84.6804 201.336 83.163Z" fill="white"/>
<path d="M227.311 80.6299C227.532 79.1125 225.942 77.6252 223.761 77.3078C221.579 76.9904 219.631 77.9632 219.411 79.4806C219.19 80.998 220.779 82.4853 222.961 82.8027C225.143 83.12 227.09 82.1472 227.311 80.6299Z" fill="#21222E"/>
<path d="M194.224 62.1391C194.445 60.6217 192.855 59.1344 190.674 58.8171C188.492 58.4997 186.544 59.4725 186.324 60.9898C186.103 62.5072 187.692 63.9946 189.874 64.3119C192.056 64.6293 194.003 63.6565 194.224 62.1391Z" fill="#FF6584"/>
<path d="M182.937 53.5272C182.948 52.1342 182.171 50.999 181.201 50.9917C180.232 50.9844 179.438 52.1077 179.427 53.5007C179.417 54.8937 180.194 56.0289 181.163 56.0362C182.132 56.0435 182.927 54.9202 182.937 53.5272Z" fill="#CCCDE2"/>
<path d="M179.11 37.4867C179.12 36.0937 178.343 34.9585 177.374 34.9512C176.404 34.9438 175.61 36.0671 175.6 37.4602C175.589 38.8532 176.366 39.9884 177.335 39.9957C178.305 40.003 179.099 38.8797 179.11 37.4867Z" fill="#21222E"/>
<path d="M208.874 65.7167C208.884 64.3237 208.107 63.1885 207.138 63.1811C206.169 63.1738 205.374 64.2971 205.364 65.6901C205.353 67.0831 206.13 68.2183 207.1 68.2257C208.069 68.233 208.863 67.1097 208.874 65.7167Z" fill="#CCCDE2"/>
<path d="M196.322 71.9833C196.332 70.5903 195.555 69.4551 194.586 69.4478C193.617 69.4404 192.823 70.5637 192.812 71.9567C192.802 73.3497 193.579 74.4849 194.548 74.4923C195.517 74.4996 196.311 73.3763 196.322 71.9833Z" fill="#FF6584"/>
<path d="M213.794 83.5648C213.805 82.1718 213.028 81.0366 212.059 81.0293C211.089 81.022 210.295 82.1453 210.285 83.5383C210.274 84.9313 211.051 86.0665 212.021 86.0738C212.99 86.0811 213.784 84.9578 213.794 83.5648Z" fill="#21222E"/>
</g>
<defs>
<clipPath id="clip0_132_6430">
<rect width="324" height="370" fill="white"/>
</clipPath>
</defs>
</svg>
