<svg width="855" height="491" viewBox="0 0 855 491" fill="none" xmlns="http://www.w3.org/2000/svg">
<mask id="mask0_13_195" style="mask-type:alpha" maskUnits="userSpaceOnUse" x="0" y="0" width="855" height="491">
<rect width="855" height="491" fill="#C4C4C4"/>
</mask>
<g mask="url(#mask0_13_195)">
<g opacity="0.2">
<path d="M247.977 706.946H248.792C255.979 706.732 262.788 703.68 267.728 698.458C272.668 693.235 275.335 686.268 275.144 679.084C271.124 541.096 302.149 437.108 367.352 370.015C431.831 303.556 533.058 269.937 668.191 269.937C675.397 269.937 682.307 267.076 687.402 261.983C692.497 256.89 695.359 249.983 695.359 242.781C695.359 235.579 692.497 228.672 687.402 223.579C682.307 218.486 675.397 215.625 668.191 215.625C517.862 215.625 403.486 254.82 328.375 332.124C252.523 410.115 216.299 527.355 220.845 680.568C221.047 687.628 223.994 694.332 229.059 699.256C234.125 704.181 240.91 706.939 247.977 706.946Z" fill="#EFF1F4"/>
<path d="M758.749 269.937H849.309C856.514 269.937 863.424 267.076 868.519 261.983C873.614 256.89 876.477 249.983 876.477 242.781C876.477 235.579 873.614 228.672 868.519 223.579C863.424 218.486 856.514 215.625 849.309 215.625H758.749C751.544 215.625 744.633 218.486 739.538 223.579C734.443 228.672 731.581 235.579 731.581 242.781C731.581 249.983 734.443 256.89 739.538 261.983C744.633 267.076 751.544 269.937 758.749 269.937Z" fill="#EFF1F4"/>
<path d="M169.028 762.163C175.033 762.163 180.791 759.778 185.037 755.534C189.283 751.29 191.668 745.535 191.668 739.533C191.668 594.032 203.568 517.489 227.041 452.514C228.112 449.706 228.614 446.712 228.515 443.708C228.417 440.704 227.721 437.749 226.467 435.017C225.214 432.285 223.429 429.829 221.215 427.794C219.002 425.759 216.406 424.185 213.577 423.164C210.749 422.143 207.745 421.696 204.742 421.848C201.739 422 198.796 422.749 196.085 424.05C193.374 425.351 190.95 427.18 188.954 429.428C186.958 431.676 185.43 434.299 184.459 437.144C159.193 507.043 146.425 592.167 146.425 739.478C146.417 742.452 146.997 745.397 148.129 748.147C149.261 750.896 150.924 753.396 153.024 755.502C155.123 757.609 157.617 759.282 160.363 760.424C163.109 761.567 166.054 762.158 169.028 762.163V762.163Z" fill="#EFF1F4"/>
<path d="M233.614 405.1C237.69 405.106 241.692 404.012 245.198 401.935C248.705 399.857 251.585 396.873 253.537 393.296C280.297 343.399 318.846 300.791 365.831 269.176C408.557 240.518 460.013 219.698 518.822 207.279C524.697 206.036 529.837 202.51 533.111 197.479C536.386 192.447 537.526 186.321 536.282 180.449C535.038 174.577 531.511 169.44 526.477 166.167C521.443 162.894 515.315 161.754 509.44 162.997C372.913 191.855 273.424 262.043 213.727 371.644C211.852 375.094 210.907 378.973 210.985 382.898C211.062 386.824 212.159 390.662 214.169 394.036C216.178 397.41 219.03 400.204 222.445 402.143C225.861 404.083 229.722 405.102 233.65 405.1H233.614Z" fill="#EFF1F4"/>
<path d="M588.461 196.58C589.186 196.58 589.91 196.58 590.634 196.58C615.23 194.245 641.348 192.959 668.19 192.959H756.938C762.943 192.959 768.701 190.575 772.947 186.331C777.193 182.087 779.578 176.331 779.578 170.33C779.578 164.328 777.193 158.572 772.947 154.328C768.701 150.084 762.943 147.7 756.938 147.7H668.19C639.899 147.7 612.351 148.967 586.36 151.429C580.585 151.996 575.248 154.758 571.451 159.145C567.654 163.531 565.688 169.208 565.957 175.002C566.227 180.796 568.712 186.266 572.9 190.281C577.088 194.297 582.658 196.551 588.461 196.58V196.58Z" fill="#EFF1F4"/>
<path d="M834.818 192.959H1074.8C1080.81 192.959 1086.56 190.575 1090.81 186.331C1095.06 182.087 1097.44 176.331 1097.44 170.33C1097.44 164.328 1095.06 158.572 1090.81 154.328C1086.56 150.084 1080.81 147.7 1074.8 147.7H834.818C828.814 147.7 823.055 150.084 818.81 154.328C814.564 158.572 812.178 164.328 812.178 170.33C812.178 176.331 814.564 182.087 818.81 186.331C823.055 190.575 828.814 192.959 834.818 192.959V192.959Z" fill="#EFF1F4"/>
<path d="M91.6532 707.851C100.058 707.846 108.117 704.507 114.06 698.566C120.003 692.626 123.344 684.57 123.349 676.169C123.349 566.659 141.026 470.781 175.874 391.215C177.691 387.381 178.719 383.221 178.898 378.982C179.076 374.744 178.401 370.512 176.913 366.539C175.424 362.566 173.153 358.933 170.233 355.854C167.313 352.775 163.804 350.314 159.914 348.616C156.025 346.918 151.834 346.018 147.589 345.97C143.345 345.922 139.135 346.727 135.208 348.336C131.281 349.945 127.717 352.326 124.728 355.338C121.738 358.35 119.385 361.931 117.807 365.869C79.4095 453.51 59.8487 557.933 59.8487 676.242C59.8582 680.405 60.6886 684.526 62.2925 688.369C63.8964 692.211 66.2423 695.7 69.1961 698.636C72.1499 701.571 75.6538 703.896 79.5071 705.478C83.3605 707.059 87.4878 707.865 91.6532 707.851V707.851Z" fill="#EFF1F4"/>
<path d="M200.18 317.134C205.155 317.142 210.062 315.977 214.503 313.734C218.943 311.492 222.792 308.234 225.736 304.226C300.249 203.079 415.694 143.916 568.885 128.383C573.104 128.064 577.216 126.904 580.979 124.972C584.742 123.04 588.08 120.374 590.796 117.132C593.512 113.89 595.552 110.137 596.794 106.095C598.036 102.052 598.457 97.8022 598.03 93.595C597.603 89.3878 596.338 85.3086 594.309 81.5978C592.28 77.887 589.528 74.6198 586.216 71.9887C582.904 69.3576 579.099 67.4159 575.024 66.2781C570.949 65.1402 566.688 64.8292 562.491 65.3634C390.736 82.7431 260.258 150.452 174.643 266.66C171.173 271.379 169.078 276.967 168.592 282.803C168.106 288.639 169.247 294.496 171.888 299.724C174.529 304.952 178.568 309.346 183.555 312.419C188.543 315.492 194.285 317.124 200.144 317.134H200.18Z" fill="#EFF1F4"/>
<path d="M677.248 124.165H1010.51C1018.91 124.165 1026.98 120.827 1032.92 114.885C1038.86 108.944 1042.2 100.886 1042.2 92.483C1042.2 84.0805 1038.86 76.0221 1032.92 70.0806C1026.98 64.1392 1018.91 60.8013 1010.51 60.8013H677.248C668.842 60.8013 660.78 64.1392 654.835 70.0806C648.891 76.0221 645.552 84.0805 645.552 92.483C645.552 100.886 648.891 108.944 654.835 114.885C660.78 120.827 668.842 124.165 677.248 124.165V124.165Z" fill="#EFF1F4"/>
<path d="M19.9248 705.135C24.7284 705.135 29.3352 703.228 32.7318 699.833C36.1284 696.438 38.0366 691.833 38.0366 687.032C38.0366 621.622 43.1441 560.123 53.2324 504.183C54.0042 499.493 52.9 494.687 50.1579 490.804C47.4157 486.921 43.2558 484.271 38.5761 483.428C33.8965 482.584 29.0725 483.613 25.1458 486.294C21.2191 488.975 18.5045 493.092 17.5883 497.756C7.11972 555.688 1.81304 619.395 1.81304 686.959C1.8035 689.343 2.26494 691.705 3.17087 693.909C4.0768 696.114 5.40936 698.118 7.09215 699.807C8.77493 701.496 10.7748 702.836 12.9769 703.75C15.1791 704.665 17.5403 705.135 19.9248 705.135V705.135Z" fill="#EFF1F4"/>
<path d="M47.6377 462.942C51.6602 462.943 55.5685 461.606 58.7463 459.141C61.9241 456.675 64.1906 453.223 65.1882 449.328C70.7455 427.477 77.3949 405.919 85.1113 384.734C86.0126 382.485 86.4532 380.078 86.407 377.655C86.3607 375.233 85.8284 372.845 84.8419 370.632C83.8553 368.419 82.4345 366.427 80.6634 364.773C78.8924 363.119 76.8072 361.837 74.5315 361.003C72.2558 360.169 69.8359 359.801 67.415 359.919C64.9941 360.037 62.6216 360.64 60.438 361.691C58.2544 362.742 56.3041 364.221 54.7027 366.04C53.1013 367.858 51.8814 369.98 51.1152 372.278C43.164 394.003 36.0823 416.85 30.051 440.33C29.4606 442.634 29.3301 445.032 29.6669 447.386C30.0036 449.74 30.8011 452.005 32.0138 454.051C33.2264 456.097 34.8305 457.884 36.7344 459.31C38.6383 460.736 40.8047 461.774 43.1097 462.363C44.5872 462.753 46.1095 462.948 47.6377 462.942Z" fill="#EFF1F4"/>
<path d="M91.6347 341.157C95.0369 341.158 98.3704 340.2 101.253 338.394C104.136 336.588 106.452 334.007 107.935 330.947C113.985 318.491 120.505 306.253 127.334 294.594C129.678 290.455 130.298 285.56 129.06 280.967C127.822 276.375 124.826 272.453 120.719 270.051C116.612 267.649 111.724 266.959 107.112 268.13C102.5 269.301 98.5342 272.239 96.0721 276.309C88.8273 288.783 81.7999 301.854 75.352 315.142C74.0101 317.903 73.3925 320.959 73.5572 324.024C73.7218 327.089 74.6632 330.062 76.2931 332.663C77.923 335.264 80.1878 337.409 82.8746 338.894C85.5614 340.38 88.5821 341.159 91.6528 341.157H91.6347Z" fill="#EFF1F4"/>
<path d="M146.804 251.181C149.604 251.198 152.369 250.566 154.883 249.335C157.397 248.104 159.592 246.307 161.294 244.085C215.63 172.991 289.001 119.675 379.307 85.4588C383.7 83.688 387.224 80.2678 389.124 75.9311C391.023 71.5944 391.148 66.6864 389.471 62.2588C387.794 57.8312 384.449 54.2365 380.152 52.2449C375.855 50.2534 370.948 50.0235 366.484 51.6046C269.766 88.1744 191.034 145.545 132.423 222.07C130.369 224.752 129.106 227.955 128.777 231.316C128.448 234.678 129.067 238.064 130.563 241.093C132.059 244.122 134.373 246.671 137.243 248.454C140.113 250.237 143.425 251.182 146.804 251.181V251.181Z" fill="#EFF1F4"/>
<path d="M434.601 66.8118C436.198 66.8048 437.786 66.5918 439.328 66.1781C508.371 47.6217 587.194 38.2077 673.624 38.2077C734.698 38.2077 796.695 38.3163 849.31 38.4249C854.114 38.4249 858.72 36.5176 862.117 33.1225C865.514 29.7273 867.422 25.1225 867.422 20.3211C867.422 15.5197 865.514 10.9149 862.117 7.51974C858.72 4.12461 854.114 2.21725 849.31 2.21725C796.785 2.10862 734.698 2 673.624 2C583.97 2 502.032 11.8304 429.91 31.2196C425.664 32.3555 421.977 34.9958 419.534 38.6485C417.092 42.3011 416.062 46.7168 416.636 51.0725C417.21 55.4282 419.349 59.4266 422.654 62.3224C425.96 65.2182 430.206 66.8138 434.601 66.8118V66.8118Z" fill="#EFF1F4"/>
</g>
</g>
</svg>
